<?xml version="1.0" encoding="UTF-8" standalone="no"?><svg xmlns="http://www.w3.org/2000/svg" xmlns:xlink="http://www.w3.org/1999/xlink" contentStyleType="text/css" height="1079px" preserveAspectRatio="none" style="width:2396px;height:1079px;background:#FFFFFF;" version="1.1" viewBox="0 0 2396 1079" width="2396px" zoomAndPan="magnify"><defs/><g><!--MD5=[d71d1ab749f02987107a92bcb0388bfb]
class SP--><g id="elem_SP"><rect codeLine="3" fill="#F1F1F1" height="48" id="SP" rx="2.5" ry="2.5" style="stroke:#181818;stroke-width:0.5;" width="48" x="429.5" y="7"/><ellipse cx="444.5" cy="23" fill="#ADD1B2" rx="11" ry="11" style="stroke:#181818;stroke-width:1.0;"/><path d="M446.9731,29.1431 Q446.3921,29.4419 445.7529,29.5913 Q445.1138,29.7407 444.4082,29.7407 Q441.9014,29.7407 440.5815,28.0889 Q439.2617,26.437 439.2617,23.3159 Q439.2617,20.1865 440.5815,18.5347 Q441.9014,16.8828 444.4082,16.8828 Q445.1138,16.8828 445.7612,17.0322 Q446.4087,17.1816 446.9731,17.4805 L446.9731,20.2031 Q446.3423,19.6221 445.7488,19.3523 Q445.1553,19.0825 444.5244,19.0825 Q443.1797,19.0825 442.4949,20.1492 Q441.8101,21.2158 441.8101,23.3159 Q441.8101,25.4077 442.4949,26.4744 Q443.1797,27.541 444.5244,27.541 Q445.1553,27.541 445.7488,27.2712 Q446.3423,27.0015 446.9731,26.4204 Z " fill="#000000"/><text fill="#000000" font-family="sans-serif" font-size="14" lengthAdjust="spacing" textLength="16" x="458.5" y="28.291">SP</text><line style="stroke:#181818;stroke-width:0.5;" x1="430.5" x2="476.5" y1="39" y2="39"/><line style="stroke:#181818;stroke-width:0.5;" x1="430.5" x2="476.5" y1="47" y2="47"/></g><!--MD5=[ae088927e5dda082715dd85725f1773d]
class QPS--><g id="elem_QPS"><rect codeLine="4" fill="#F1F1F1" height="48" id="QPS" rx="2.5" ry="2.5" style="stroke:#181818;stroke-width:0.5;" width="59" x="730" y="7"/><ellipse cx="745" cy="23" fill="#ADD1B2" rx="11" ry="11" style="stroke:#181818;stroke-width:1.0;"/><path d="M747.4731,29.1431 Q746.8921,29.4419 746.2529,29.5913 Q745.6138,29.7407 744.9082,29.7407 Q742.4014,29.7407 741.0815,28.0889 Q739.7617,26.437 739.7617,23.3159 Q739.7617,20.1865 741.0815,18.5347 Q742.4014,16.8828 744.9082,16.8828 Q745.6138,16.8828 746.2612,17.0322 Q746.9087,17.1816 747.4731,17.4805 L747.4731,20.2031 Q746.8423,19.6221 746.2488,19.3523 Q745.6553,19.0825 745.0244,19.0825 Q743.6797,19.0825 742.9949,20.1492 Q742.3101,21.2158 742.3101,23.3159 Q742.3101,25.4077 742.9949,26.4744 Q743.6797,27.541 745.0244,27.541 Q745.6553,27.541 746.2488,27.2712 Q746.8423,27.0015 747.4731,26.4204 Z " fill="#000000"/><text fill="#000000" font-family="sans-serif" font-size="14" lengthAdjust="spacing" textLength="27" x="759" y="28.291">QPS</text><line style="stroke:#181818;stroke-width:0.5;" x1="731" x2="788" y1="39" y2="39"/><line style="stroke:#181818;stroke-width:0.5;" x1="731" x2="788" y1="47" y2="47"/></g><!--MD5=[3856f6c812e91a5d8d80be3a4907ff07]
class PKB--><g id="elem_PKB"><rect codeLine="21" fill="#F1F1F1" height="179.9063" id="PKB" rx="2.5" ry="2.5" style="stroke:#181818;stroke-width:0.5;" width="464" x="374.5" y="305"/><ellipse cx="589.75" cy="321" fill="#ADD1B2" rx="11" ry="11" style="stroke:#181818;stroke-width:1.0;"/><path d="M592.2231,327.1431 Q591.6421,327.4419 591.0029,327.5913 Q590.3638,327.7407 589.6582,327.7407 Q587.1514,327.7407 585.8315,326.0889 Q584.5117,324.437 584.5117,321.3159 Q584.5117,318.1865 585.8315,316.5347 Q587.1514,314.8828 589.6582,314.8828 Q590.3638,314.8828 591.0112,315.0322 Q591.6587,315.1816 592.2231,315.4805 L592.2231,318.2031 Q591.5923,317.6221 590.9988,317.3523 Q590.4053,317.0825 589.7744,317.0825 Q588.4297,317.0825 587.7449,318.1492 Q587.0601,319.2158 587.0601,321.3159 Q587.0601,323.4077 587.7449,324.4744 Q588.4297,325.541 589.7744,325.541 Q590.4053,325.541 590.9988,325.2712 Q591.5923,325.0015 592.2231,324.4204 Z " fill="#000000"/><text fill="#000000" font-family="sans-serif" font-size="14" lengthAdjust="spacing" textLength="25" x="610.25" y="326.291">PKB</text><line style="stroke:#181818;stroke-width:0.5;" x1="375.5" x2="837.5" y1="337" y2="337"/><line style="stroke:#181818;stroke-width:0.5;" x1="375.5" x2="837.5" y1="345" y2="345"/><text fill="#000000" font-family="sans-serif" font-size="14" lengthAdjust="spacing" textLength="152" x="380.5" y="362.5352">void populate(Entity[])</text><text fill="#000000" font-family="sans-serif" font-size="14" lengthAdjust="spacing" textLength="199" x="380.5" y="379.0234">void populate(Relationship[])</text><text fill="#000000" font-family="sans-serif" font-size="14" lengthAdjust="spacing" textLength="163" x="380.5" y="395.5117">void populate(Pattern[])</text><text fill="#000000" font-family="sans-serif" font-size="14" lengthAdjust="spacing" textLength="339" x="380.5" y="412">EntityPointerUnorderedSet getEntities(EntityType)</text><text fill="#000000" font-family="sans-serif" font-size="14" lengthAdjust="spacing" textLength="452" x="380.5" y="428.4883">EntityPointerUnorderedSet getByRelationship(RsType, Entity, bool)</text><text fill="#000000" font-family="sans-serif" font-size="14" lengthAdjust="spacing" textLength="408" x="380.5" y="444.9766">EntityPointerUnorderedSet getByPattern(Entity, String, bool)</text><text fill="#000000" font-family="sans-serif" font-size="14" lengthAdjust="spacing" textLength="309" x="380.5" y="461.4648">EntityPointerUnorderedSet getEntities(String)</text><text fill="#000000" font-family="sans-serif" font-size="14" lengthAdjust="spacing" textLength="263" x="380.5" y="477.9531">Map&lt;EntityType, int&gt; getSimpleStats()</text></g><!--MD5=[72fafe39a0b4fbb863f0a243b20773f7]
class IPKBPopulator--><g id="elem_IPKBPopulator"><rect codeLine="7" fill="#F1F1F1" height="97.4648" id="IPKBPopulator" rx="2.5" ry="2.5" style="stroke:#181818;stroke-width:0.5;" width="211" x="348" y="131.5"/><ellipse cx="401.25" cy="147.5" fill="#B4A7E5" rx="11" ry="11" style="stroke:#181818;stroke-width:1.0;"/><path d="M397.6777,143.7651 L397.6777,141.6069 L405.0571,141.6069 L405.0571,143.7651 L402.5918,143.7651 L402.5918,151.8418 L405.0571,151.8418 L405.0571,154 L397.6777,154 L397.6777,151.8418 L400.1431,151.8418 L400.1431,143.7651 Z " fill="#000000"/><text fill="#000000" font-family="sans-serif" font-size="14" font-style="italic" lengthAdjust="spacing" textLength="96" x="421.75" y="152.791">IPKBPopulator</text><line style="stroke:#181818;stroke-width:0.5;" x1="349" x2="558" y1="163.5" y2="163.5"/><line style="stroke:#181818;stroke-width:0.5;" x1="349" x2="558" y1="171.5" y2="171.5"/><text fill="#000000" font-family="sans-serif" font-size="14" lengthAdjust="spacing" textLength="152" x="354" y="189.0352">void populate(Entity[])</text><text fill="#000000" font-family="sans-serif" font-size="14" lengthAdjust="spacing" textLength="199" x="354" y="205.5234">void populate(Relationship[])</text><text fill="#000000" font-family="sans-serif" font-size="14" lengthAdjust="spacing" textLength="163" x="354" y="222.0117">void populate(Pattern[])</text></g><!--MD5=[4fa2d5ce616373be846ec9cee428e8de]
class IPKBQuerier--><g id="elem_IPKBQuerier"><rect codeLine="13" fill="#F1F1F1" height="130.4414" id="IPKBQuerier" rx="2.5" ry="2.5" style="stroke:#181818;stroke-width:0.5;" width="330" x="594.5" y="115"/><ellipse cx="714.75" cy="131" fill="#B4A7E5" rx="11" ry="11" style="stroke:#181818;stroke-width:1.0;"/><path d="M711.1777,127.2651 L711.1777,125.1069 L718.5571,125.1069 L718.5571,127.2651 L716.0918,127.2651 L716.0918,135.3418 L718.5571,135.3418 L718.5571,137.5 L711.1777,137.5 L711.1777,135.3418 L713.6431,135.3418 L713.6431,127.2651 Z " fill="#000000"/><text fill="#000000" font-family="sans-serif" font-size="14" font-style="italic" lengthAdjust="spacing" textLength="81" x="735.25" y="136.291">IPKBQuerier</text><line style="stroke:#181818;stroke-width:0.5;" x1="595.5" x2="923.5" y1="147" y2="147"/><line style="stroke:#181818;stroke-width:0.5;" x1="595.5" x2="923.5" y1="155" y2="155"/><text fill="#000000" font-family="sans-serif" font-size="14" lengthAdjust="spacing" textLength="205" x="600.5" y="172.5352">Entity[] getEntities(EntityType)</text><text fill="#000000" font-family="sans-serif" font-size="14" lengthAdjust="spacing" textLength="318" x="600.5" y="189.0234">Entity[] getByRelationship(RsType, Entity, bool)</text><text fill="#000000" font-family="sans-serif" font-size="14" lengthAdjust="spacing" textLength="274" x="600.5" y="205.5117">Entity[] getByPattern(Entity, String, bool)</text><text fill="#000000" font-family="sans-serif" font-size="14" lengthAdjust="spacing" textLength="175" x="600.5" y="222">Entity[] getEntities(String)</text><text fill="#000000" font-family="sans-serif" font-size="14" lengthAdjust="spacing" textLength="263" x="600.5" y="238.4883">Map&lt;EntityType, int&gt; getSimpleStats()</text></g><!--MD5=[50f223dc1404568940f50a1eaf520228]
class EntityManager--><g id="elem_EntityManager"><rect codeLine="32" fill="#F1F1F1" height="130.4414" id="EntityManager" rx="2.5" ry="2.5" style="stroke:#181818;stroke-width:0.5;" width="234" x="1088.5" y="553.5"/><ellipse cx="1152.25" cy="569.5" fill="#ADD1B2" rx="11" ry="11" style="stroke:#181818;stroke-width:1.0;"/><path d="M1154.7231,575.6431 Q1154.1421,575.9419 1153.5029,576.0913 Q1152.8638,576.2407 1152.1582,576.2407 Q1149.6514,576.2407 1148.3315,574.5889 Q1147.0117,572.937 1147.0117,569.8159 Q1147.0117,566.6865 1148.3315,565.0347 Q1149.6514,563.3828 1152.1582,563.3828 Q1152.8638,563.3828 1153.5112,563.5322 Q1154.1587,563.6816 1154.7231,563.9805 L1154.7231,566.7031 Q1154.0923,566.1221 1153.4988,565.8523 Q1152.9053,565.5825 1152.2744,565.5825 Q1150.9297,565.5825 1150.2449,566.6492 Q1149.5601,567.7158 1149.5601,569.8159 Q1149.5601,571.9077 1150.2449,572.9744 Q1150.9297,574.041 1152.2744,574.041 Q1152.9053,574.041 1153.4988,573.7712 Q1154.0923,573.5015 1154.7231,572.9204 Z " fill="#000000"/><text fill="#000000" font-family="sans-serif" font-size="14" lengthAdjust="spacing" textLength="98" x="1172.75" y="574.791">EntityManager</text><line style="stroke:#181818;stroke-width:0.5;" x1="1089.5" x2="1321.5" y1="585.5" y2="585.5"/><line style="stroke:#181818;stroke-width:0.5;" x1="1089.5" x2="1321.5" y1="593.5" y2="593.5"/><text fill="#000000" font-family="sans-serif" font-size="14" lengthAdjust="spacing" textLength="222" x="1094.5" y="611.0352">EntityTable GetTable(EntityType)</text><text fill="#000000" font-family="sans-serif" font-size="14" lengthAdjust="spacing" textLength="218" x="1094.5" y="627.5234">void Populate(Vector&lt;Entity *&gt;)</text><text fill="#000000" font-family="sans-serif" font-size="14" lengthAdjust="spacing" textLength="156" x="1094.5" y="644.0117">Entity[] Get(EntityType)</text><text fill="#000000" font-family="sans-serif" font-size="14" lengthAdjust="spacing" textLength="126" x="1094.5" y="660.5">Entity[] Get(String)</text><text fill="#000000" font-family="sans-serif" font-size="14" lengthAdjust="spacing" textLength="185" x="1094.5" y="676.9883">Map&lt;EntityType, int&gt; Get()</text></g><!--MD5=[e842e1dc6e292cf54a19d21b850fee95]
class RelationshipManager--><g id="elem_RelationshipManager"><rect codeLine="40" fill="#F1F1F1" height="146.9297" id="RelationshipManager" rx="2.5" ry="2.5" style="stroke:#181818;stroke-width:0.5;" width="266" x="473.5" y="545"/><ellipse cx="529.75" cy="561" fill="#ADD1B2" rx="11" ry="11" style="stroke:#181818;stroke-width:1.0;"/><path d="M532.2231,567.1431 Q531.6421,567.4419 531.0029,567.5913 Q530.3638,567.7407 529.6582,567.7407 Q527.1514,567.7407 525.8315,566.0889 Q524.5117,564.437 524.5117,561.3159 Q524.5117,558.1865 525.8315,556.5347 Q527.1514,554.8828 529.6582,554.8828 Q530.3638,554.8828 531.0112,555.0322 Q531.6587,555.1816 532.2231,555.4805 L532.2231,558.2031 Q531.5923,557.6221 530.9988,557.3523 Q530.4053,557.0825 529.7744,557.0825 Q528.4297,557.0825 527.7449,558.1492 Q527.0601,559.2158 527.0601,561.3159 Q527.0601,563.4077 527.7449,564.4744 Q528.4297,565.541 529.7744,565.541 Q530.4053,565.541 530.9988,565.2712 Q531.5923,565.0015 532.2231,564.4204 Z " fill="#000000"/><text fill="#000000" font-family="sans-serif" font-size="14" lengthAdjust="spacing" textLength="145" x="550.25" y="566.291">RelationshipManager</text><line style="stroke:#181818;stroke-width:0.5;" x1="474.5" x2="738.5" y1="577" y2="577"/><line style="stroke:#181818;stroke-width:0.5;" x1="474.5" x2="738.5" y1="585" y2="585"/><text fill="#000000" font-family="sans-serif" font-size="14" lengthAdjust="spacing" textLength="175" x="479.5" y="602.5352">void CreateTable(RsType)</text><text fill="#000000" font-family="sans-serif" font-size="14" lengthAdjust="spacing" textLength="121" x="479.5" y="619.0234">void ClearCache()</text><text fill="#000000" font-family="sans-serif" font-size="14" lengthAdjust="spacing" textLength="198" x="479.5" y="635.5117">void Populate(Relationship[])</text><text fill="#000000" font-family="sans-serif" font-size="14" lengthAdjust="spacing" textLength="254" x="479.5" y="652">RelationshipTable* GetTable(RsType)</text><text fill="#000000" font-family="sans-serif" font-size="14" lengthAdjust="spacing" textLength="219" x="479.5" y="668.4883">Entity[] Get(RsType, Entity, bool)</text><text fill="#000000" font-family="sans-serif" font-size="14" lengthAdjust="spacing" textLength="237" x="479.5" y="684.9766">Entity[] GetAll(RsType, Entity, bool)</text></g><!--MD5=[39b64e09ec1ed37e75b944bd9dd18e77]
class PatternManager--><g id="elem_PatternManager"><rect codeLine="49" fill="#F1F1F1" height="97.4648" id="PatternManager" rx="2.5" ry="2.5" style="stroke:#181818;stroke-width:0.5;" width="223" x="155" y="570"/><ellipse cx="207.75" cy="586" fill="#ADD1B2" rx="11" ry="11" style="stroke:#181818;stroke-width:1.0;"/><path d="M210.2231,592.1431 Q209.6421,592.4419 209.0029,592.5913 Q208.3638,592.7407 207.6582,592.7407 Q205.1514,592.7407 203.8315,591.0889 Q202.5117,589.437 202.5117,586.3159 Q202.5117,583.1865 203.8315,581.5347 Q205.1514,579.8828 207.6582,579.8828 Q208.3638,579.8828 209.0112,580.0322 Q209.6587,580.1816 210.2231,580.4805 L210.2231,583.2031 Q209.5923,582.6221 208.9988,582.3523 Q208.4053,582.0825 207.7744,582.0825 Q206.4297,582.0825 205.7449,583.1492 Q205.0601,584.2158 205.0601,586.3159 Q205.0601,588.4077 205.7449,589.4744 Q206.4297,590.541 207.7744,590.541 Q208.4053,590.541 208.9988,590.2712 Q209.5923,590.0015 210.2231,589.4204 Z " fill="#000000"/><text fill="#000000" font-family="sans-serif" font-size="14" lengthAdjust="spacing" textLength="109" x="228.25" y="591.291">PatternManager</text><line style="stroke:#181818;stroke-width:0.5;" x1="156" x2="377" y1="602" y2="602"/><line style="stroke:#181818;stroke-width:0.5;" x1="156" x2="377" y1="610" y2="610"/><text fill="#000000" font-family="sans-serif" font-size="14" lengthAdjust="spacing" textLength="162" x="161" y="627.5352">PatternTable GetTable()</text><text fill="#000000" font-family="sans-serif" font-size="14" lengthAdjust="spacing" textLength="162" x="161" y="644.0234">void Populate(Pattern[])</text><text fill="#000000" font-family="sans-serif" font-size="14" lengthAdjust="spacing" textLength="211" x="161" y="660.5117">Entity[] Get(Entity, String, bool)</text></g><!--MD5=[cab01e77c9fcb0aa17bc5ff95fbb7aec]
class RelationshipTable--><g id="elem_RelationshipTable"><rect codeLine="55" fill="#F1F1F1" height="97.4648" id="RelationshipTable" rx="2.5" ry="2.5" style="stroke:#181818;stroke-width:0.5;" width="308" x="513.5" y="793.5"/><ellipse cx="601.75" cy="809.5" fill="#ADD1B2" rx="11" ry="11" style="stroke:#181818;stroke-width:1.0;"/><path d="M604.2231,815.6431 Q603.6421,815.9419 603.0029,816.0913 Q602.3638,816.2407 601.6582,816.2407 Q599.1514,816.2407 597.8315,814.5889 Q596.5117,812.937 596.5117,809.8159 Q596.5117,806.6865 597.8315,805.0347 Q599.1514,803.3828 601.6582,803.3828 Q602.3638,803.3828 603.0112,803.5322 Q603.6587,803.6816 604.2231,803.9805 L604.2231,806.7031 Q603.5923,806.1221 602.9988,805.8523 Q602.4053,805.5825 601.7744,805.5825 Q600.4297,805.5825 599.7449,806.6492 Q599.0601,807.7158 599.0601,809.8159 Q599.0601,811.9077 599.7449,812.9744 Q600.4297,814.041 601.7744,814.041 Q602.4053,814.041 602.9988,813.7712 Q603.5923,813.5015 604.2231,812.9204 Z " fill="#000000"/><text fill="#000000" font-family="sans-serif" font-size="14" lengthAdjust="spacing" textLength="123" x="622.25" y="814.791">RelationshipTable</text><line style="stroke:#181818;stroke-width:0.5;" x1="514.5" x2="820.5" y1="825.5" y2="825.5"/><line style="stroke:#181818;stroke-width:0.5;" x1="514.5" x2="820.5" y1="833.5" y2="833.5"/><text fill="#000000" font-family="sans-serif" font-size="14" lengthAdjust="spacing" textLength="188" x="519.5" y="851.0352">void Populate(Relationship)</text><text fill="#000000" font-family="sans-serif" font-size="14" lengthAdjust="spacing" textLength="296" x="519.5" y="867.5234">EntityPointerUnorderedMap GetTable(bool)</text><text fill="#000000" font-family="sans-serif" font-size="14" lengthAdjust="spacing" textLength="162" x="519.5" y="884.0117">Entity[] Get(Entity, bool)</text></g><!--MD5=[764905ee1c3af85e03b62c9e097be8fb]
class EntityTable--><g id="elem_EntityTable"><rect codeLine="61" fill="#F1F1F1" height="80.9766" id="EntityTable" rx="2.5" ry="2.5" style="stroke:#181818;stroke-width:0.5;" width="153" x="1576" y="801.5"/><ellipse cx="1611.25" cy="817.5" fill="#ADD1B2" rx="11" ry="11" style="stroke:#181818;stroke-width:1.0;"/><path d="M1613.7231,823.6431 Q1613.1421,823.9419 1612.5029,824.0913 Q1611.8638,824.2407 1611.1582,824.2407 Q1608.6514,824.2407 1607.3315,822.5889 Q1606.0117,820.937 1606.0117,817.8159 Q1606.0117,814.6865 1607.3315,813.0347 Q1608.6514,811.3828 1611.1582,811.3828 Q1611.8638,811.3828 1612.5112,811.5322 Q1613.1587,811.6816 1613.7231,811.9805 L1613.7231,814.7031 Q1613.0923,814.1221 1612.4988,813.8523 Q1611.9053,813.5825 1611.2744,813.5825 Q1609.9297,813.5825 1609.2449,814.6492 Q1608.5601,815.7158 1608.5601,817.8159 Q1608.5601,819.9077 1609.2449,820.9744 Q1609.9297,822.041 1611.2744,822.041 Q1611.9053,822.041 1612.4988,821.7712 Q1613.0923,821.5015 1613.7231,820.9204 Z " fill="#000000"/><text fill="#000000" font-family="sans-serif" font-size="14" lengthAdjust="spacing" textLength="76" x="1629.75" y="822.791">EntityTable</text><line style="stroke:#181818;stroke-width:0.5;" x1="1577" x2="1728" y1="833.5" y2="833.5"/><line style="stroke:#181818;stroke-width:0.5;" x1="1577" x2="1728" y1="841.5" y2="841.5"/><text fill="#000000" font-family="sans-serif" font-size="14" lengthAdjust="spacing" textLength="141" x="1582" y="859.0352">void Populate(Entity)</text><text fill="#000000" font-family="sans-serif" font-size="14" lengthAdjust="spacing" textLength="85" x="1582" y="875.5234">Entity[] Get()</text></g><!--MD5=[26dfeeed19066fd0891476493fdb3b5f]
class PatternTable--><g id="elem_PatternTable"><rect codeLine="66" fill="#F1F1F1" height="97.4648" id="PatternTable" rx="2.5" ry="2.5" style="stroke:#181818;stroke-width:0.5;" width="277" x="7" y="793.5"/><ellipse cx="97.75" cy="809.5" fill="#ADD1B2" rx="11" ry="11" style="stroke:#181818;stroke-width:1.0;"/><path d="M100.2231,815.6431 Q99.6421,815.9419 99.0029,816.0913 Q98.3638,816.2407 97.6582,816.2407 Q95.1514,816.2407 93.8315,814.5889 Q92.5117,812.937 92.5117,809.8159 Q92.5117,806.6865 93.8315,805.0347 Q95.1514,803.3828 97.6582,803.3828 Q98.3638,803.3828 99.0112,803.5322 Q99.6587,803.6816 100.2231,803.9805 L100.2231,806.7031 Q99.5923,806.1221 98.9988,805.8523 Q98.4053,805.5825 97.7744,805.5825 Q96.4297,805.5825 95.7449,806.6492 Q95.0601,807.7158 95.0601,809.8159 Q95.0601,811.9077 95.7449,812.9744 Q96.4297,814.041 97.7744,814.041 Q98.4053,814.041 98.9988,813.7712 Q99.5923,813.5015 100.2231,812.9204 Z " fill="#000000"/><text fill="#000000" font-family="sans-serif" font-size="14" lengthAdjust="spacing" textLength="87" x="118.25" y="814.791">PatternTable</text><line style="stroke:#181818;stroke-width:0.5;" x1="8" x2="283" y1="825.5" y2="825.5"/><line style="stroke:#181818;stroke-width:0.5;" x1="8" x2="283" y1="833.5" y2="833.5"/><text fill="#000000" font-family="sans-serif" font-size="14" lengthAdjust="spacing" textLength="152" x="13" y="851.0352">void Populate(Pattern)</text><text fill="#000000" font-family="sans-serif" font-size="14" lengthAdjust="spacing" textLength="265" x="13" y="867.5234">PatternEntityUnorderedMap GetTable()</text><text fill="#000000" font-family="sans-serif" font-size="14" lengthAdjust="spacing" textLength="123" x="13" y="884.0117">Entity[] Get(Entity)</text></g><!--MD5=[cf7212f148c2a2f46c357ea31d18a0ad]
class Cache--><g id="elem_Cache"><rect codeLine="72" fill="#F1F1F1" height="179.9063" id="Cache" rx="2.5" ry="2.5" style="stroke:#181818;stroke-width:0.5;" width="159" x="319" y="752"/><ellipse cx="373.25" cy="768" fill="#ADD1B2" rx="11" ry="11" style="stroke:#181818;stroke-width:1.0;"/><path d="M375.7231,774.1431 Q375.1421,774.4419 374.5029,774.5913 Q373.8638,774.7407 373.1582,774.7407 Q370.6514,774.7407 369.3315,773.0889 Q368.0117,771.437 368.0117,768.3159 Q368.0117,765.1865 369.3315,763.5347 Q370.6514,761.8828 373.1582,761.8828 Q373.8638,761.8828 374.5112,762.0322 Q375.1587,762.1816 375.7231,762.4805 L375.7231,765.2031 Q375.0923,764.6221 374.4988,764.3523 Q373.9053,764.0825 373.2744,764.0825 Q371.9297,764.0825 371.2449,765.1492 Q370.5601,766.2158 370.5601,768.3159 Q370.5601,770.4077 371.2449,771.4744 Q371.9297,772.541 373.2744,772.541 Q373.9053,772.541 374.4988,772.2712 Q375.0923,772.0015 375.7231,771.4204 Z " fill="#000000"/><text fill="#000000" font-family="sans-serif" font-size="14" lengthAdjust="spacing" textLength="42" x="393.75" y="773.291">Cache</text><line style="stroke:#181818;stroke-width:0.5;" x1="320" x2="477" y1="784" y2="784"/><line style="stroke:#181818;stroke-width:0.5;" x1="320" x2="477" y1="792" y2="792"/><text fill="#000000" font-family="sans-serif" font-size="14" lengthAdjust="spacing" textLength="147" x="325" y="809.5352">void UpdateAccess(K)</text><text fill="#000000" font-family="sans-serif" font-size="14" lengthAdjust="spacing" textLength="74" x="325" y="826.0234">void Evict()</text><text fill="#000000" font-family="sans-serif" font-size="14" lengthAdjust="spacing" textLength="97" x="325" y="842.5117">void Add(K, V)</text><text fill="#000000" font-family="sans-serif" font-size="14" lengthAdjust="spacing" textLength="88" x="325" y="859">Result Get(K)</text><text fill="#000000" font-family="sans-serif" font-size="14" lengthAdjust="spacing" textLength="79" x="325" y="875.4883">void Clear()</text><text fill="#000000" font-family="sans-serif" font-size="14" lengthAdjust="spacing" textLength="60" x="325" y="891.9766">int Size()</text><text fill="#000000" font-family="sans-serif" font-size="14" lengthAdjust="spacing" textLength="58" x="325" y="908.4648">int Hits()</text><text fill="#000000" font-family="sans-serif" font-size="14" lengthAdjust="spacing" textLength="77" x="325" y="924.9531">int Misses()</text></g><!--MD5=[2741598bdf59a7d7e0d5c97658fd3022]
class Result--><g id="elem_Result"><rect codeLine="83" fill="#F1F1F1" height="80.9766" id="Result" rx="2.5" ry="2.5" style="stroke:#181818;stroke-width:0.5;" width="88" x="101.5" y="992"/><ellipse cx="122.8" cy="1008" fill="#F1F1F1" rx="11" ry="11" style="stroke:#181818;stroke-width:1.0;"/><path d="M122.5334,1009.063 Q120.6823,1008.3574 120.0266,1007.5813 Q119.3708,1006.8052 119.3708,1005.4937 Q119.3708,1003.8086 120.4499,1002.8457 Q121.529,1001.8828 123.4133,1001.8828 Q124.2683,1001.8828 125.1232,1002.0779 Q125.9782,1002.2729 126.8166,1002.6548 L126.8166,1005.0454 Q126.028,1004.4893 125.2146,1004.1987 Q124.4011,1003.9082 123.6042,1003.9082 Q122.716,1003.9082 122.2429,1004.2651 Q121.7697,1004.6221 121.7697,1005.2861 Q121.7697,1005.8008 122.1142,1006.137 Q122.4587,1006.4731 123.5544,1006.8799 L124.6086,1007.2783 Q126.1027,1007.8262 126.8083,1008.731 Q127.5139,1009.6357 127.5139,1011.0137 Q127.5139,1012.8896 126.4057,1013.8152 Q125.2976,1014.7407 123.0563,1014.7407 Q122.135,1014.7407 121.2094,1014.5208 Q120.2839,1014.3008 119.4206,1013.8691 L119.4206,1011.3374 Q120.4001,1012.0347 121.3173,1012.375 Q122.2346,1012.7153 123.1311,1012.7153 Q124.0358,1012.7153 124.5339,1012.3044 Q125.0319,1011.8936 125.0319,1011.1548 Q125.0319,1010.5986 124.6999,1010.1794 Q124.3679,1009.7603 123.737,1009.5195 Z " fill="#000000"/><text fill="#000000" font-family="sans-serif" font-size="14" lengthAdjust="spacing" textLength="42" x="138.2" y="1013.291">Result</text><line style="stroke:#181818;stroke-width:0.5;" x1="102.5" x2="188.5" y1="1024" y2="1024"/><text fill="#000000" font-family="sans-serif" font-size="14" lengthAdjust="spacing" textLength="49" x="107.5" y="1041.5352">V value</text><text fill="#000000" font-family="sans-serif" font-size="14" lengthAdjust="spacing" textLength="76" x="107.5" y="1058.0234">bool found</text><line style="stroke:#181818;stroke-width:0.5;" x1="102.5" x2="188.5" y1="1064.9766" y2="1064.9766"/></g><!--MD5=[7e62916f5a07322a419c82097bbfe8ad]
class VariableTable--><g id="elem_VariableTable"><rect codeLine="88" fill="#F1F1F1" height="48" id="VariableTable" rx="2.5" ry="2.5" style="stroke:#181818;stroke-width:0.5;" width="126" x="1106.5" y="1008.5"/><ellipse cx="1121.5" cy="1024.5" fill="#ADD1B2" rx="11" ry="11" style="stroke:#181818;stroke-width:1.0;"/><path d="M1123.9731,1030.6431 Q1123.3921,1030.9419 1122.7529,1031.0913 Q1122.1138,1031.2407 1121.4082,1031.2407 Q1118.9014,1031.2407 1117.5815,1029.5889 Q1116.2617,1027.937 1116.2617,1024.8159 Q1116.2617,1021.6865 1117.5815,1020.0347 Q1118.9014,1018.3828 1121.4082,1018.3828 Q1122.1138,1018.3828 1122.7612,1018.5322 Q1123.4087,1018.6816 1123.9731,1018.9805 L1123.9731,1021.7031 Q1123.3423,1021.1221 1122.7488,1020.8523 Q1122.1553,1020.5825 1121.5244,1020.5825 Q1120.1797,1020.5825 1119.4949,1021.6492 Q1118.8101,1022.7158 1118.8101,1024.8159 Q1118.8101,1026.9077 1119.4949,1027.9744 Q1120.1797,1029.041 1121.5244,1029.041 Q1122.1553,1029.041 1122.7488,1028.7712 Q1123.3423,1028.5015 1123.9731,1027.9204 Z " fill="#000000"/><text fill="#000000" font-family="sans-serif" font-size="14" lengthAdjust="spacing" textLength="94" x="1135.5" y="1029.791">VariableTable</text><line style="stroke:#181818;stroke-width:0.5;" x1="1107.5" x2="1231.5" y1="1040.5" y2="1040.5"/><line style="stroke:#181818;stroke-width:0.5;" x1="1107.5" x2="1231.5" y1="1048.5" y2="1048.5"/></g><!--MD5=[3b8a65bd3141cc6120c906de9c42d446]
class ReadTable--><g id="elem_ReadTable"><rect codeLine="91" fill="#F1F1F1" height="48" id="ReadTable" rx="2.5" ry="2.5" style="stroke:#181818;stroke-width:0.5;" width="104" x="1267.5" y="1008.5"/><ellipse cx="1282.5" cy="1024.5" fill="#ADD1B2" rx="11" ry="11" style="stroke:#181818;stroke-width:1.0;"/><path d="M1284.9731,1030.6431 Q1284.3921,1030.9419 1283.7529,1031.0913 Q1283.1138,1031.2407 1282.4082,1031.2407 Q1279.9014,1031.2407 1278.5815,1029.5889 Q1277.2617,1027.937 1277.2617,1024.8159 Q1277.2617,1021.6865 1278.5815,1020.0347 Q1279.9014,1018.3828 1282.4082,1018.3828 Q1283.1138,1018.3828 1283.7612,1018.5322 Q1284.4087,1018.6816 1284.9731,1018.9805 L1284.9731,1021.7031 Q1284.3423,1021.1221 1283.7488,1020.8523 Q1283.1553,1020.5825 1282.5244,1020.5825 Q1281.1797,1020.5825 1280.4949,1021.6492 Q1279.8101,1022.7158 1279.8101,1024.8159 Q1279.8101,1026.9077 1280.4949,1027.9744 Q1281.1797,1029.041 1282.5244,1029.041 Q1283.1553,1029.041 1283.7488,1028.7712 Q1284.3423,1028.5015 1284.9731,1027.9204 Z " fill="#000000"/><text fill="#000000" font-family="sans-serif" font-size="14" lengthAdjust="spacing" textLength="72" x="1296.5" y="1029.791">ReadTable</text><line style="stroke:#181818;stroke-width:0.5;" x1="1268.5" x2="1370.5" y1="1040.5" y2="1040.5"/><line style="stroke:#181818;stroke-width:0.5;" x1="1268.5" x2="1370.5" y1="1048.5" y2="1048.5"/></g><!--MD5=[b42530e36f2c94b61f761b050b85bdf0]
class PrintTable--><g id="elem_PrintTable"><rect codeLine="94" fill="#F1F1F1" height="48" id="PrintTable" rx="2.5" ry="2.5" style="stroke:#181818;stroke-width:0.5;" width="102" x="1406.5" y="1008.5"/><ellipse cx="1421.5" cy="1024.5" fill="#ADD1B2" rx="11" ry="11" style="stroke:#181818;stroke-width:1.0;"/><path d="M1423.9731,1030.6431 Q1423.3921,1030.9419 1422.7529,1031.0913 Q1422.1138,1031.2407 1421.4082,1031.2407 Q1418.9014,1031.2407 1417.5815,1029.5889 Q1416.2617,1027.937 1416.2617,1024.8159 Q1416.2617,1021.6865 1417.5815,1020.0347 Q1418.9014,1018.3828 1421.4082,1018.3828 Q1422.1138,1018.3828 1422.7612,1018.5322 Q1423.4087,1018.6816 1423.9731,1018.9805 L1423.9731,1021.7031 Q1423.3423,1021.1221 1422.7488,1020.8523 Q1422.1553,1020.5825 1421.5244,1020.5825 Q1420.1797,1020.5825 1419.4949,1021.6492 Q1418.8101,1022.7158 1418.8101,1024.8159 Q1418.8101,1026.9077 1419.4949,1027.9744 Q1420.1797,1029.041 1421.5244,1029.041 Q1422.1553,1029.041 1422.7488,1028.7712 Q1423.3423,1028.5015 1423.9731,1027.9204 Z " fill="#000000"/><text fill="#000000" font-family="sans-serif" font-size="14" lengthAdjust="spacing" textLength="70" x="1435.5" y="1029.791">PrintTable</text><line style="stroke:#181818;stroke-width:0.5;" x1="1407.5" x2="1507.5" y1="1040.5" y2="1040.5"/><line style="stroke:#181818;stroke-width:0.5;" x1="1407.5" x2="1507.5" y1="1048.5" y2="1048.5"/></g><!--MD5=[0f2f819955f07420724dd09f3221482c]
class CallTable--><g id="elem_CallTable"><rect codeLine="97" fill="#F1F1F1" height="48" id="CallTable" rx="2.5" ry="2.5" style="stroke:#181818;stroke-width:0.5;" width="96" x="1543.5" y="1008.5"/><ellipse cx="1558.5" cy="1024.5" fill="#ADD1B2" rx="11" ry="11" style="stroke:#181818;stroke-width:1.0;"/><path d="M1560.9731,1030.6431 Q1560.3921,1030.9419 1559.7529,1031.0913 Q1559.1138,1031.2407 1558.4082,1031.2407 Q1555.9014,1031.2407 1554.5815,1029.5889 Q1553.2617,1027.937 1553.2617,1024.8159 Q1553.2617,1021.6865 1554.5815,1020.0347 Q1555.9014,1018.3828 1558.4082,1018.3828 Q1559.1138,1018.3828 1559.7612,1018.5322 Q1560.4087,1018.6816 1560.9731,1018.9805 L1560.9731,1021.7031 Q1560.3423,1021.1221 1559.7488,1020.8523 Q1559.1553,1020.5825 1558.5244,1020.5825 Q1557.1797,1020.5825 1556.4949,1021.6492 Q1555.8101,1022.7158 1555.8101,1024.8159 Q1555.8101,1026.9077 1556.4949,1027.9744 Q1557.1797,1029.041 1558.5244,1029.041 Q1559.1553,1029.041 1559.7488,1028.7712 Q1560.3423,1028.5015 1560.9731,1027.9204 Z " fill="#000000"/><text fill="#000000" font-family="sans-serif" font-size="14" lengthAdjust="spacing" textLength="64" x="1572.5" y="1029.791">CallTable</text><line style="stroke:#181818;stroke-width:0.5;" x1="1544.5" x2="1638.5" y1="1040.5" y2="1040.5"/><line style="stroke:#181818;stroke-width:0.5;" x1="1544.5" x2="1638.5" y1="1048.5" y2="1048.5"/></g><!--MD5=[85c77d3bb275a928e651dc956adcb80a]
class IfTable--><g id="elem_IfTable"><rect codeLine="100" fill="#F1F1F1" height="48" id="IfTable" rx="2.5" ry="2.5" style="stroke:#181818;stroke-width:0.5;" width="79" x="1675" y="1008.5"/><ellipse cx="1690" cy="1024.5" fill="#ADD1B2" rx="11" ry="11" style="stroke:#181818;stroke-width:1.0;"/><path d="M1692.4731,1030.6431 Q1691.8921,1030.9419 1691.2529,1031.0913 Q1690.6138,1031.2407 1689.9082,1031.2407 Q1687.4014,1031.2407 1686.0815,1029.5889 Q1684.7617,1027.937 1684.7617,1024.8159 Q1684.7617,1021.6865 1686.0815,1020.0347 Q1687.4014,1018.3828 1689.9082,1018.3828 Q1690.6138,1018.3828 1691.2612,1018.5322 Q1691.9087,1018.6816 1692.4731,1018.9805 L1692.4731,1021.7031 Q1691.8423,1021.1221 1691.2488,1020.8523 Q1690.6553,1020.5825 1690.0244,1020.5825 Q1688.6797,1020.5825 1687.9949,1021.6492 Q1687.3101,1022.7158 1687.3101,1024.8159 Q1687.3101,1026.9077 1687.9949,1027.9744 Q1688.6797,1029.041 1690.0244,1029.041 Q1690.6553,1029.041 1691.2488,1028.7712 Q1691.8423,1028.5015 1692.4731,1027.9204 Z " fill="#000000"/><text fill="#000000" font-family="sans-serif" font-size="14" lengthAdjust="spacing" textLength="47" x="1704" y="1029.791">IfTable</text><line style="stroke:#181818;stroke-width:0.5;" x1="1676" x2="1753" y1="1040.5" y2="1040.5"/><line style="stroke:#181818;stroke-width:0.5;" x1="1676" x2="1753" y1="1048.5" y2="1048.5"/></g><!--MD5=[3e0a30f83d77bf111941e098da32195b]
class WhileTable--><g id="elem_WhileTable"><rect codeLine="103" fill="#F1F1F1" height="48" id="WhileTable" rx="2.5" ry="2.5" style="stroke:#181818;stroke-width:0.5;" width="107" x="1789" y="1008.5"/><ellipse cx="1804" cy="1024.5" fill="#ADD1B2" rx="11" ry="11" style="stroke:#181818;stroke-width:1.0;"/><path d="M1806.4731,1030.6431 Q1805.8921,1030.9419 1805.2529,1031.0913 Q1804.6138,1031.2407 1803.9082,1031.2407 Q1801.4014,1031.2407 1800.0815,1029.5889 Q1798.7617,1027.937 1798.7617,1024.8159 Q1798.7617,1021.6865 1800.0815,1020.0347 Q1801.4014,1018.3828 1803.9082,1018.3828 Q1804.6138,1018.3828 1805.2612,1018.5322 Q1805.9087,1018.6816 1806.4731,1018.9805 L1806.4731,1021.7031 Q1805.8423,1021.1221 1805.2488,1020.8523 Q1804.6553,1020.5825 1804.0244,1020.5825 Q1802.6797,1020.5825 1801.9949,1021.6492 Q1801.3101,1022.7158 1801.3101,1024.8159 Q1801.3101,1026.9077 1801.9949,1027.9744 Q1802.6797,1029.041 1804.0244,1029.041 Q1804.6553,1029.041 1805.2488,1028.7712 Q1805.8423,1028.5015 1806.4731,1027.9204 Z " fill="#000000"/><text fill="#000000" font-family="sans-serif" font-size="14" lengthAdjust="spacing" textLength="75" x="1818" y="1029.791">WhileTable</text><line style="stroke:#181818;stroke-width:0.5;" x1="1790" x2="1895" y1="1040.5" y2="1040.5"/><line style="stroke:#181818;stroke-width:0.5;" x1="1790" x2="1895" y1="1048.5" y2="1048.5"/></g><!--MD5=[fa49355a410018bda6bf612ad3f99ae1]
class ConstantTable--><g id="elem_ConstantTable"><rect codeLine="106" fill="#F1F1F1" height="48" id="ConstantTable" rx="2.5" ry="2.5" style="stroke:#181818;stroke-width:0.5;" width="132" x="1931.5" y="1008.5"/><ellipse cx="1946.5" cy="1024.5" fill="#ADD1B2" rx="11" ry="11" style="stroke:#181818;stroke-width:1.0;"/><path d="M1948.9731,1030.6431 Q1948.3921,1030.9419 1947.7529,1031.0913 Q1947.1138,1031.2407 1946.4082,1031.2407 Q1943.9014,1031.2407 1942.5815,1029.5889 Q1941.2617,1027.937 1941.2617,1024.8159 Q1941.2617,1021.6865 1942.5815,1020.0347 Q1943.9014,1018.3828 1946.4082,1018.3828 Q1947.1138,1018.3828 1947.7612,1018.5322 Q1948.4087,1018.6816 1948.9731,1018.9805 L1948.9731,1021.7031 Q1948.3423,1021.1221 1947.7488,1020.8523 Q1947.1553,1020.5825 1946.5244,1020.5825 Q1945.1797,1020.5825 1944.4949,1021.6492 Q1943.8101,1022.7158 1943.8101,1024.8159 Q1943.8101,1026.9077 1944.4949,1027.9744 Q1945.1797,1029.041 1946.5244,1029.041 Q1947.1553,1029.041 1947.7488,1028.7712 Q1948.3423,1028.5015 1948.9731,1027.9204 Z " fill="#000000"/><text fill="#000000" font-family="sans-serif" font-size="14" lengthAdjust="spacing" textLength="100" x="1960.5" y="1029.791">ConstantTable</text><line style="stroke:#181818;stroke-width:0.5;" x1="1932.5" x2="2062.5" y1="1040.5" y2="1040.5"/><line style="stroke:#181818;stroke-width:0.5;" x1="1932.5" x2="2062.5" y1="1048.5" y2="1048.5"/></g><!--MD5=[ccd04857b419c12ecaba7065b4e129e0]
class ProcedureTable--><g id="elem_ProcedureTable"><rect codeLine="109" fill="#F1F1F1" height="48" id="ProcedureTable" rx="2.5" ry="2.5" style="stroke:#181818;stroke-width:0.5;" width="140" x="2098.5" y="1008.5"/><ellipse cx="2113.5" cy="1024.5" fill="#ADD1B2" rx="11" ry="11" style="stroke:#181818;stroke-width:1.0;"/><path d="M2115.9731,1030.6431 Q2115.3921,1030.9419 2114.7529,1031.0913 Q2114.1138,1031.2407 2113.4082,1031.2407 Q2110.9014,1031.2407 2109.5815,1029.5889 Q2108.2617,1027.937 2108.2617,1024.8159 Q2108.2617,1021.6865 2109.5815,1020.0347 Q2110.9014,1018.3828 2113.4082,1018.3828 Q2114.1138,1018.3828 2114.7612,1018.5322 Q2115.4087,1018.6816 2115.9731,1018.9805 L2115.9731,1021.7031 Q2115.3423,1021.1221 2114.7488,1020.8523 Q2114.1553,1020.5825 2113.5244,1020.5825 Q2112.1797,1020.5825 2111.4949,1021.6492 Q2110.8101,1022.7158 2110.8101,1024.8159 Q2110.8101,1026.9077 2111.4949,1027.9744 Q2112.1797,1029.041 2113.5244,1029.041 Q2114.1553,1029.041 2114.7488,1028.7712 Q2115.3423,1028.5015 2115.9731,1027.9204 Z " fill="#000000"/><text fill="#000000" font-family="sans-serif" font-size="14" lengthAdjust="spacing" textLength="108" x="2127.5" y="1029.791">ProcedureTable</text><line style="stroke:#181818;stroke-width:0.5;" x1="2099.5" x2="2237.5" y1="1040.5" y2="1040.5"/><line style="stroke:#181818;stroke-width:0.5;" x1="2099.5" x2="2237.5" y1="1048.5" y2="1048.5"/></g><!--MD5=[a814b939d7806c240bad2a4969a015a0]
class AssignTable--><g id="elem_AssignTable"><rect codeLine="112" fill="#F1F1F1" height="48" id="AssignTable" rx="2.5" ry="2.5" style="stroke:#181818;stroke-width:0.5;" width="116" x="2273.5" y="1008.5"/><ellipse cx="2288.5" cy="1024.5" fill="#ADD1B2" rx="11" ry="11" style="stroke:#181818;stroke-width:1.0;"/><path d="M2290.9731,1030.6431 Q2290.3921,1030.9419 2289.7529,1031.0913 Q2289.1138,1031.2407 2288.4082,1031.2407 Q2285.9014,1031.2407 2284.5815,1029.5889 Q2283.2617,1027.937 2283.2617,1024.8159 Q2283.2617,1021.6865 2284.5815,1020.0347 Q2285.9014,1018.3828 2288.4082,1018.3828 Q2289.1138,1018.3828 2289.7612,1018.5322 Q2290.4087,1018.6816 2290.9731,1018.9805 L2290.9731,1021.7031 Q2290.3423,1021.1221 2289.7488,1020.8523 Q2289.1553,1020.5825 2288.5244,1020.5825 Q2287.1797,1020.5825 2286.4949,1021.6492 Q2285.8101,1022.7158 2285.8101,1024.8159 Q2285.8101,1026.9077 2286.4949,1027.9744 Q2287.1797,1029.041 2288.5244,1029.041 Q2289.1553,1029.041 2289.7488,1028.7712 Q2290.3423,1028.5015 2290.9731,1027.9204 Z " fill="#000000"/><text fill="#000000" font-family="sans-serif" font-size="14" lengthAdjust="spacing" textLength="84" x="2302.5" y="1029.791">AssignTable</text><line style="stroke:#181818;stroke-width:0.5;" x1="2274.5" x2="2388.5" y1="1040.5" y2="1040.5"/><line style="stroke:#181818;stroke-width:0.5;" x1="2274.5" x2="2388.5" y1="1048.5" y2="1048.5"/></g><!--MD5=[80900c11ce0cc8d390ceeaa095db650d]
class ModifiesTable--><g id="elem_ModifiesTable"><rect codeLine="115" fill="#F1F1F1" height="48" id="ModifiesTable" rx="2.5" ry="2.5" style="stroke:#181818;stroke-width:0.5;" width="128" x="224.5" y="1008.5"/><ellipse cx="239.5" cy="1024.5" fill="#ADD1B2" rx="11" ry="11" style="stroke:#181818;stroke-width:1.0;"/><path d="M241.9731,1030.6431 Q241.3921,1030.9419 240.7529,1031.0913 Q240.1138,1031.2407 239.4082,1031.2407 Q236.9014,1031.2407 235.5815,1029.5889 Q234.2617,1027.937 234.2617,1024.8159 Q234.2617,1021.6865 235.5815,1020.0347 Q236.9014,1018.3828 239.4082,1018.3828 Q240.1138,1018.3828 240.7612,1018.5322 Q241.4087,1018.6816 241.9731,1018.9805 L241.9731,1021.7031 Q241.3423,1021.1221 240.7488,1020.8523 Q240.1553,1020.5825 239.5244,1020.5825 Q238.1797,1020.5825 237.4949,1021.6492 Q236.8101,1022.7158 236.8101,1024.8159 Q236.8101,1026.9077 237.4949,1027.9744 Q238.1797,1029.041 239.5244,1029.041 Q240.1553,1029.041 240.7488,1028.7712 Q241.3423,1028.5015 241.9731,1027.9204 Z " fill="#000000"/><text fill="#000000" font-family="sans-serif" font-size="14" lengthAdjust="spacing" textLength="96" x="253.5" y="1029.791">ModifiesTable</text><line style="stroke:#181818;stroke-width:0.5;" x1="225.5" x2="351.5" y1="1040.5" y2="1040.5"/><line style="stroke:#181818;stroke-width:0.5;" x1="225.5" x2="351.5" y1="1048.5" y2="1048.5"/></g><!--MD5=[63a1a27827aa3dc6c623a65e6c00d122]
class FollowsTable--><g id="elem_FollowsTable"><rect codeLine="118" fill="#F1F1F1" height="48" id="FollowsTable" rx="2.5" ry="2.5" style="stroke:#181818;stroke-width:0.5;" width="122" x="387.5" y="1008.5"/><ellipse cx="402.5" cy="1024.5" fill="#ADD1B2" rx="11" ry="11" style="stroke:#181818;stroke-width:1.0;"/><path d="M404.9731,1030.6431 Q404.3921,1030.9419 403.7529,1031.0913 Q403.1138,1031.2407 402.4082,1031.2407 Q399.9014,1031.2407 398.5815,1029.5889 Q397.2617,1027.937 397.2617,1024.8159 Q397.2617,1021.6865 398.5815,1020.0347 Q399.9014,1018.3828 402.4082,1018.3828 Q403.1138,1018.3828 403.7612,1018.5322 Q404.4087,1018.6816 404.9731,1018.9805 L404.9731,1021.7031 Q404.3423,1021.1221 403.7488,1020.8523 Q403.1553,1020.5825 402.5244,1020.5825 Q401.1797,1020.5825 400.4949,1021.6492 Q399.8101,1022.7158 399.8101,1024.8159 Q399.8101,1026.9077 400.4949,1027.9744 Q401.1797,1029.041 402.5244,1029.041 Q403.1553,1029.041 403.7488,1028.7712 Q404.3423,1028.5015 404.9731,1027.9204 Z " fill="#000000"/><text fill="#000000" font-family="sans-serif" font-size="14" lengthAdjust="spacing" textLength="90" x="416.5" y="1029.791">FollowsTable</text><line style="stroke:#181818;stroke-width:0.5;" x1="388.5" x2="508.5" y1="1040.5" y2="1040.5"/><line style="stroke:#181818;stroke-width:0.5;" x1="388.5" x2="508.5" y1="1048.5" y2="1048.5"/></g><!--MD5=[7c3263face70c03d8d182a05b44da824]
class UsesTable--><g id="elem_UsesTable"><rect codeLine="121" fill="#F1F1F1" height="48" id="UsesTable" rx="2.5" ry="2.5" style="stroke:#181818;stroke-width:0.5;" width="102" x="544.5" y="1008.5"/><ellipse cx="559.5" cy="1024.5" fill="#ADD1B2" rx="11" ry="11" style="stroke:#181818;stroke-width:1.0;"/><path d="M561.9731,1030.6431 Q561.3921,1030.9419 560.7529,1031.0913 Q560.1138,1031.2407 559.4082,1031.2407 Q556.9014,1031.2407 555.5815,1029.5889 Q554.2617,1027.937 554.2617,1024.8159 Q554.2617,1021.6865 555.5815,1020.0347 Q556.9014,1018.3828 559.4082,1018.3828 Q560.1138,1018.3828 560.7612,1018.5322 Q561.4087,1018.6816 561.9731,1018.9805 L561.9731,1021.7031 Q561.3423,1021.1221 560.7488,1020.8523 Q560.1553,1020.5825 559.5244,1020.5825 Q558.1797,1020.5825 557.4949,1021.6492 Q556.8101,1022.7158 556.8101,1024.8159 Q556.8101,1026.9077 557.4949,1027.9744 Q558.1797,1029.041 559.5244,1029.041 Q560.1553,1029.041 560.7488,1028.7712 Q561.3423,1028.5015 561.9731,1027.9204 Z " fill="#000000"/><text fill="#000000" font-family="sans-serif" font-size="14" lengthAdjust="spacing" textLength="70" x="573.5" y="1029.791">UsesTable</text><line style="stroke:#181818;stroke-width:0.5;" x1="545.5" x2="645.5" y1="1040.5" y2="1040.5"/><line style="stroke:#181818;stroke-width:0.5;" x1="545.5" x2="645.5" y1="1048.5" y2="1048.5"/></g><!--MD5=[b476b2c540fb45e3c7f32bb5fd2ff70c]
class ParentTable--><g id="elem_ParentTable"><rect codeLine="124" fill="#F1F1F1" height="48" id="ParentTable" rx="2.5" ry="2.5" style="stroke:#181818;stroke-width:0.5;" width="114" x="681.5" y="1008.5"/><ellipse cx="696.5" cy="1024.5" fill="#ADD1B2" rx="11" ry="11" style="stroke:#181818;stroke-width:1.0;"/><path d="M698.9731,1030.6431 Q698.3921,1030.9419 697.7529,1031.0913 Q697.1138,1031.2407 696.4082,1031.2407 Q693.9014,1031.2407 692.5815,1029.5889 Q691.2617,1027.937 691.2617,1024.8159 Q691.2617,1021.6865 692.5815,1020.0347 Q693.9014,1018.3828 696.4082,1018.3828 Q697.1138,1018.3828 697.7612,1018.5322 Q698.4087,1018.6816 698.9731,1018.9805 L698.9731,1021.7031 Q698.3423,1021.1221 697.7488,1020.8523 Q697.1553,1020.5825 696.5244,1020.5825 Q695.1797,1020.5825 694.4949,1021.6492 Q693.8101,1022.7158 693.8101,1024.8159 Q693.8101,1026.9077 694.4949,1027.9744 Q695.1797,1029.041 696.5244,1029.041 Q697.1553,1029.041 697.7488,1028.7712 Q698.3423,1028.5015 698.9731,1027.9204 Z " fill="#000000"/><text fill="#000000" font-family="sans-serif" font-size="14" lengthAdjust="spacing" textLength="82" x="710.5" y="1029.791">ParentTable</text><line style="stroke:#181818;stroke-width:0.5;" x1="682.5" x2="794.5" y1="1040.5" y2="1040.5"/><line style="stroke:#181818;stroke-width:0.5;" x1="682.5" x2="794.5" y1="1048.5" y2="1048.5"/></g><!--MD5=[c5fe0a771d77022ce5fcdbe0563ed8f4]
class CallsTable--><g id="elem_CallsTable"><rect codeLine="127" fill="#F1F1F1" height="48" id="CallsTable" rx="2.5" ry="2.5" style="stroke:#181818;stroke-width:0.5;" width="103" x="831" y="1008.5"/><ellipse cx="846" cy="1024.5" fill="#ADD1B2" rx="11" ry="11" style="stroke:#181818;stroke-width:1.0;"/><path d="M848.4731,1030.6431 Q847.8921,1030.9419 847.2529,1031.0913 Q846.6138,1031.2407 845.9082,1031.2407 Q843.4014,1031.2407 842.0815,1029.5889 Q840.7617,1027.937 840.7617,1024.8159 Q840.7617,1021.6865 842.0815,1020.0347 Q843.4014,1018.3828 845.9082,1018.3828 Q846.6138,1018.3828 847.2612,1018.5322 Q847.9087,1018.6816 848.4731,1018.9805 L848.4731,1021.7031 Q847.8423,1021.1221 847.2488,1020.8523 Q846.6553,1020.5825 846.0244,1020.5825 Q844.6797,1020.5825 843.9949,1021.6492 Q843.3101,1022.7158 843.3101,1024.8159 Q843.3101,1026.9077 843.9949,1027.9744 Q844.6797,1029.041 846.0244,1029.041 Q846.6553,1029.041 847.2488,1028.7712 Q847.8423,1028.5015 848.4731,1027.9204 Z " fill="#000000"/><text fill="#000000" font-family="sans-serif" font-size="14" lengthAdjust="spacing" textLength="71" x="860" y="1029.791">CallsTable</text><line style="stroke:#181818;stroke-width:0.5;" x1="832" x2="933" y1="1040.5" y2="1040.5"/><line style="stroke:#181818;stroke-width:0.5;" x1="832" x2="933" y1="1048.5" y2="1048.5"/></g><!--MD5=[0c0a44bf4ee267c116ef595be20a90b3]
class NextTable--><g id="elem_NextTable"><rect codeLine="130" fill="#F1F1F1" height="48" id="NextTable" rx="2.5" ry="2.5" style="stroke:#181818;stroke-width:0.5;" width="102" x="969.5" y="1008.5"/><ellipse cx="984.5" cy="1024.5" fill="#ADD1B2" rx="11" ry="11" style="stroke:#181818;stroke-width:1.0;"/><path d="M986.9731,1030.6431 Q986.3921,1030.9419 985.7529,1031.0913 Q985.1138,1031.2407 984.4082,1031.2407 Q981.9014,1031.2407 980.5815,1029.5889 Q979.2617,1027.937 979.2617,1024.8159 Q979.2617,1021.6865 980.5815,1020.0347 Q981.9014,1018.3828 984.4082,1018.3828 Q985.1138,1018.3828 985.7612,1018.5322 Q986.4087,1018.6816 986.9731,1018.9805 L986.9731,1021.7031 Q986.3423,1021.1221 985.7488,1020.8523 Q985.1553,1020.5825 984.5244,1020.5825 Q983.1797,1020.5825 982.4949,1021.6492 Q981.8101,1022.7158 981.8101,1024.8159 Q981.8101,1026.9077 982.4949,1027.9744 Q983.1797,1029.041 984.5244,1029.041 Q985.1553,1029.041 985.7488,1028.7712 Q986.3423,1028.5015 986.9731,1027.9204 Z " fill="#000000"/><text fill="#000000" font-family="sans-serif" font-size="14" lengthAdjust="spacing" textLength="70" x="998.5" y="1029.791">NextTable</text><line style="stroke:#181818;stroke-width:0.5;" x1="970.5" x2="1070.5" y1="1040.5" y2="1040.5"/><line style="stroke:#181818;stroke-width:0.5;" x1="970.5" x2="1070.5" y1="1048.5" y2="1048.5"/></g><!--MD5=[93052fc470d0028e6689ff87391ecfca]
reverse link IPKBPopulator to PKB--><g id="link_IPKBPopulator_PKB"><path codeLine="133" d="M500.33,246.2 C513.62,264.7 528.33,285.17 542.45,304.83 " fill="none" id="IPKBPopulator-backto-PKB" style="stroke:#181818;stroke-width:1.0;stroke-dasharray:7.0,7.0;"/><polygon fill="none" points="494.7,250.36,488.72,230.03,506.07,242.19,494.7,250.36" style="stroke:#181818;stroke-width:1.0;"/></g><!--MD5=[0b73f6a2d6ef590f689c85ee51eaca50]
reverse link IPKBQuerier to PKB--><g id="link_IPKBQuerier_PKB"><path codeLine="134" d="M700.94,262.53 C691.06,276.29 680.75,290.64 670.73,304.58 " fill="none" id="IPKBQuerier-backto-PKB" style="stroke:#181818;stroke-width:1.0;stroke-dasharray:7.0,7.0;"/><polygon fill="none" points="694.94,258.87,712.3,246.71,706.31,267.04,694.94,258.87" style="stroke:#181818;stroke-width:1.0;"/></g><!--MD5=[7c17051468ef2dfc7320e5ca5db22e6e]
link SP to IPKBPopulator--><g id="link_SP_IPKBPopulator"><path codeLine="135" d="M453.5,55.29 C453.5,75.61 453.5,105.74 453.5,131.18 " fill="none" id="SP-IPKBPopulator" style="stroke:#181818;stroke-width:1.0;"/></g><!--MD5=[2937d1df04a90f97171c674f9014653b]
link QPS to IPKBQuerier--><g id="link_QPS_IPKBQuerier"><path codeLine="136" d="M759.5,55.29 C759.5,71.32 759.5,93.45 759.5,114.57 " fill="none" id="QPS-IPKBQuerier" style="stroke:#181818;stroke-width:1.0;"/></g><!--MD5=[a20e8c555ac220316d28647efa9f0c12]
reverse link PKB to EntityManager--><g id="link_PKB_EntityManager"><path codeLine="138" d="M852.51,486.97 C934.03,517.12 1021.02,549.28 1088.25,574.14 " fill="none" id="PKB-backto-EntityManager" style="stroke:#181818;stroke-width:1.0;"/><polygon fill="#181818" points="840.37,482.48,844.609,488.3136,851.6243,486.6443,847.3852,480.8108,840.37,482.48" style="stroke:#181818;stroke-width:1.0;"/></g><!--MD5=[faa6112568974c8b35a1e6db989960c2]
reverse link PKB to PatternManager--><g id="link_PKB_PatternManager"><path codeLine="139" d="M457.2,493.26 C416.53,519.76 374.26,547.3 339.88,569.69 " fill="none" id="PKB-backto-PatternManager" style="stroke:#181818;stroke-width:1.0;"/><polygon fill="#181818" points="467.92,486.28,460.7093,486.2031,457.865,492.8296,465.0757,492.9065,467.92,486.28" style="stroke:#181818;stroke-width:1.0;"/></g><!--MD5=[f3fe36a3b0ed2e556aead0ac2df1154b]
reverse link PKB to RelationshipManager--><g id="link_PKB_RelationshipManager"><path codeLine="140" d="M606.5,499.89 C606.5,515.04 606.5,530.36 606.5,544.71 " fill="none" id="PKB-backto-RelationshipManager" style="stroke:#181818;stroke-width:1.0;"/><polygon fill="#181818" points="606.5,486.97,602.5,492.97,606.5,498.97,610.5,492.97,606.5,486.97" style="stroke:#181818;stroke-width:1.0;"/></g><!--MD5=[16dc30855eb5f6ab4dee875ede611cf6]
reverse link EntityManager to EntityTable--><g id="link_EntityManager_EntityTable"><path codeLine="142" d="M1335.76,684.05 C1413.54,722.59 1509.69,770.23 1575.52,802.85 " fill="none" id="EntityManager-backto-EntityTable" style="stroke:#181818;stroke-width:1.0;"/><polygon fill="#181818" points="1324.3,678.37,1327.9023,684.6169,1335.0541,683.6943,1331.4518,677.4475,1324.3,678.37" style="stroke:#181818;stroke-width:1.0;"/></g><!--MD5=[8591bcb1dbe1190c6806a143f998495d]
reverse link EntityTable to VariableTable--><g id="link_EntityTable_VariableTable"><path codeLine="144" d="M1555.4,875.96 C1473.32,904.54 1353.06,948.11 1250.5,992 C1238.99,996.92 1226.77,1002.63 1215.4,1008.14 " fill="none" id="EntityTable-backto-VariableTable" style="stroke:#181818;stroke-width:1.0;"/><polygon fill="none" points="1553.05,869.37,1574.24,869.43,1557.64,882.6,1553.05,869.37" style="stroke:#181818;stroke-width:1.0;"/></g><!--MD5=[6278a6dd8eeea5d393e295742c8f5f25]
reverse link EntityTable to ReadTable--><g id="link_EntityTable_ReadTable"><path codeLine="145" d="M1563.48,893.39 C1497.64,930.66 1411.01,979.7 1360.67,1008.2 " fill="none" id="EntityTable-backto-ReadTable" style="stroke:#181818;stroke-width:1.0;"/><polygon fill="none" points="1559.71,887.48,1580.56,883.72,1566.61,899.67,1559.71,887.48" style="stroke:#181818;stroke-width:1.0;"/></g><!--MD5=[f094ad02188a877e87e9773a70a6ee13]
reverse link EntityTable to PrintTable--><g id="link_EntityTable_PrintTable"><path codeLine="146" d="M1595.86,897.75 C1557.94,934.41 1509.95,980.8 1481.61,1008.2 " fill="none" id="EntityTable-backto-PrintTable" style="stroke:#181818;stroke-width:1.0;"/><polygon fill="none" points="1590.81,892.9,1610.06,884.03,1600.54,902.96,1590.81,892.9" style="stroke:#181818;stroke-width:1.0;"/></g><!--MD5=[b6c377869a9183274315e7e10955aa94]
reverse link EntityTable to CallTable--><g id="link_EntityTable_CallTable"><path codeLine="147" d="M1633.02,903.21 C1621.46,938.91 1607.47,982.14 1599.04,1008.2 " fill="none" id="EntityTable-backto-CallTable" style="stroke:#181818;stroke-width:1.0;"/><polygon fill="none" points="1626.28,901.29,1639.1,884.42,1639.6,905.6,1626.28,901.29" style="stroke:#181818;stroke-width:1.0;"/></g><!--MD5=[30a09022587997d2b684cf7cc2165a85]
reverse link EntityTable to IfTable--><g id="link_EntityTable_IfTable"><path codeLine="148" d="M1672.3,903.21 C1684.05,938.91 1698.26,982.14 1706.84,1008.2 " fill="none" id="EntityTable-backto-IfTable" style="stroke:#181818;stroke-width:1.0;"/><polygon fill="none" points="1665.72,905.6,1666.12,884.41,1679.02,901.23,1665.72,905.6" style="stroke:#181818;stroke-width:1.0;"/></g><!--MD5=[1623433848744c2033fa5da4e6907a39]
reverse link EntityTable to WhileTable--><g id="link_EntityTable_WhileTable"><path codeLine="149" d="M1707.93,898 C1744.84,934.62 1791.46,980.86 1819.01,1008.2 " fill="none" id="EntityTable-backto-WhileTable" style="stroke:#181818;stroke-width:1.0;"/><polygon fill="none" points="1703.14,903.1,1693.87,884.04,1713,893.16,1703.14,903.1" style="stroke:#181818;stroke-width:1.0;"/></g><!--MD5=[0b5e1c449942b08082ff2e32ef192813]
reverse link EntityTable to ConstantTable--><g id="link_EntityTable_ConstantTable"><path codeLine="150" d="M1744.29,893.15 C1812.55,930.45 1902.58,979.64 1954.85,1008.2 " fill="none" id="EntityTable-backto-ConstantTable" style="stroke:#181818;stroke-width:1.0;"/><polygon fill="none" points="1741.19,899.43,1726.99,883.7,1747.9,887.15,1741.19,899.43" style="stroke:#181818;stroke-width:1.0;"/></g><!--MD5=[1a5e2a6ef87a9816bda1cbba77d52f6e]
reverse link EntityTable to ProcedureTable--><g id="link_EntityTable_ProcedureTable"><path codeLine="151" d="M1749.67,873.92 C1837.24,902.45 1969.11,947.08 2081.5,992 C2093.82,996.93 2106.94,1002.63 2119.15,1008.15 " fill="none" id="EntityTable-backto-ProcedureTable" style="stroke:#181818;stroke-width:1.0;"/><polygon fill="none" points="1747.53,880.58,1730.66,867.75,1751.85,867.27,1747.53,880.58" style="stroke:#181818;stroke-width:1.0;"/></g><!--MD5=[fc86752fe7a5f01907f1b0f9cc9e0825]
reverse link EntityTable to AssignTable--><g id="link_EntityTable_AssignTable"><path codeLine="152" d="M1749.98,859.49 C1871.24,881.7 2083.41,926.19 2256.5,992 C2268.19,996.45 2280.39,1002.29 2291.47,1008.12 " fill="none" id="EntityTable-backto-AssignTable" style="stroke:#181818;stroke-width:1.0;"/><polygon fill="none" points="1749.08,866.44,1730.64,856,1751.57,852.66,1749.08,866.44" style="stroke:#181818;stroke-width:1.0;"/></g><!--MD5=[fb63e50faf1caae59c02a976e1d2e7a2]
reverse link RelationshipManager to RelationshipTable--><g id="link_RelationshipManager_RelationshipTable"><path codeLine="154" d="M630.37,706.19 C638.53,735.81 647.35,767.84 654.35,793.25 " fill="none" id="RelationshipManager-backto-RelationshipTable" style="stroke:#181818;stroke-width:1.0;"/><polygon fill="#181818" points="626.96,693.79,624.6928,700.6354,630.1397,705.3611,632.4069,698.5156,626.96,693.79" style="stroke:#181818;stroke-width:1.0;"/></g><!--MD5=[cb4ceee6136725ee587345d2f81e206a]
reverse link RelationshipTable to ModifiesTable--><g id="link_RelationshipTable_ModifiesTable"><path codeLine="156" d="M557.35,900.68 C536.85,911.22 515.57,922.03 495.5,932 C439.95,959.59 425.38,965.07 369.5,992 C358.79,997.16 347.3,1002.74 336.43,1008.03 " fill="none" id="RelationshipTable-backto-ModifiesTable" style="stroke:#181818;stroke-width:1.0;"/><polygon fill="none" points="553.96,894.55,574.95,891.6,560.38,906.99,553.96,894.55" style="stroke:#181818;stroke-width:1.0;"/></g><!--MD5=[a7c82cefcf18207635e74d5fee933781]
reverse link RelationshipTable to FollowsTable--><g id="link_RelationshipTable_FollowsTable"><path codeLine="157" d="M595.79,904.72 C554.7,940.09 505.52,982.42 475.67,1008.12 " fill="none" id="RelationshipTable-backto-FollowsTable" style="stroke:#181818;stroke-width:1.0;"/><polygon fill="none" points="591.08,899.54,610.81,891.8,600.22,910.15,591.08,899.54" style="stroke:#181818;stroke-width:1.0;"/></g><!--MD5=[bf4b7b4a6b33042f4d565034782f302f]
reverse link RelationshipTable to UsesTable--><g id="link_RelationshipTable_UsesTable"><path codeLine="158" d="M641.75,910.43 C628.72,944.52 613.75,983.72 604.46,1008.05 " fill="none" id="RelationshipTable-backto-UsesTable" style="stroke:#181818;stroke-width:1.0;"/><polygon fill="none" points="635.12,908.17,648.79,891.98,648.19,913.16,635.12,908.17" style="stroke:#181818;stroke-width:1.0;"/></g><!--MD5=[26ac0b51dd78899a7fb3a2b08aced0b8]
reverse link RelationshipTable to ParentTable--><g id="link_RelationshipTable_ParentTable"><path codeLine="159" d="M692.9,910.43 C705.74,944.52 720.5,983.72 729.67,1008.05 " fill="none" id="RelationshipTable-backto-ParentTable" style="stroke:#181818;stroke-width:1.0;"/><polygon fill="none" points="686.45,913.17,685.95,891.98,699.55,908.23,686.45,913.17" style="stroke:#181818;stroke-width:1.0;"/></g><!--MD5=[64c9c271324b87a578572f2ea1e87529]
reverse link RelationshipTable to CallsTable--><g id="link_RelationshipTable_CallsTable"><path codeLine="160" d="M738.17,904.96 C778.45,940.27 826.58,982.48 855.83,1008.12 " fill="none" id="RelationshipTable-backto-CallsTable" style="stroke:#181818;stroke-width:1.0;"/><polygon fill="none" points="733.59,910.26,723.17,891.81,742.82,899.73,733.59,910.26" style="stroke:#181818;stroke-width:1.0;"/></g><!--MD5=[a7b6a53d00d12053e8497ce8ad740c01]
reverse link RelationshipTable to NextTable--><g id="link_RelationshipTable_NextTable"><path codeLine="161" d="M779.81,900.71 C832.22,927.95 895.3,961.18 951.5,992 C960.82,997.11 970.78,1002.72 980.14,1008.07 " fill="none" id="RelationshipTable-backto-NextTable" style="stroke:#181818;stroke-width:1.0;"/><polygon fill="none" points="776.89,907.08,762.36,891.66,783.33,894.66,776.89,907.08" style="stroke:#181818;stroke-width:1.0;"/></g><!--MD5=[8d5dd169911240efc567a96fd03944aa]
reverse link PatternManager to PatternTable--><g id="link_PatternManager_PatternTable"><path codeLine="163" d="M233.46,679.99 C213.98,715.65 189.68,760.13 171.56,793.3 " fill="none" id="PatternManager-backto-PatternTable" style="stroke:#181818;stroke-width:1.0;"/><polygon fill="#181818" points="239.67,668.62,233.2847,671.9708,233.9219,679.1537,240.3072,675.8029,239.67,668.62" style="stroke:#181818;stroke-width:1.0;"/></g><!--MD5=[7d08655b5f2355828535fb6fa37f308b]
reverse link RelationshipManager to Cache--><g id="link_RelationshipManager_Cache"><path codeLine="165" d="M528.59,702.47 C512.22,719.9 494.94,738.3 478.5,755.81 " fill="none" id="RelationshipManager-backto-Cache" style="stroke:#181818;stroke-width:1.0;"/><polygon fill="#181818" points="537.07,693.44,530.0475,695.0786,528.8592,702.1912,535.8817,700.5525,537.07,693.44" style="stroke:#181818;stroke-width:1.0;"/></g><!--MD5=[1f0062e964a8ab039f0cb0aad05fe5d9]
reverse link Cache to Result--><g id="link_Cache_Result"><path codeLine="166" d="M307.68,927.19 C305.62,928.82 303.56,930.43 301.5,932 C261.83,962.34 248.57,965.09 206.5,992 C201.08,995.47 195.4,999.12 189.77,1002.75 " fill="none" id="Cache-backto-Result" style="stroke:#181818;stroke-width:1.0;"/><polygon fill="#181818" points="317.56,919.15,310.3807,919.8264,308.2438,926.7136,315.4231,926.0372,317.56,919.15" style="stroke:#181818;stroke-width:1.0;"/></g><!--MD5=[4a988b4f3d3c4bd423941cb59378d92e]
@startuml
skinparam classAttributeIconSize 0

class SP
class QPS
class PKB

interface IPKBPopulator {
	void populate(Entity[])
    void populate(Relationship[])
    void populate(Pattern[])
}

interface IPKBQuerier {
	Entity[] getEntities(EntityType)
	Entity[] getByRelationship(RsType, Entity, bool)
	Entity[] getByPattern(Entity, String, bool)
	Entity[] getEntities(String)
	Map<EntityType, int> getSimpleStats()
}

class PKB {
	void populate(Entity[])
    void populate(Relationship[])
    void populate(Pattern[])
	EntityPointerUnorderedSet getEntities(EntityType)
	EntityPointerUnorderedSet getByRelationship(RsType, Entity, bool)
	EntityPointerUnorderedSet getByPattern(Entity, String, bool)
	EntityPointerUnorderedSet getEntities(String)
	Map<EntityType, int> getSimpleStats()
}

class EntityManager {
    EntityTable GetTable(EntityType)
    void Populate(Vector<Entity *>)
    Entity[] Get(EntityType)
    Entity[] Get(String)
    Map<EntityType, int> Get()
}

class RelationshipManager {
    void CreateTable(RsType)
    void ClearCache()
    void Populate(Relationship[])
    RelationshipTable* GetTable(RsType)
    Entity[] Get(RsType, Entity, bool)
    Entity[] GetAll(RsType, Entity, bool)
}

class PatternManager {
    PatternTable GetTable()
    void Populate(Pattern[])
    Entity[] Get(Entity, String, bool)
}

class RelationshipTable {
    void Populate(Relationship)
    EntityPointerUnorderedMap GetTable(bool)
    Entity[] Get(Entity, bool)
}

class EntityTable {
    void Populate(Entity)
    Entity[] Get()
}

class PatternTable {
    void Populate(Pattern)
    PatternEntityUnorderedMap GetTable()
    Entity[] Get(Entity)
}

class Cache {
    void UpdateAccess(K)
    void Evict()
    void Add(K, V)
    Result Get(K)
    void Clear()
    int Size()
    int Hits()
    int Misses()
}

struct Result {
    V value
    bool found
}

class VariableTable {
}

class ReadTable {
}

class PrintTable {
}

class CallTable {
}

class IfTable {
}

class WhileTable {
}

class ConstantTable {
}

class ProcedureTable {
}

class AssignTable {
}

class ModifiesTable {
}

class FollowsTable {
}  

class UsesTable {
}

class ParentTable {
} 

class CallsTable {
} 

class NextTable {
} 

IPKBPopulator <|.down. PKB
IPKBQuerier <|.down. PKB
SP -down- IPKBPopulator
QPS -down- IPKBQuerier

PKB *-down- EntityManager
PKB *-down- PatternManager
PKB *-down- RelationshipManager

EntityTable -up-* EntityManager

VariableTable -up-|> EntityTable
ReadTable -up-|> EntityTable
PrintTable -up-|> EntityTable
CallTable -up-|> EntityTable
IfTable -up-|> EntityTable
WhileTable -up-|> EntityTable
ConstantTable -up-|> EntityTable
ProcedureTable -up-|> EntityTable
AssignTable -up-|> EntityTable

RelationshipTable -up-* RelationshipManager 

ModifiesTable -up-|> RelationshipTable
FollowsTable -up-|> RelationshipTable 
UsesTable -up-|> RelationshipTable
ParentTable -up-|> RelationshipTable 
CallsTable -up-|> RelationshipTable 
NextTable -up-|> RelationshipTable 

PatternTable -up-* PatternManager

RelationshipManager *-down- Cache
Result -up-* Cache

@enduml

PlantUML version 1.2022.12(Mon Oct 24 02:12:26 SGT 2022)
(GPL source distribution)
Java Runtime: OpenJDK Runtime Environment
JVM: OpenJDK 64-Bit Server VM
Default Encoding: US-ASCII
Language: en
Country: SG
--></g></svg>