<?xml version="1.0" encoding="UTF-8" standalone="no"?><svg xmlns="http://www.w3.org/2000/svg" xmlns:xlink="http://www.w3.org/1999/xlink" contentStyleType="text/css" height="836px" preserveAspectRatio="none" style="width:2966px;height:836px;background:#FFFFFF;" version="1.1" viewBox="0 0 2966 836" width="2966px" zoomAndPan="magnify"><defs/><g><!--MD5=[91221848cc6fc2b51471cfb300e81a0a]
class Query--><g id="elem_Query"><rect codeLine="2" fill="#F1F1F1" height="110.5625" id="Query" rx="2.5" ry="2.5" style="stroke:#181818;stroke-width:0.5;" width="315" x="89.5" y="7"/><ellipse cx="223.25" cy="23" fill="#ADD1B2" rx="11" ry="11" style="stroke:#181818;stroke-width:1.0;"/><path d="M225.25,19.5 Q225.4531,19 225.6875,18.75 Q225.9219,18.5 226.1875,18.5 Q226.6563,18.5 226.9531,18.7813 Q227.25,19.0625 227.25,19.7188 L227.25,21.2813 Q227.25,21.9375 226.9688,22.2188 Q226.6875,22.5 226.25,22.5 Q225.8594,22.5 225.6094,22.3281 Q225.3594,22.1563 225.25,21.7031 Q225.2031,21.3906 225.0313,21.2188 Q224.7188,20.8906 224.1563,20.7031 Q223.5938,20.5 223.0313,20.5 Q222.3281,20.5 221.7344,20.7813 Q221.1563,21.0625 220.7031,21.6875 Q220.25,22.3125 220.25,23.1719 L220.25,24.0938 Q220.25,25.125 221.0938,25.8125 Q221.9375,26.5 223.4375,26.5 Q224.3281,26.5 224.9531,26.2969 Q225.3125,26.1875 225.7188,25.8281 Q225.9844,25.625 226.125,25.5625 Q226.2656,25.5 226.4375,25.5 Q226.7656,25.5 227,25.7656 Q227.25,26.0156 227.25,26.375 Q227.25,26.7188 226.9063,27.125 Q226.4063,27.7188 225.6094,28.0469 Q224.5625,28.5 223.2813,28.5 Q221.7813,28.5 220.5781,27.9063 Q219.6094,27.4375 218.9219,26.4219 Q218.25,25.4063 218.25,24.2031 L218.25,23.1094 Q218.25,21.8594 218.8438,20.7656 Q219.4531,19.6719 220.5,19.0938 Q221.5625,18.5 222.75,18.5 Q223.4688,18.5 224.0938,18.75 Q224.7188,19 225.25,19.5 Z " fill="#000000"/><text fill="#000000" font-family="sans-serif" font-size="14" lengthAdjust="spacing" textLength="39" x="243.75" y="27.8535">Query</text><line style="stroke:#181818;stroke-width:0.5;" x1="90.5" x2="403.5" y1="39" y2="39"/><line style="stroke:#181818;stroke-width:0.5;" x1="90.5" x2="403.5" y1="47" y2="47"/><text fill="#000000" font-family="sans-serif" font-size="14" lengthAdjust="spacing" textLength="303" x="95.5" y="63.6738">SynonymReference[] getSynonymDeclarations()</text><text fill="#000000" font-family="sans-serif" font-size="14" lengthAdjust="spacing" textLength="160" x="95.5" y="79.3145">SelectCall getQueryCall()</text><text fill="#000000" font-family="sans-serif" font-size="14" lengthAdjust="spacing" textLength="176" x="95.5" y="94.9551">QueryClause[] getClauses()</text><text fill="#000000" font-family="sans-serif" font-size="14" lengthAdjust="spacing" textLength="100" x="95.5" y="110.5957">String toString()</text></g><!--MD5=[c01beca59ce16c85f60ff7094427726b]
class ICheckSemantics--><g id="elem_ICheckSemantics"><rect codeLine="9" fill="#F1F1F1" height="63.6406" id="ICheckSemantics" rx="2.5" ry="2.5" style="stroke:#181818;stroke-width:0.5;" width="193" x="656.5" y="30.5"/><ellipse cx="694.45" cy="46.5" fill="#B4A7E5" rx="11" ry="11" style="stroke:#181818;stroke-width:1.0;"/><path d="M695.45,43.5 L695.45,49.5 L697.45,49.5 L697.9344,49.5 L698.45,50.125 L698.45,50.5 L698.45,50.875 L697.9344,51.5 L697.45,51.5 L691.45,51.5 L690.9656,51.5 L690.45,50.875 L690.45,50.5 L690.45,50.125 L690.9656,49.5 L691.45,49.5 L693.45,49.5 L693.45,43.5 L691.45,43.5 L690.9656,43.5 L690.45,42.875 L690.45,42.5 L690.45,42.125 L690.9656,41.5 L691.45,41.5 L697.45,41.5 L697.9344,41.5 L698.45,42.125 L698.45,42.5 L698.45,42.875 L697.9344,43.5 L697.45,43.5 L695.45,43.5 Z " fill="#000000"/><text fill="#000000" font-family="sans-serif" font-size="14" font-style="italic" lengthAdjust="spacing" textLength="110" x="713.55" y="51.3535">ICheckSemantics</text><line style="stroke:#181818;stroke-width:0.5;" x1="657.5" x2="848.5" y1="62.5" y2="62.5"/><line style="stroke:#181818;stroke-width:0.5;" x1="657.5" x2="848.5" y1="70.5" y2="70.5"/><text fill="#000000" font-family="sans-serif" font-size="14" lengthAdjust="spacing" textLength="181" x="662.5" y="87.1738">bool isSemanticallyCorrect();</text></g><!--MD5=[9b8d3f0fc828189484cd5f8157754b9e]
class IWeight--><g id="elem_IWeight"><rect codeLine="13" fill="#F1F1F1" height="79.2813" id="IWeight" rx="2.5" ry="2.5" style="stroke:#181818;stroke-width:0.5;" width="158" x="1022" y="333"/><ellipse cx="1072.25" cy="349" fill="#B4A7E5" rx="11" ry="11" style="stroke:#181818;stroke-width:1.0;"/><path d="M1073.25,346 L1073.25,352 L1075.25,352 L1075.7344,352 L1076.25,352.625 L1076.25,353 L1076.25,353.375 L1075.7344,354 L1075.25,354 L1069.25,354 L1068.7656,354 L1068.25,353.375 L1068.25,353 L1068.25,352.625 L1068.7656,352 L1069.25,352 L1071.25,352 L1071.25,346 L1069.25,346 L1068.7656,346 L1068.25,345.375 L1068.25,345 L1068.25,344.625 L1068.7656,344 L1069.25,344 L1075.25,344 L1075.7344,344 L1076.25,344.625 L1076.25,345 L1076.25,345.375 L1075.7344,346 L1075.25,346 L1073.25,346 Z " fill="#000000"/><text fill="#000000" font-family="sans-serif" font-size="14" font-style="italic" lengthAdjust="spacing" textLength="49" x="1092.75" y="353.8535">IWeight</text><line style="stroke:#181818;stroke-width:0.5;" x1="1023" x2="1179" y1="365" y2="365"/><line style="stroke:#181818;stroke-width:0.5;" x1="1023" x2="1179" y1="373" y2="373"/><text fill="#000000" font-family="sans-serif" font-size="14" lengthAdjust="spacing" textLength="146" x="1028" y="389.6738">void setWeight(double)</text><text fill="#000000" font-family="sans-serif" font-size="14" lengthAdjust="spacing" textLength="124" x="1028" y="405.3145">double GetWeight()</text></g><!--MD5=[630a236062e3aa47000d5bc763a76de6]
class QuerySynonym--><g id="elem_QuerySynonym"><rect codeLine="18" fill="#F1F1F1" height="79.2813" id="QuerySynonym" rx="2.5" ry="2.5" style="stroke:#181818;stroke-width:0.5;" width="153" x="750.5" y="627"/><ellipse cx="776.3" cy="643" fill="#ADD1B2" rx="11" ry="11" style="stroke:#181818;stroke-width:1.0;"/><path d="M778.3,639.5 Q778.5031,639 778.7375,638.75 Q778.9719,638.5 779.2375,638.5 Q779.7063,638.5 780.0031,638.7813 Q780.3,639.0625 780.3,639.7188 L780.3,641.2813 Q780.3,641.9375 780.0188,642.2188 Q779.7375,642.5 779.3,642.5 Q778.9094,642.5 778.6594,642.3281 Q778.4094,642.1563 778.3,641.7031 Q778.2531,641.3906 778.0813,641.2188 Q777.7688,640.8906 777.2063,640.7031 Q776.6438,640.5 776.0813,640.5 Q775.3781,640.5 774.7844,640.7813 Q774.2063,641.0625 773.7531,641.6875 Q773.3,642.3125 773.3,643.1719 L773.3,644.0938 Q773.3,645.125 774.1438,645.8125 Q774.9875,646.5 776.4875,646.5 Q777.3781,646.5 778.0031,646.2969 Q778.3625,646.1875 778.7688,645.8281 Q779.0344,645.625 779.175,645.5625 Q779.3156,645.5 779.4875,645.5 Q779.8156,645.5 780.05,645.7656 Q780.3,646.0156 780.3,646.375 Q780.3,646.7188 779.9563,647.125 Q779.4563,647.7188 778.6594,648.0469 Q777.6125,648.5 776.3313,648.5 Q774.8313,648.5 773.6281,647.9063 Q772.6594,647.4375 771.9719,646.4219 Q771.3,645.4063 771.3,644.2031 L771.3,643.1094 Q771.3,641.8594 771.8938,640.7656 Q772.5031,639.6719 773.55,639.0938 Q774.6125,638.5 775.8,638.5 Q776.5188,638.5 777.1438,638.75 Q777.7688,639 778.3,639.5 Z " fill="#000000"/><text fill="#000000" font-family="sans-serif" font-size="14" lengthAdjust="spacing" textLength="97" x="792.7" y="647.8535">QuerySynonym</text><line style="stroke:#181818;stroke-width:0.5;" x1="751.5" x2="902.5" y1="659" y2="659"/><line style="stroke:#181818;stroke-width:0.5;" x1="751.5" x2="902.5" y1="667" y2="667"/><text fill="#000000" font-family="sans-serif" font-size="14" lengthAdjust="spacing" textLength="110" x="756.5" y="683.6738">String GetName()</text><text fill="#000000" font-family="sans-serif" font-size="14" lengthAdjust="spacing" textLength="141" x="756.5" y="699.3145">String GetEntityType()</text></g><!--MD5=[ff8f6c442b59461923cb777b2a46bfa9]
class SelectCall--><g id="elem_SelectCall"><rect codeLine="23" fill="#F1F1F1" height="79.2813" id="SelectCall" rx="2.5" ry="2.5" style="stroke:#181818;stroke-width:0.5;" width="191" x="151.5" y="178"/><ellipse cx="211.25" cy="194" fill="#A9DCDF" rx="11" ry="11" style="stroke:#181818;stroke-width:1.0;"/><path d="M213,195.5 L209.7031,195.5 L209.2656,196.5 L209.2656,196.5 L209.7344,196.5 L210.25,197.125 L210.25,197.5 L210.25,197.875 L209.7344,198.5 L209.2656,198.5 L207.375,198.5 L206.7656,198.5 L206.25,197.875 L206.25,197.5 L206.25,197.125 L206.7656,196.5 L207.375,196.5 L209.6875,190.5 L208.8125,190.5 L207.7656,190.5 L207.25,189.875 L207.25,189.5 L207.25,189.125 L207.7656,188.5 L208.8125,188.5 L212.4844,188.5 L215.1719,196.5 L215.7344,196.5 L215.7344,196.5 L216.25,197.125 L216.25,197.5 L216.25,197.875 L215.7344,198.5 L215.1719,198.5 L213.2813,198.5 L212.7656,198.5 L212.25,197.875 L212.25,197.5 L212.25,197.125 L212.7656,196.5 L213.2813,196.5 L213.2813,196.5 L213,195.5 Z M212.4531,193.5 L211.25,189.9219 L210.2188,193.5 L212.4531,193.5 Z " fill="#000000"/><text fill="#000000" font-family="sans-serif" font-size="14" font-style="italic" lengthAdjust="spacing" textLength="63" x="231.75" y="198.8535">SelectCall</text><line style="stroke:#181818;stroke-width:0.5;" x1="152.5" x2="341.5" y1="210" y2="210"/><line style="stroke:#181818;stroke-width:0.5;" x1="152.5" x2="341.5" y1="218" y2="218"/><text fill="#000000" font-family="sans-serif" font-size="14" lengthAdjust="spacing" textLength="179" x="157.5" y="234.6738">SelectType GetSelectType()</text><text fill="#000000" font-family="sans-serif" font-size="14" lengthAdjust="spacing" textLength="105" x="157.5" y="250.3145">String ToString()</text></g><!--MD5=[8e2eda0a0e9a4f035068269b1d3e3dc4]
class ElemSelect--><g id="elem_ElemSelect"><rect codeLine="27" fill="#F1F1F1" height="63.6406" id="ElemSelect" rx="2.5" ry="2.5" style="stroke:#181818;stroke-width:0.5;" width="227" x="225.5" y="340.5"/><ellipse cx="299.75" cy="356.5" fill="#ADD1B2" rx="11" ry="11" style="stroke:#181818;stroke-width:1.0;"/><path d="M301.75,353 Q301.9531,352.5 302.1875,352.25 Q302.4219,352 302.6875,352 Q303.1563,352 303.4531,352.2813 Q303.75,352.5625 303.75,353.2188 L303.75,354.7813 Q303.75,355.4375 303.4688,355.7188 Q303.1875,356 302.75,356 Q302.3594,356 302.1094,355.8281 Q301.8594,355.6563 301.75,355.2031 Q301.7031,354.8906 301.5313,354.7188 Q301.2188,354.3906 300.6563,354.2031 Q300.0938,354 299.5313,354 Q298.8281,354 298.2344,354.2813 Q297.6563,354.5625 297.2031,355.1875 Q296.75,355.8125 296.75,356.6719 L296.75,357.5938 Q296.75,358.625 297.5938,359.3125 Q298.4375,360 299.9375,360 Q300.8281,360 301.4531,359.7969 Q301.8125,359.6875 302.2188,359.3281 Q302.4844,359.125 302.625,359.0625 Q302.7656,359 302.9375,359 Q303.2656,359 303.5,359.2656 Q303.75,359.5156 303.75,359.875 Q303.75,360.2188 303.4063,360.625 Q302.9063,361.2188 302.1094,361.5469 Q301.0625,362 299.7813,362 Q298.2813,362 297.0781,361.4063 Q296.1094,360.9375 295.4219,359.9219 Q294.75,358.9063 294.75,357.7031 L294.75,356.6094 Q294.75,355.3594 295.3438,354.2656 Q295.9531,353.1719 297,352.5938 Q298.0625,352 299.25,352 Q299.9688,352 300.5938,352.25 Q301.2188,352.5 301.75,353 Z " fill="#000000"/><text fill="#000000" font-family="sans-serif" font-size="14" lengthAdjust="spacing" textLength="70" x="320.25" y="361.3535">ElemSelect</text><line style="stroke:#181818;stroke-width:0.5;" x1="226.5" x2="451.5" y1="372.5" y2="372.5"/><line style="stroke:#181818;stroke-width:0.5;" x1="226.5" x2="451.5" y1="380.5" y2="380.5"/><text fill="#000000" font-family="sans-serif" font-size="14" lengthAdjust="spacing" textLength="215" x="231.5" y="397.1738">ElemReference[] GetReferences()</text></g><!--MD5=[b2f4f74b7387d4d90db925330018cc11]
class BooleanSelect--><g id="elem_BooleanSelect"><rect codeLine="30" fill="#F1F1F1" height="48" id="BooleanSelect" rx="2.5" ry="2.5" style="stroke:#181818;stroke-width:0.5;" width="123" x="67.5" y="348.5"/><ellipse cx="82.5" cy="364.5" fill="#ADD1B2" rx="11" ry="11" style="stroke:#181818;stroke-width:1.0;"/><path d="M84.5,361 Q84.7031,360.5 84.9375,360.25 Q85.1719,360 85.4375,360 Q85.9063,360 86.2031,360.2813 Q86.5,360.5625 86.5,361.2188 L86.5,362.7813 Q86.5,363.4375 86.2188,363.7188 Q85.9375,364 85.5,364 Q85.1094,364 84.8594,363.8281 Q84.6094,363.6563 84.5,363.2031 Q84.4531,362.8906 84.2813,362.7188 Q83.9688,362.3906 83.4063,362.2031 Q82.8438,362 82.2813,362 Q81.5781,362 80.9844,362.2813 Q80.4063,362.5625 79.9531,363.1875 Q79.5,363.8125 79.5,364.6719 L79.5,365.5938 Q79.5,366.625 80.3438,367.3125 Q81.1875,368 82.6875,368 Q83.5781,368 84.2031,367.7969 Q84.5625,367.6875 84.9688,367.3281 Q85.2344,367.125 85.375,367.0625 Q85.5156,367 85.6875,367 Q86.0156,367 86.25,367.2656 Q86.5,367.5156 86.5,367.875 Q86.5,368.2188 86.1563,368.625 Q85.6563,369.2188 84.8594,369.5469 Q83.8125,370 82.5313,370 Q81.0313,370 79.8281,369.4063 Q78.8594,368.9375 78.1719,367.9219 Q77.5,366.9063 77.5,365.7031 L77.5,364.6094 Q77.5,363.3594 78.0938,362.2656 Q78.7031,361.1719 79.75,360.5938 Q80.8125,360 82,360 Q82.7188,360 83.3438,360.25 Q83.9688,360.5 84.5,361 Z " fill="#000000"/><text fill="#000000" font-family="sans-serif" font-size="14" lengthAdjust="spacing" textLength="91" x="96.5" y="369.3535">BooleanSelect</text><line style="stroke:#181818;stroke-width:0.5;" x1="68.5" x2="189.5" y1="380.5" y2="380.5"/><line style="stroke:#181818;stroke-width:0.5;" x1="68.5" x2="189.5" y1="388.5" y2="388.5"/></g><!--MD5=[4f7f8f66868754534a88439a55bda73a]
class QueryReference--><g id="elem_QueryReference"><rect codeLine="32" fill="#F1F1F1" height="63.6406" id="QueryReference" rx="2.5" ry="2.5" style="stroke:#181818;stroke-width:0.5;" width="198" x="916" y="495.5"/><ellipse cx="958.45" cy="511.5" fill="#A9DCDF" rx="11" ry="11" style="stroke:#181818;stroke-width:1.0;"/><path d="M960.2,513 L956.9031,513 L956.4656,514 L956.4656,514 L956.9344,514 L957.45,514.625 L957.45,515 L957.45,515.375 L956.9344,516 L956.4656,516 L954.575,516 L953.9656,516 L953.45,515.375 L953.45,515 L953.45,514.625 L953.9656,514 L954.575,514 L956.8875,508 L956.0125,508 L954.9656,508 L954.45,507.375 L954.45,507 L954.45,506.625 L954.9656,506 L956.0125,506 L959.6844,506 L962.3719,514 L962.9344,514 L962.9344,514 L963.45,514.625 L963.45,515 L963.45,515.375 L962.9344,516 L962.3719,516 L960.4813,516 L959.9656,516 L959.45,515.375 L959.45,515 L959.45,514.625 L959.9656,514 L960.4813,514 L960.4813,514 L960.2,513 Z M959.6531,511 L958.45,507.4219 L957.4188,511 L959.6531,511 Z " fill="#000000"/><text fill="#000000" font-family="sans-serif" font-size="14" font-style="italic" lengthAdjust="spacing" textLength="105" x="978.55" y="516.3535">QueryReference</text><line style="stroke:#181818;stroke-width:0.5;" x1="917" x2="1113" y1="527.5" y2="527.5"/><line style="stroke:#181818;stroke-width:0.5;" x1="917" x2="1113" y1="535.5" y2="535.5"/><text fill="#000000" font-family="sans-serif" font-size="14" lengthAdjust="spacing" textLength="186" x="922" y="552.1738">ReferenceType getRefType()</text></g><!--MD5=[86e67c79aa44dec2dd1b8ab61ed63df4]
class WildcardReference--><g id="elem_WildcardReference"><rect codeLine="35" fill="#F1F1F1" height="48" id="WildcardReference" rx="2.5" ry="2.5" style="stroke:#181818;stroke-width:0.5;" width="153" x="938.5" y="642.5"/><ellipse cx="953.5" cy="658.5" fill="#ADD1B2" rx="11" ry="11" style="stroke:#181818;stroke-width:1.0;"/><path d="M955.5,655 Q955.7031,654.5 955.9375,654.25 Q956.1719,654 956.4375,654 Q956.9063,654 957.2031,654.2813 Q957.5,654.5625 957.5,655.2188 L957.5,656.7813 Q957.5,657.4375 957.2188,657.7188 Q956.9375,658 956.5,658 Q956.1094,658 955.8594,657.8281 Q955.6094,657.6563 955.5,657.2031 Q955.4531,656.8906 955.2813,656.7188 Q954.9688,656.3906 954.4063,656.2031 Q953.8438,656 953.2813,656 Q952.5781,656 951.9844,656.2813 Q951.4063,656.5625 950.9531,657.1875 Q950.5,657.8125 950.5,658.6719 L950.5,659.5938 Q950.5,660.625 951.3438,661.3125 Q952.1875,662 953.6875,662 Q954.5781,662 955.2031,661.7969 Q955.5625,661.6875 955.9688,661.3281 Q956.2344,661.125 956.375,661.0625 Q956.5156,661 956.6875,661 Q957.0156,661 957.25,661.2656 Q957.5,661.5156 957.5,661.875 Q957.5,662.2188 957.1563,662.625 Q956.6563,663.2188 955.8594,663.5469 Q954.8125,664 953.5313,664 Q952.0313,664 950.8281,663.4063 Q949.8594,662.9375 949.1719,661.9219 Q948.5,660.9063 948.5,659.7031 L948.5,658.6094 Q948.5,657.3594 949.0938,656.2656 Q949.7031,655.1719 950.75,654.5938 Q951.8125,654 953,654 Q953.7188,654 954.3438,654.25 Q954.9688,654.5 955.5,655 Z " fill="#000000"/><text fill="#000000" font-family="sans-serif" font-size="14" lengthAdjust="spacing" textLength="121" x="967.5" y="663.3535">WildcardReference</text><line style="stroke:#181818;stroke-width:0.5;" x1="939.5" x2="1090.5" y1="674.5" y2="674.5"/><line style="stroke:#181818;stroke-width:0.5;" x1="939.5" x2="1090.5" y1="682.5" y2="682.5"/></g><!--MD5=[9268670ed45e91e8e3c5b912cdb2b180]
class IdentReference--><g id="elem_IdentReference"><rect codeLine="36" fill="#F1F1F1" height="48" id="IdentReference" rx="2.5" ry="2.5" style="stroke:#181818;stroke-width:0.5;" width="129" x="1126.5" y="642.5"/><ellipse cx="1141.5" cy="658.5" fill="#ADD1B2" rx="11" ry="11" style="stroke:#181818;stroke-width:1.0;"/><path d="M1143.5,655 Q1143.7031,654.5 1143.9375,654.25 Q1144.1719,654 1144.4375,654 Q1144.9063,654 1145.2031,654.2813 Q1145.5,654.5625 1145.5,655.2188 L1145.5,656.7813 Q1145.5,657.4375 1145.2188,657.7188 Q1144.9375,658 1144.5,658 Q1144.1094,658 1143.8594,657.8281 Q1143.6094,657.6563 1143.5,657.2031 Q1143.4531,656.8906 1143.2813,656.7188 Q1142.9688,656.3906 1142.4063,656.2031 Q1141.8438,656 1141.2813,656 Q1140.5781,656 1139.9844,656.2813 Q1139.4063,656.5625 1138.9531,657.1875 Q1138.5,657.8125 1138.5,658.6719 L1138.5,659.5938 Q1138.5,660.625 1139.3438,661.3125 Q1140.1875,662 1141.6875,662 Q1142.5781,662 1143.2031,661.7969 Q1143.5625,661.6875 1143.9688,661.3281 Q1144.2344,661.125 1144.375,661.0625 Q1144.5156,661 1144.6875,661 Q1145.0156,661 1145.25,661.2656 Q1145.5,661.5156 1145.5,661.875 Q1145.5,662.2188 1145.1563,662.625 Q1144.6563,663.2188 1143.8594,663.5469 Q1142.8125,664 1141.5313,664 Q1140.0313,664 1138.8281,663.4063 Q1137.8594,662.9375 1137.1719,661.9219 Q1136.5,660.9063 1136.5,659.7031 L1136.5,658.6094 Q1136.5,657.3594 1137.0938,656.2656 Q1137.7031,655.1719 1138.75,654.5938 Q1139.8125,654 1141,654 Q1141.7188,654 1142.3438,654.25 Q1142.9688,654.5 1143.5,655 Z " fill="#000000"/><text fill="#000000" font-family="sans-serif" font-size="14" lengthAdjust="spacing" textLength="97" x="1155.5" y="663.3535">IdentReference</text><line style="stroke:#181818;stroke-width:0.5;" x1="1127.5" x2="1254.5" y1="674.5" y2="674.5"/><line style="stroke:#181818;stroke-width:0.5;" x1="1127.5" x2="1254.5" y1="682.5" y2="682.5"/></g><!--MD5=[bd8e536829f39b58e53f20fdb9b501c4]
class IntegerReference--><g id="elem_IntegerReference"><rect codeLine="37" fill="#F1F1F1" height="48" id="IntegerReference" rx="2.5" ry="2.5" style="stroke:#181818;stroke-width:0.5;" width="142" x="1291" y="642.5"/><ellipse cx="1306" cy="658.5" fill="#ADD1B2" rx="11" ry="11" style="stroke:#181818;stroke-width:1.0;"/><path d="M1308,655 Q1308.2031,654.5 1308.4375,654.25 Q1308.6719,654 1308.9375,654 Q1309.4063,654 1309.7031,654.2813 Q1310,654.5625 1310,655.2188 L1310,656.7813 Q1310,657.4375 1309.7188,657.7188 Q1309.4375,658 1309,658 Q1308.6094,658 1308.3594,657.8281 Q1308.1094,657.6563 1308,657.2031 Q1307.9531,656.8906 1307.7813,656.7188 Q1307.4688,656.3906 1306.9063,656.2031 Q1306.3438,656 1305.7813,656 Q1305.0781,656 1304.4844,656.2813 Q1303.9063,656.5625 1303.4531,657.1875 Q1303,657.8125 1303,658.6719 L1303,659.5938 Q1303,660.625 1303.8438,661.3125 Q1304.6875,662 1306.1875,662 Q1307.0781,662 1307.7031,661.7969 Q1308.0625,661.6875 1308.4688,661.3281 Q1308.7344,661.125 1308.875,661.0625 Q1309.0156,661 1309.1875,661 Q1309.5156,661 1309.75,661.2656 Q1310,661.5156 1310,661.875 Q1310,662.2188 1309.6563,662.625 Q1309.1563,663.2188 1308.3594,663.5469 Q1307.3125,664 1306.0313,664 Q1304.5313,664 1303.3281,663.4063 Q1302.3594,662.9375 1301.6719,661.9219 Q1301,660.9063 1301,659.7031 L1301,658.6094 Q1301,657.3594 1301.5938,656.2656 Q1302.2031,655.1719 1303.25,654.5938 Q1304.3125,654 1305.5,654 Q1306.2188,654 1306.8438,654.25 Q1307.4688,654.5 1308,655 Z " fill="#000000"/><text fill="#000000" font-family="sans-serif" font-size="14" lengthAdjust="spacing" textLength="110" x="1320" y="663.3535">IntegerReference</text><line style="stroke:#181818;stroke-width:0.5;" x1="1292" x2="1432" y1="674.5" y2="674.5"/><line style="stroke:#181818;stroke-width:0.5;" x1="1292" x2="1432" y1="682.5" y2="682.5"/></g><!--MD5=[e6e254a3e1845aeeb82dd3d8e9fbd02b]
class ElemReference--><g id="elem_ElemReference"><rect codeLine="38" fill="#F1F1F1" height="63.6406" id="ElemReference" rx="2.5" ry="2.5" style="stroke:#181818;stroke-width:0.5;" width="243" x="472.5" y="634.5"/><ellipse cx="541.25" cy="650.5" fill="#A9DCDF" rx="11" ry="11" style="stroke:#181818;stroke-width:1.0;"/><path d="M543,652 L539.7031,652 L539.2656,653 L539.2656,653 L539.7344,653 L540.25,653.625 L540.25,654 L540.25,654.375 L539.7344,655 L539.2656,655 L537.375,655 L536.7656,655 L536.25,654.375 L536.25,654 L536.25,653.625 L536.7656,653 L537.375,653 L539.6875,647 L538.8125,647 L537.7656,647 L537.25,646.375 L537.25,646 L537.25,645.625 L537.7656,645 L538.8125,645 L542.4844,645 L545.1719,653 L545.7344,653 L545.7344,653 L546.25,653.625 L546.25,654 L546.25,654.375 L545.7344,655 L545.1719,655 L543.2813,655 L542.7656,655 L542.25,654.375 L542.25,654 L542.25,653.625 L542.7656,653 L543.2813,653 L543.2813,653 L543,652 Z M542.4531,650 L541.25,646.4219 L540.2188,650 L542.4531,650 Z " fill="#000000"/><text fill="#000000" font-family="sans-serif" font-size="14" font-style="italic" lengthAdjust="spacing" textLength="97" x="561.75" y="655.3535">ElemReference</text><line style="stroke:#181818;stroke-width:0.5;" x1="473.5" x2="714.5" y1="666.5" y2="666.5"/><line style="stroke:#181818;stroke-width:0.5;" x1="473.5" x2="714.5" y1="674.5" y2="674.5"/><text fill="#000000" font-family="sans-serif" font-size="14" lengthAdjust="spacing" textLength="231" x="478.5" y="691.1738">virtual QuerySynonym getSynonym()</text></g><!--MD5=[504d057594d99508dac643c7ea2c6c06]
class SynonymReference--><g id="elem_SynonymReference"><rect codeLine="41" fill="#F1F1F1" height="48" id="SynonymReference" rx="2.5" ry="2.5" style="stroke:#181818;stroke-width:0.5;" width="156" x="7" y="774"/><ellipse cx="22" cy="790" fill="#ADD1B2" rx="11" ry="11" style="stroke:#181818;stroke-width:1.0;"/><path d="M24,786.5 Q24.2031,786 24.4375,785.75 Q24.6719,785.5 24.9375,785.5 Q25.4063,785.5 25.7031,785.7813 Q26,786.0625 26,786.7188 L26,788.2813 Q26,788.9375 25.7188,789.2188 Q25.4375,789.5 25,789.5 Q24.6094,789.5 24.3594,789.3281 Q24.1094,789.1563 24,788.7031 Q23.9531,788.3906 23.7813,788.2188 Q23.4688,787.8906 22.9063,787.7031 Q22.3438,787.5 21.7813,787.5 Q21.0781,787.5 20.4844,787.7813 Q19.9063,788.0625 19.4531,788.6875 Q19,789.3125 19,790.1719 L19,791.0938 Q19,792.125 19.8438,792.8125 Q20.6875,793.5 22.1875,793.5 Q23.0781,793.5 23.7031,793.2969 Q24.0625,793.1875 24.4688,792.8281 Q24.7344,792.625 24.875,792.5625 Q25.0156,792.5 25.1875,792.5 Q25.5156,792.5 25.75,792.7656 Q26,793.0156 26,793.375 Q26,793.7188 25.6563,794.125 Q25.1563,794.7188 24.3594,795.0469 Q23.3125,795.5 22.0313,795.5 Q20.5313,795.5 19.3281,794.9063 Q18.3594,794.4375 17.6719,793.4219 Q17,792.4063 17,791.2031 L17,790.1094 Q17,788.8594 17.5938,787.7656 Q18.2031,786.6719 19.25,786.0938 Q20.3125,785.5 21.5,785.5 Q22.2188,785.5 22.8438,785.75 Q23.4688,786 24,786.5 Z " fill="#000000"/><text fill="#000000" font-family="sans-serif" font-size="14" lengthAdjust="spacing" textLength="124" x="36" y="794.8535">SynonymReference</text><line style="stroke:#181818;stroke-width:0.5;" x1="8" x2="162" y1="806" y2="806"/><line style="stroke:#181818;stroke-width:0.5;" x1="8" x2="162" y1="814" y2="814"/></g><!--MD5=[cee9f0681a9d9e91d9d09955f68be225]
class AttrReference--><g id="elem_AttrReference"><rect codeLine="42" fill="#F1F1F1" height="63.6406" id="AttrReference" rx="2.5" ry="2.5" style="stroke:#181818;stroke-width:0.5;" width="184" x="502" y="766"/><ellipse cx="545.8" cy="782" fill="#ADD1B2" rx="11" ry="11" style="stroke:#181818;stroke-width:1.0;"/><path d="M547.8,778.5 Q548.0031,778 548.2375,777.75 Q548.4719,777.5 548.7375,777.5 Q549.2063,777.5 549.5031,777.7813 Q549.8,778.0625 549.8,778.7188 L549.8,780.2813 Q549.8,780.9375 549.5188,781.2188 Q549.2375,781.5 548.8,781.5 Q548.4094,781.5 548.1594,781.3281 Q547.9094,781.1563 547.8,780.7031 Q547.7531,780.3906 547.5813,780.2188 Q547.2688,779.8906 546.7063,779.7031 Q546.1438,779.5 545.5813,779.5 Q544.8781,779.5 544.2844,779.7813 Q543.7063,780.0625 543.2531,780.6875 Q542.8,781.3125 542.8,782.1719 L542.8,783.0938 Q542.8,784.125 543.6438,784.8125 Q544.4875,785.5 545.9875,785.5 Q546.8781,785.5 547.5031,785.2969 Q547.8625,785.1875 548.2688,784.8281 Q548.5344,784.625 548.675,784.5625 Q548.8156,784.5 548.9875,784.5 Q549.3156,784.5 549.55,784.7656 Q549.8,785.0156 549.8,785.375 Q549.8,785.7188 549.4563,786.125 Q548.9563,786.7188 548.1594,787.0469 Q547.1125,787.5 545.8313,787.5 Q544.3313,787.5 543.1281,786.9063 Q542.1594,786.4375 541.4719,785.4219 Q540.8,784.4063 540.8,783.2031 L540.8,782.1094 Q540.8,780.8594 541.3938,779.7656 Q542.0031,778.6719 543.05,778.0938 Q544.1125,777.5 545.3,777.5 Q546.0188,777.5 546.6438,777.75 Q547.2688,778 547.8,778.5 Z " fill="#000000"/><text fill="#000000" font-family="sans-serif" font-size="14" lengthAdjust="spacing" textLength="88" x="566.2" y="786.8535">AttrReference</text><line style="stroke:#181818;stroke-width:0.5;" x1="503" x2="685" y1="798" y2="798"/><line style="stroke:#181818;stroke-width:0.5;" x1="503" x2="685" y1="806" y2="806"/><text fill="#000000" font-family="sans-serif" font-size="14" lengthAdjust="spacing" textLength="172" x="508" y="822.6738">AttributeType getAttribute()</text></g><!--MD5=[9772ecc17400a8065c413f4293334f2d]
class QueryClause--><g id="elem_QueryClause"><rect codeLine="46" fill="#F1F1F1" height="63.6406" id="QueryClause" rx="2.5" ry="2.5" style="stroke:#181818;stroke-width:0.5;" width="198" x="654" y="185.5"/><ellipse cx="707.25" cy="201.5" fill="#A9DCDF" rx="11" ry="11" style="stroke:#181818;stroke-width:1.0;"/><path d="M709,203 L705.7031,203 L705.2656,204 L705.2656,204 L705.7344,204 L706.25,204.625 L706.25,205 L706.25,205.375 L705.7344,206 L705.2656,206 L703.375,206 L702.7656,206 L702.25,205.375 L702.25,205 L702.25,204.625 L702.7656,204 L703.375,204 L705.6875,198 L704.8125,198 L703.7656,198 L703.25,197.375 L703.25,197 L703.25,196.625 L703.7656,196 L704.8125,196 L708.4844,196 L711.1719,204 L711.7344,204 L711.7344,204 L712.25,204.625 L712.25,205 L712.25,205.375 L711.7344,206 L711.1719,206 L709.2813,206 L708.7656,206 L708.25,205.375 L708.25,205 L708.25,204.625 L708.7656,204 L709.2813,204 L709.2813,204 L709,203 Z M708.4531,201 L707.25,197.4219 L706.2188,201 L708.4531,201 Z " fill="#000000"/><text fill="#000000" font-family="sans-serif" font-size="14" font-style="italic" lengthAdjust="spacing" textLength="83" x="727.75" y="206.3535">QueryClause</text><line style="stroke:#181818;stroke-width:0.5;" x1="655" x2="851" y1="217.5" y2="217.5"/><line style="stroke:#181818;stroke-width:0.5;" x1="655" x2="851" y1="225.5" y2="225.5"/><text fill="#000000" font-family="sans-serif" font-size="14" lengthAdjust="spacing" textLength="186" x="660" y="242.1738">ClauseType getClauseType()</text></g><!--MD5=[209713aafc3e5d967048991069ac1efb]
class SuchThatClause--><g id="elem_SuchThatClause"><rect codeLine="49" fill="#F1F1F1" height="94.9219" id="SuchThatClause" rx="2.5" ry="2.5" style="stroke:#181818;stroke-width:0.5;" width="199" x="1768.5" y="325"/><ellipse cx="1811.4" cy="341" fill="#A9DCDF" rx="11" ry="11" style="stroke:#181818;stroke-width:1.0;"/><path d="M1813.15,342.5 L1809.8531,342.5 L1809.4156,343.5 L1809.4156,343.5 L1809.8844,343.5 L1810.4,344.125 L1810.4,344.5 L1810.4,344.875 L1809.8844,345.5 L1809.4156,345.5 L1807.525,345.5 L1806.9156,345.5 L1806.4,344.875 L1806.4,344.5 L1806.4,344.125 L1806.9156,343.5 L1807.525,343.5 L1809.8375,337.5 L1808.9625,337.5 L1807.9156,337.5 L1807.4,336.875 L1807.4,336.5 L1807.4,336.125 L1807.9156,335.5 L1808.9625,335.5 L1812.6344,335.5 L1815.3219,343.5 L1815.8844,343.5 L1815.8844,343.5 L1816.4,344.125 L1816.4,344.5 L1816.4,344.875 L1815.8844,345.5 L1815.3219,345.5 L1813.4313,345.5 L1812.9156,345.5 L1812.4,344.875 L1812.4,344.5 L1812.4,344.125 L1812.9156,343.5 L1813.4313,343.5 L1813.4313,343.5 L1813.15,342.5 Z M1812.6031,340.5 L1811.4,336.9219 L1810.3688,340.5 L1812.6031,340.5 Z " fill="#000000"/><text fill="#000000" font-family="sans-serif" font-size="14" font-style="italic" lengthAdjust="spacing" textLength="105" x="1831.6" y="345.8535">SuchThatClause</text><line style="stroke:#181818;stroke-width:0.5;" x1="1769.5" x2="1966.5" y1="357" y2="357"/><line style="stroke:#181818;stroke-width:0.5;" x1="1769.5" x2="1966.5" y1="365" y2="365"/><text fill="#000000" font-family="sans-serif" font-size="14" lengthAdjust="spacing" textLength="176" x="1774.5" y="381.6738">RsType getSuchThatType()</text><text fill="#000000" font-family="sans-serif" font-size="14" lengthAdjust="spacing" textLength="167" x="1774.5" y="397.3145">QueryReference getFirst()</text><text fill="#000000" font-family="sans-serif" font-size="14" lengthAdjust="spacing" textLength="187" x="1774.5" y="412.9551">QueryReference getSecond()</text></g><!--MD5=[efba00fe3698846dd806f86fdc741d9b]
class WithClause--><g id="elem_WithClause"><rect codeLine="54" fill="#F1F1F1" height="94.9219" id="WithClause" rx="2.5" ry="2.5" style="stroke:#181818;stroke-width:0.5;" width="199" x="787.5" y="325"/><ellipse cx="846.75" cy="341" fill="#ADD1B2" rx="11" ry="11" style="stroke:#181818;stroke-width:1.0;"/><path d="M848.75,337.5 Q848.9531,337 849.1875,336.75 Q849.4219,336.5 849.6875,336.5 Q850.1563,336.5 850.4531,336.7813 Q850.75,337.0625 850.75,337.7188 L850.75,339.2813 Q850.75,339.9375 850.4688,340.2188 Q850.1875,340.5 849.75,340.5 Q849.3594,340.5 849.1094,340.3281 Q848.8594,340.1563 848.75,339.7031 Q848.7031,339.3906 848.5313,339.2188 Q848.2188,338.8906 847.6563,338.7031 Q847.0938,338.5 846.5313,338.5 Q845.8281,338.5 845.2344,338.7813 Q844.6563,339.0625 844.2031,339.6875 Q843.75,340.3125 843.75,341.1719 L843.75,342.0938 Q843.75,343.125 844.5938,343.8125 Q845.4375,344.5 846.9375,344.5 Q847.8281,344.5 848.4531,344.2969 Q848.8125,344.1875 849.2188,343.8281 Q849.4844,343.625 849.625,343.5625 Q849.7656,343.5 849.9375,343.5 Q850.2656,343.5 850.5,343.7656 Q850.75,344.0156 850.75,344.375 Q850.75,344.7188 850.4063,345.125 Q849.9063,345.7188 849.1094,346.0469 Q848.0625,346.5 846.7813,346.5 Q845.2813,346.5 844.0781,345.9063 Q843.1094,345.4375 842.4219,344.4219 Q841.75,343.4063 841.75,342.2031 L841.75,341.1094 Q841.75,339.8594 842.3438,338.7656 Q842.9531,337.6719 844,337.0938 Q845.0625,336.5 846.25,336.5 Q846.9688,336.5 847.5938,336.75 Q848.2188,337 848.75,337.5 Z " fill="#000000"/><text fill="#000000" font-family="sans-serif" font-size="14" lengthAdjust="spacing" textLength="72" x="867.25" y="345.8535">WithClause</text><line style="stroke:#181818;stroke-width:0.5;" x1="788.5" x2="985.5" y1="357" y2="357"/><line style="stroke:#181818;stroke-width:0.5;" x1="788.5" x2="985.5" y1="365" y2="365"/><text fill="#000000" font-family="sans-serif" font-size="14" lengthAdjust="spacing" textLength="184" x="793.5" y="381.6738">Comparator getComparator()</text><text fill="#000000" font-family="sans-serif" font-size="14" lengthAdjust="spacing" textLength="167" x="793.5" y="397.3145">QueryReference getFirst()</text><text fill="#000000" font-family="sans-serif" font-size="14" lengthAdjust="spacing" textLength="187" x="793.5" y="412.9551">QueryReference getSecond()</text></g><!--MD5=[bfbc09f118ac649fa938666fcb82962a]
class Comparator--><g id="elem_Comparator"><rect codeLine="59" fill="#F1F1F1" height="48" id="Comparator" rx="2.5" ry="2.5" style="stroke:#181818;stroke-width:0.5;" width="107" x="773.5" y="503.5"/><ellipse cx="788.5" cy="519.5" fill="#ADD1B2" rx="11" ry="11" style="stroke:#181818;stroke-width:1.0;"/><path d="M790.5,516 Q790.7031,515.5 790.9375,515.25 Q791.1719,515 791.4375,515 Q791.9063,515 792.2031,515.2813 Q792.5,515.5625 792.5,516.2188 L792.5,517.7813 Q792.5,518.4375 792.2188,518.7188 Q791.9375,519 791.5,519 Q791.1094,519 790.8594,518.8281 Q790.6094,518.6563 790.5,518.2031 Q790.4531,517.8906 790.2813,517.7188 Q789.9688,517.3906 789.4063,517.2031 Q788.8438,517 788.2813,517 Q787.5781,517 786.9844,517.2813 Q786.4063,517.5625 785.9531,518.1875 Q785.5,518.8125 785.5,519.6719 L785.5,520.5938 Q785.5,521.625 786.3438,522.3125 Q787.1875,523 788.6875,523 Q789.5781,523 790.2031,522.7969 Q790.5625,522.6875 790.9688,522.3281 Q791.2344,522.125 791.375,522.0625 Q791.5156,522 791.6875,522 Q792.0156,522 792.25,522.2656 Q792.5,522.5156 792.5,522.875 Q792.5,523.2188 792.1563,523.625 Q791.6563,524.2188 790.8594,524.5469 Q789.8125,525 788.5313,525 Q787.0313,525 785.8281,524.4063 Q784.8594,523.9375 784.1719,522.9219 Q783.5,521.9063 783.5,520.7031 L783.5,519.6094 Q783.5,518.3594 784.0938,517.2656 Q784.7031,516.1719 785.75,515.5938 Q786.8125,515 788,515 Q788.7188,515 789.3438,515.25 Q789.9688,515.5 790.5,516 Z " fill="#000000"/><text fill="#000000" font-family="sans-serif" font-size="14" lengthAdjust="spacing" textLength="75" x="802.5" y="524.3535">Comparator</text><line style="stroke:#181818;stroke-width:0.5;" x1="774.5" x2="879.5" y1="535.5" y2="535.5"/><line style="stroke:#181818;stroke-width:0.5;" x1="774.5" x2="879.5" y1="543.5" y2="543.5"/></g><!--MD5=[92ec8b8a6d97b46515a87cf3ef59b1e5]
class PatternClause--><g id="elem_PatternClause"><rect codeLine="60" fill="#F1F1F1" height="110.5625" id="PatternClause" rx="2.5" ry="2.5" style="stroke:#181818;stroke-width:0.5;" width="264" x="488" y="317"/><ellipse cx="570.75" cy="333" fill="#ADD1B2" rx="11" ry="11" style="stroke:#181818;stroke-width:1.0;"/><path d="M572.75,329.5 Q572.9531,329 573.1875,328.75 Q573.4219,328.5 573.6875,328.5 Q574.1563,328.5 574.4531,328.7813 Q574.75,329.0625 574.75,329.7188 L574.75,331.2813 Q574.75,331.9375 574.4688,332.2188 Q574.1875,332.5 573.75,332.5 Q573.3594,332.5 573.1094,332.3281 Q572.8594,332.1563 572.75,331.7031 Q572.7031,331.3906 572.5313,331.2188 Q572.2188,330.8906 571.6563,330.7031 Q571.0938,330.5 570.5313,330.5 Q569.8281,330.5 569.2344,330.7813 Q568.6563,331.0625 568.2031,331.6875 Q567.75,332.3125 567.75,333.1719 L567.75,334.0938 Q567.75,335.125 568.5938,335.8125 Q569.4375,336.5 570.9375,336.5 Q571.8281,336.5 572.4531,336.2969 Q572.8125,336.1875 573.2188,335.8281 Q573.4844,335.625 573.625,335.5625 Q573.7656,335.5 573.9375,335.5 Q574.2656,335.5 574.5,335.7656 Q574.75,336.0156 574.75,336.375 Q574.75,336.7188 574.4063,337.125 Q573.9063,337.7188 573.1094,338.0469 Q572.0625,338.5 570.7813,338.5 Q569.2813,338.5 568.0781,337.9063 Q567.1094,337.4375 566.4219,336.4219 Q565.75,335.4063 565.75,334.2031 L565.75,333.1094 Q565.75,331.8594 566.3438,330.7656 Q566.9531,329.6719 568,329.0938 Q569.0625,328.5 570.25,328.5 Q570.9688,328.5 571.5938,328.75 Q572.2188,329 572.75,329.5 Z " fill="#000000"/><text fill="#000000" font-family="sans-serif" font-size="14" lengthAdjust="spacing" textLength="90" x="591.25" y="337.8535">PatternClause</text><line style="stroke:#181818;stroke-width:0.5;" x1="489" x2="751" y1="349" y2="349"/><line style="stroke:#181818;stroke-width:0.5;" x1="489" x2="751" y1="357" y2="357"/><text fill="#000000" font-family="sans-serif" font-size="14" lengthAdjust="spacing" textLength="208" x="494" y="373.6738">SynonymReference getStmtRef()</text><text fill="#000000" font-family="sans-serif" font-size="14" lengthAdjust="spacing" textLength="182" x="494" y="389.3145">QueryReference getEntRef()</text><text fill="#000000" font-family="sans-serif" font-size="14" lengthAdjust="spacing" textLength="232" x="494" y="404.9551">ExpressionSpec getFirstExpression()</text><text fill="#000000" font-family="sans-serif" font-size="14" lengthAdjust="spacing" textLength="252" x="494" y="420.5957">ExpressionSpec getSecondExpression()</text></g><!--MD5=[d2fabc0fe1c4688c6097576732ed1d98]
class ExpressionSpec--><g id="elem_ExpressionSpec"><rect codeLine="67" fill="#F1F1F1" height="79.2813" id="ExpressionSpec" rx="2.5" ry="2.5" style="stroke:#181818;stroke-width:0.5;" width="133" x="306.5" y="488"/><ellipse cx="321.5" cy="504" fill="#A9DCDF" rx="11" ry="11" style="stroke:#181818;stroke-width:1.0;"/><path d="M323.25,505.5 L319.9531,505.5 L319.5156,506.5 L319.5156,506.5 L319.9844,506.5 L320.5,507.125 L320.5,507.5 L320.5,507.875 L319.9844,508.5 L319.5156,508.5 L317.625,508.5 L317.0156,508.5 L316.5,507.875 L316.5,507.5 L316.5,507.125 L317.0156,506.5 L317.625,506.5 L319.9375,500.5 L319.0625,500.5 L318.0156,500.5 L317.5,499.875 L317.5,499.5 L317.5,499.125 L318.0156,498.5 L319.0625,498.5 L322.7344,498.5 L325.4219,506.5 L325.9844,506.5 L325.9844,506.5 L326.5,507.125 L326.5,507.5 L326.5,507.875 L325.9844,508.5 L325.4219,508.5 L323.5313,508.5 L323.0156,508.5 L322.5,507.875 L322.5,507.5 L322.5,507.125 L323.0156,506.5 L323.5313,506.5 L323.5313,506.5 L323.25,505.5 Z M322.7031,503.5 L321.5,499.9219 L320.4688,503.5 L322.7031,503.5 Z " fill="#000000"/><text fill="#000000" font-family="sans-serif" font-size="14" font-style="italic" lengthAdjust="spacing" textLength="101" x="335.5" y="508.8535">ExpressionSpec</text><line style="stroke:#181818;stroke-width:0.5;" x1="307.5" x2="438.5" y1="520" y2="520"/><line style="stroke:#181818;stroke-width:0.5;" x1="307.5" x2="438.5" y1="528" y2="528"/><text fill="#000000" font-family="sans-serif" font-size="14" lengthAdjust="spacing" textLength="78" x="312.5" y="544.6738">bool isWild()</text><text fill="#000000" font-family="sans-serif" font-size="14" lengthAdjust="spacing" textLength="100" x="312.5" y="560.3145">String toString()</text></g><!--MD5=[7a4f5d0e3278b283972b851757e453b3]
class ParentClause--><g id="elem_ParentClause"><rect fill="#F1F1F1" height="48" id="ParentClause" rx="2.5" ry="2.5" style="stroke:#181818;stroke-width:0.5;" width="118" x="2047" y="503.5"/><ellipse cx="2062" cy="519.5" fill="#ADD1B2" rx="11" ry="11" style="stroke:#181818;stroke-width:1.0;"/><path d="M2064,516 Q2064.2031,515.5 2064.4375,515.25 Q2064.6719,515 2064.9375,515 Q2065.4063,515 2065.7031,515.2813 Q2066,515.5625 2066,516.2188 L2066,517.7813 Q2066,518.4375 2065.7188,518.7188 Q2065.4375,519 2065,519 Q2064.6094,519 2064.3594,518.8281 Q2064.1094,518.6563 2064,518.2031 Q2063.9531,517.8906 2063.7813,517.7188 Q2063.4688,517.3906 2062.9063,517.2031 Q2062.3438,517 2061.7813,517 Q2061.0781,517 2060.4844,517.2813 Q2059.9063,517.5625 2059.4531,518.1875 Q2059,518.8125 2059,519.6719 L2059,520.5938 Q2059,521.625 2059.8438,522.3125 Q2060.6875,523 2062.1875,523 Q2063.0781,523 2063.7031,522.7969 Q2064.0625,522.6875 2064.4688,522.3281 Q2064.7344,522.125 2064.875,522.0625 Q2065.0156,522 2065.1875,522 Q2065.5156,522 2065.75,522.2656 Q2066,522.5156 2066,522.875 Q2066,523.2188 2065.6563,523.625 Q2065.1563,524.2188 2064.3594,524.5469 Q2063.3125,525 2062.0313,525 Q2060.5313,525 2059.3281,524.4063 Q2058.3594,523.9375 2057.6719,522.9219 Q2057,521.9063 2057,520.7031 L2057,519.6094 Q2057,518.3594 2057.5938,517.2656 Q2058.2031,516.1719 2059.25,515.5938 Q2060.3125,515 2061.5,515 Q2062.2188,515 2062.8438,515.25 Q2063.4688,515.5 2064,516 Z " fill="#000000"/><text fill="#000000" font-family="sans-serif" font-size="14" lengthAdjust="spacing" textLength="86" x="2076" y="524.3535">ParentClause</text><line style="stroke:#181818;stroke-width:0.5;" x1="2048" x2="2164" y1="535.5" y2="535.5"/><line style="stroke:#181818;stroke-width:0.5;" x1="2048" x2="2164" y1="543.5" y2="543.5"/></g><!--MD5=[be26ab68ce9327e1bdda5bf01876205d]
class ParentTClause--><g id="elem_ParentTClause"><rect fill="#F1F1F1" height="48" id="ParentTClause" rx="2.5" ry="2.5" style="stroke:#181818;stroke-width:0.5;" width="127" x="2200.5" y="503.5"/><ellipse cx="2215.5" cy="519.5" fill="#ADD1B2" rx="11" ry="11" style="stroke:#181818;stroke-width:1.0;"/><path d="M2217.5,516 Q2217.7031,515.5 2217.9375,515.25 Q2218.1719,515 2218.4375,515 Q2218.9063,515 2219.2031,515.2813 Q2219.5,515.5625 2219.5,516.2188 L2219.5,517.7813 Q2219.5,518.4375 2219.2188,518.7188 Q2218.9375,519 2218.5,519 Q2218.1094,519 2217.8594,518.8281 Q2217.6094,518.6563 2217.5,518.2031 Q2217.4531,517.8906 2217.2813,517.7188 Q2216.9688,517.3906 2216.4063,517.2031 Q2215.8438,517 2215.2813,517 Q2214.5781,517 2213.9844,517.2813 Q2213.4063,517.5625 2212.9531,518.1875 Q2212.5,518.8125 2212.5,519.6719 L2212.5,520.5938 Q2212.5,521.625 2213.3438,522.3125 Q2214.1875,523 2215.6875,523 Q2216.5781,523 2217.2031,522.7969 Q2217.5625,522.6875 2217.9688,522.3281 Q2218.2344,522.125 2218.375,522.0625 Q2218.5156,522 2218.6875,522 Q2219.0156,522 2219.25,522.2656 Q2219.5,522.5156 2219.5,522.875 Q2219.5,523.2188 2219.1563,523.625 Q2218.6563,524.2188 2217.8594,524.5469 Q2216.8125,525 2215.5313,525 Q2214.0313,525 2212.8281,524.4063 Q2211.8594,523.9375 2211.1719,522.9219 Q2210.5,521.9063 2210.5,520.7031 L2210.5,519.6094 Q2210.5,518.3594 2211.0938,517.2656 Q2211.7031,516.1719 2212.75,515.5938 Q2213.8125,515 2215,515 Q2215.7188,515 2216.3438,515.25 Q2216.9688,515.5 2217.5,516 Z " fill="#000000"/><text fill="#000000" font-family="sans-serif" font-size="14" lengthAdjust="spacing" textLength="95" x="2229.5" y="524.3535">ParentTClause</text><line style="stroke:#181818;stroke-width:0.5;" x1="2201.5" x2="2326.5" y1="535.5" y2="535.5"/><line style="stroke:#181818;stroke-width:0.5;" x1="2201.5" x2="2326.5" y1="543.5" y2="543.5"/></g><!--MD5=[bef22cc7c37acce1f0ed7c8fd8459917]
class FollowsClause--><g id="elem_FollowsClause"><rect fill="#F1F1F1" height="48" id="FollowsClause" rx="2.5" ry="2.5" style="stroke:#181818;stroke-width:0.5;" width="123" x="2362.5" y="503.5"/><ellipse cx="2377.5" cy="519.5" fill="#ADD1B2" rx="11" ry="11" style="stroke:#181818;stroke-width:1.0;"/><path d="M2379.5,516 Q2379.7031,515.5 2379.9375,515.25 Q2380.1719,515 2380.4375,515 Q2380.9063,515 2381.2031,515.2813 Q2381.5,515.5625 2381.5,516.2188 L2381.5,517.7813 Q2381.5,518.4375 2381.2188,518.7188 Q2380.9375,519 2380.5,519 Q2380.1094,519 2379.8594,518.8281 Q2379.6094,518.6563 2379.5,518.2031 Q2379.4531,517.8906 2379.2813,517.7188 Q2378.9688,517.3906 2378.4063,517.2031 Q2377.8438,517 2377.2813,517 Q2376.5781,517 2375.9844,517.2813 Q2375.4063,517.5625 2374.9531,518.1875 Q2374.5,518.8125 2374.5,519.6719 L2374.5,520.5938 Q2374.5,521.625 2375.3438,522.3125 Q2376.1875,523 2377.6875,523 Q2378.5781,523 2379.2031,522.7969 Q2379.5625,522.6875 2379.9688,522.3281 Q2380.2344,522.125 2380.375,522.0625 Q2380.5156,522 2380.6875,522 Q2381.0156,522 2381.25,522.2656 Q2381.5,522.5156 2381.5,522.875 Q2381.5,523.2188 2381.1563,523.625 Q2380.6563,524.2188 2379.8594,524.5469 Q2378.8125,525 2377.5313,525 Q2376.0313,525 2374.8281,524.4063 Q2373.8594,523.9375 2373.1719,522.9219 Q2372.5,521.9063 2372.5,520.7031 L2372.5,519.6094 Q2372.5,518.3594 2373.0938,517.2656 Q2373.7031,516.1719 2374.75,515.5938 Q2375.8125,515 2377,515 Q2377.7188,515 2378.3438,515.25 Q2378.9688,515.5 2379.5,516 Z " fill="#000000"/><text fill="#000000" font-family="sans-serif" font-size="14" lengthAdjust="spacing" textLength="91" x="2391.5" y="524.3535">FollowsClause</text><line style="stroke:#181818;stroke-width:0.5;" x1="2363.5" x2="2484.5" y1="535.5" y2="535.5"/><line style="stroke:#181818;stroke-width:0.5;" x1="2363.5" x2="2484.5" y1="543.5" y2="543.5"/></g><!--MD5=[2b77caf0b91e6c68d9e1b176deed30f4]
class FollowsTClause--><g id="elem_FollowsTClause"><rect fill="#F1F1F1" height="48" id="FollowsTClause" rx="2.5" ry="2.5" style="stroke:#181818;stroke-width:0.5;" width="132" x="2521" y="503.5"/><ellipse cx="2536" cy="519.5" fill="#ADD1B2" rx="11" ry="11" style="stroke:#181818;stroke-width:1.0;"/><path d="M2538,516 Q2538.2031,515.5 2538.4375,515.25 Q2538.6719,515 2538.9375,515 Q2539.4063,515 2539.7031,515.2813 Q2540,515.5625 2540,516.2188 L2540,517.7813 Q2540,518.4375 2539.7188,518.7188 Q2539.4375,519 2539,519 Q2538.6094,519 2538.3594,518.8281 Q2538.1094,518.6563 2538,518.2031 Q2537.9531,517.8906 2537.7813,517.7188 Q2537.4688,517.3906 2536.9063,517.2031 Q2536.3438,517 2535.7813,517 Q2535.0781,517 2534.4844,517.2813 Q2533.9063,517.5625 2533.4531,518.1875 Q2533,518.8125 2533,519.6719 L2533,520.5938 Q2533,521.625 2533.8438,522.3125 Q2534.6875,523 2536.1875,523 Q2537.0781,523 2537.7031,522.7969 Q2538.0625,522.6875 2538.4688,522.3281 Q2538.7344,522.125 2538.875,522.0625 Q2539.0156,522 2539.1875,522 Q2539.5156,522 2539.75,522.2656 Q2540,522.5156 2540,522.875 Q2540,523.2188 2539.6563,523.625 Q2539.1563,524.2188 2538.3594,524.5469 Q2537.3125,525 2536.0313,525 Q2534.5313,525 2533.3281,524.4063 Q2532.3594,523.9375 2531.6719,522.9219 Q2531,521.9063 2531,520.7031 L2531,519.6094 Q2531,518.3594 2531.5938,517.2656 Q2532.2031,516.1719 2533.25,515.5938 Q2534.3125,515 2535.5,515 Q2536.2188,515 2536.8438,515.25 Q2537.4688,515.5 2538,516 Z " fill="#000000"/><text fill="#000000" font-family="sans-serif" font-size="14" lengthAdjust="spacing" textLength="100" x="2550" y="524.3535">FollowsTClause</text><line style="stroke:#181818;stroke-width:0.5;" x1="2522" x2="2652" y1="535.5" y2="535.5"/><line style="stroke:#181818;stroke-width:0.5;" x1="2522" x2="2652" y1="543.5" y2="543.5"/></g><!--MD5=[9775c7185e5033453744b927275b95e2]
class UsesClause--><g id="elem_UsesClause"><rect fill="#F1F1F1" height="48" id="UsesClause" rx="2.5" ry="2.5" style="stroke:#181818;stroke-width:0.5;" width="107" x="2688.5" y="503.5"/><ellipse cx="2703.5" cy="519.5" fill="#ADD1B2" rx="11" ry="11" style="stroke:#181818;stroke-width:1.0;"/><path d="M2705.5,516 Q2705.7031,515.5 2705.9375,515.25 Q2706.1719,515 2706.4375,515 Q2706.9063,515 2707.2031,515.2813 Q2707.5,515.5625 2707.5,516.2188 L2707.5,517.7813 Q2707.5,518.4375 2707.2188,518.7188 Q2706.9375,519 2706.5,519 Q2706.1094,519 2705.8594,518.8281 Q2705.6094,518.6563 2705.5,518.2031 Q2705.4531,517.8906 2705.2813,517.7188 Q2704.9688,517.3906 2704.4063,517.2031 Q2703.8438,517 2703.2813,517 Q2702.5781,517 2701.9844,517.2813 Q2701.4063,517.5625 2700.9531,518.1875 Q2700.5,518.8125 2700.5,519.6719 L2700.5,520.5938 Q2700.5,521.625 2701.3438,522.3125 Q2702.1875,523 2703.6875,523 Q2704.5781,523 2705.2031,522.7969 Q2705.5625,522.6875 2705.9688,522.3281 Q2706.2344,522.125 2706.375,522.0625 Q2706.5156,522 2706.6875,522 Q2707.0156,522 2707.25,522.2656 Q2707.5,522.5156 2707.5,522.875 Q2707.5,523.2188 2707.1563,523.625 Q2706.6563,524.2188 2705.8594,524.5469 Q2704.8125,525 2703.5313,525 Q2702.0313,525 2700.8281,524.4063 Q2699.8594,523.9375 2699.1719,522.9219 Q2698.5,521.9063 2698.5,520.7031 L2698.5,519.6094 Q2698.5,518.3594 2699.0938,517.2656 Q2699.7031,516.1719 2700.75,515.5938 Q2701.8125,515 2703,515 Q2703.7188,515 2704.3438,515.25 Q2704.9688,515.5 2705.5,516 Z " fill="#000000"/><text fill="#000000" font-family="sans-serif" font-size="14" lengthAdjust="spacing" textLength="75" x="2717.5" y="524.3535">UsesClause</text><line style="stroke:#181818;stroke-width:0.5;" x1="2689.5" x2="2794.5" y1="535.5" y2="535.5"/><line style="stroke:#181818;stroke-width:0.5;" x1="2689.5" x2="2794.5" y1="543.5" y2="543.5"/></g><!--MD5=[77702fbc156927d77434e4cb8bb37596]
class ModifiesClause--><g id="elem_ModifiesClause"><rect fill="#F1F1F1" height="48" id="ModifiesClause" rx="2.5" ry="2.5" style="stroke:#181818;stroke-width:0.5;" width="128" x="2831" y="503.5"/><ellipse cx="2846" cy="519.5" fill="#ADD1B2" rx="11" ry="11" style="stroke:#181818;stroke-width:1.0;"/><path d="M2848,516 Q2848.2031,515.5 2848.4375,515.25 Q2848.6719,515 2848.9375,515 Q2849.4063,515 2849.7031,515.2813 Q2850,515.5625 2850,516.2188 L2850,517.7813 Q2850,518.4375 2849.7188,518.7188 Q2849.4375,519 2849,519 Q2848.6094,519 2848.3594,518.8281 Q2848.1094,518.6563 2848,518.2031 Q2847.9531,517.8906 2847.7813,517.7188 Q2847.4688,517.3906 2846.9063,517.2031 Q2846.3438,517 2845.7813,517 Q2845.0781,517 2844.4844,517.2813 Q2843.9063,517.5625 2843.4531,518.1875 Q2843,518.8125 2843,519.6719 L2843,520.5938 Q2843,521.625 2843.8438,522.3125 Q2844.6875,523 2846.1875,523 Q2847.0781,523 2847.7031,522.7969 Q2848.0625,522.6875 2848.4688,522.3281 Q2848.7344,522.125 2848.875,522.0625 Q2849.0156,522 2849.1875,522 Q2849.5156,522 2849.75,522.2656 Q2850,522.5156 2850,522.875 Q2850,523.2188 2849.6563,523.625 Q2849.1563,524.2188 2848.3594,524.5469 Q2847.3125,525 2846.0313,525 Q2844.5313,525 2843.3281,524.4063 Q2842.3594,523.9375 2841.6719,522.9219 Q2841,521.9063 2841,520.7031 L2841,519.6094 Q2841,518.3594 2841.5938,517.2656 Q2842.2031,516.1719 2843.25,515.5938 Q2844.3125,515 2845.5,515 Q2846.2188,515 2846.8438,515.25 Q2847.4688,515.5 2848,516 Z " fill="#000000"/><text fill="#000000" font-family="sans-serif" font-size="14" lengthAdjust="spacing" textLength="96" x="2860" y="524.3535">ModifiesClause</text><line style="stroke:#181818;stroke-width:0.5;" x1="2832" x2="2958" y1="535.5" y2="535.5"/><line style="stroke:#181818;stroke-width:0.5;" x1="2832" x2="2958" y1="543.5" y2="543.5"/></g><!--MD5=[1710bba60ab70bd8698ccf32c40c7816]
class CallsClause--><g id="elem_CallsClause"><rect fill="#F1F1F1" height="48" id="CallsClause" rx="2.5" ry="2.5" style="stroke:#181818;stroke-width:0.5;" width="107" x="1149.5" y="503.5"/><ellipse cx="1164.5" cy="519.5" fill="#ADD1B2" rx="11" ry="11" style="stroke:#181818;stroke-width:1.0;"/><path d="M1166.5,516 Q1166.7031,515.5 1166.9375,515.25 Q1167.1719,515 1167.4375,515 Q1167.9063,515 1168.2031,515.2813 Q1168.5,515.5625 1168.5,516.2188 L1168.5,517.7813 Q1168.5,518.4375 1168.2188,518.7188 Q1167.9375,519 1167.5,519 Q1167.1094,519 1166.8594,518.8281 Q1166.6094,518.6563 1166.5,518.2031 Q1166.4531,517.8906 1166.2813,517.7188 Q1165.9688,517.3906 1165.4063,517.2031 Q1164.8438,517 1164.2813,517 Q1163.5781,517 1162.9844,517.2813 Q1162.4063,517.5625 1161.9531,518.1875 Q1161.5,518.8125 1161.5,519.6719 L1161.5,520.5938 Q1161.5,521.625 1162.3438,522.3125 Q1163.1875,523 1164.6875,523 Q1165.5781,523 1166.2031,522.7969 Q1166.5625,522.6875 1166.9688,522.3281 Q1167.2344,522.125 1167.375,522.0625 Q1167.5156,522 1167.6875,522 Q1168.0156,522 1168.25,522.2656 Q1168.5,522.5156 1168.5,522.875 Q1168.5,523.2188 1168.1563,523.625 Q1167.6563,524.2188 1166.8594,524.5469 Q1165.8125,525 1164.5313,525 Q1163.0313,525 1161.8281,524.4063 Q1160.8594,523.9375 1160.1719,522.9219 Q1159.5,521.9063 1159.5,520.7031 L1159.5,519.6094 Q1159.5,518.3594 1160.0938,517.2656 Q1160.7031,516.1719 1161.75,515.5938 Q1162.8125,515 1164,515 Q1164.7188,515 1165.3438,515.25 Q1165.9688,515.5 1166.5,516 Z " fill="#000000"/><text fill="#000000" font-family="sans-serif" font-size="14" lengthAdjust="spacing" textLength="75" x="1178.5" y="524.3535">CallsClause</text><line style="stroke:#181818;stroke-width:0.5;" x1="1150.5" x2="1255.5" y1="535.5" y2="535.5"/><line style="stroke:#181818;stroke-width:0.5;" x1="1150.5" x2="1255.5" y1="543.5" y2="543.5"/></g><!--MD5=[7cc73fb900d19afa9f90d3504f3d34bb]
class CallsTClause--><g id="elem_CallsTClause"><rect fill="#F1F1F1" height="48" id="CallsTClause" rx="2.5" ry="2.5" style="stroke:#181818;stroke-width:0.5;" width="116" x="1292" y="503.5"/><ellipse cx="1307" cy="519.5" fill="#ADD1B2" rx="11" ry="11" style="stroke:#181818;stroke-width:1.0;"/><path d="M1309,516 Q1309.2031,515.5 1309.4375,515.25 Q1309.6719,515 1309.9375,515 Q1310.4063,515 1310.7031,515.2813 Q1311,515.5625 1311,516.2188 L1311,517.7813 Q1311,518.4375 1310.7188,518.7188 Q1310.4375,519 1310,519 Q1309.6094,519 1309.3594,518.8281 Q1309.1094,518.6563 1309,518.2031 Q1308.9531,517.8906 1308.7813,517.7188 Q1308.4688,517.3906 1307.9063,517.2031 Q1307.3438,517 1306.7813,517 Q1306.0781,517 1305.4844,517.2813 Q1304.9063,517.5625 1304.4531,518.1875 Q1304,518.8125 1304,519.6719 L1304,520.5938 Q1304,521.625 1304.8438,522.3125 Q1305.6875,523 1307.1875,523 Q1308.0781,523 1308.7031,522.7969 Q1309.0625,522.6875 1309.4688,522.3281 Q1309.7344,522.125 1309.875,522.0625 Q1310.0156,522 1310.1875,522 Q1310.5156,522 1310.75,522.2656 Q1311,522.5156 1311,522.875 Q1311,523.2188 1310.6563,523.625 Q1310.1563,524.2188 1309.3594,524.5469 Q1308.3125,525 1307.0313,525 Q1305.5313,525 1304.3281,524.4063 Q1303.3594,523.9375 1302.6719,522.9219 Q1302,521.9063 1302,520.7031 L1302,519.6094 Q1302,518.3594 1302.5938,517.2656 Q1303.2031,516.1719 1304.25,515.5938 Q1305.3125,515 1306.5,515 Q1307.2188,515 1307.8438,515.25 Q1308.4688,515.5 1309,516 Z " fill="#000000"/><text fill="#000000" font-family="sans-serif" font-size="14" lengthAdjust="spacing" textLength="84" x="1321" y="524.3535">CallsTClause</text><line style="stroke:#181818;stroke-width:0.5;" x1="1293" x2="1407" y1="535.5" y2="535.5"/><line style="stroke:#181818;stroke-width:0.5;" x1="1293" x2="1407" y1="543.5" y2="543.5"/></g><!--MD5=[0f8566b619e495bcf12658b19771946a]
class NextClause--><g id="elem_NextClause"><rect fill="#F1F1F1" height="48" id="NextClause" rx="2.5" ry="2.5" style="stroke:#181818;stroke-width:0.5;" width="103" x="1443.5" y="503.5"/><ellipse cx="1458.5" cy="519.5" fill="#ADD1B2" rx="11" ry="11" style="stroke:#181818;stroke-width:1.0;"/><path d="M1460.5,516 Q1460.7031,515.5 1460.9375,515.25 Q1461.1719,515 1461.4375,515 Q1461.9063,515 1462.2031,515.2813 Q1462.5,515.5625 1462.5,516.2188 L1462.5,517.7813 Q1462.5,518.4375 1462.2188,518.7188 Q1461.9375,519 1461.5,519 Q1461.1094,519 1460.8594,518.8281 Q1460.6094,518.6563 1460.5,518.2031 Q1460.4531,517.8906 1460.2813,517.7188 Q1459.9688,517.3906 1459.4063,517.2031 Q1458.8438,517 1458.2813,517 Q1457.5781,517 1456.9844,517.2813 Q1456.4063,517.5625 1455.9531,518.1875 Q1455.5,518.8125 1455.5,519.6719 L1455.5,520.5938 Q1455.5,521.625 1456.3438,522.3125 Q1457.1875,523 1458.6875,523 Q1459.5781,523 1460.2031,522.7969 Q1460.5625,522.6875 1460.9688,522.3281 Q1461.2344,522.125 1461.375,522.0625 Q1461.5156,522 1461.6875,522 Q1462.0156,522 1462.25,522.2656 Q1462.5,522.5156 1462.5,522.875 Q1462.5,523.2188 1462.1563,523.625 Q1461.6563,524.2188 1460.8594,524.5469 Q1459.8125,525 1458.5313,525 Q1457.0313,525 1455.8281,524.4063 Q1454.8594,523.9375 1454.1719,522.9219 Q1453.5,521.9063 1453.5,520.7031 L1453.5,519.6094 Q1453.5,518.3594 1454.0938,517.2656 Q1454.7031,516.1719 1455.75,515.5938 Q1456.8125,515 1458,515 Q1458.7188,515 1459.3438,515.25 Q1459.9688,515.5 1460.5,516 Z " fill="#000000"/><text fill="#000000" font-family="sans-serif" font-size="14" lengthAdjust="spacing" textLength="71" x="1472.5" y="524.3535">NextClause</text><line style="stroke:#181818;stroke-width:0.5;" x1="1444.5" x2="1545.5" y1="535.5" y2="535.5"/><line style="stroke:#181818;stroke-width:0.5;" x1="1444.5" x2="1545.5" y1="543.5" y2="543.5"/></g><!--MD5=[2e792ea150905727eee6026bcf0553c2]
class NextTClause--><g id="elem_NextTClause"><rect fill="#F1F1F1" height="48" id="NextTClause" rx="2.5" ry="2.5" style="stroke:#181818;stroke-width:0.5;" width="112" x="1582" y="503.5"/><ellipse cx="1597" cy="519.5" fill="#ADD1B2" rx="11" ry="11" style="stroke:#181818;stroke-width:1.0;"/><path d="M1599,516 Q1599.2031,515.5 1599.4375,515.25 Q1599.6719,515 1599.9375,515 Q1600.4063,515 1600.7031,515.2813 Q1601,515.5625 1601,516.2188 L1601,517.7813 Q1601,518.4375 1600.7188,518.7188 Q1600.4375,519 1600,519 Q1599.6094,519 1599.3594,518.8281 Q1599.1094,518.6563 1599,518.2031 Q1598.9531,517.8906 1598.7813,517.7188 Q1598.4688,517.3906 1597.9063,517.2031 Q1597.3438,517 1596.7813,517 Q1596.0781,517 1595.4844,517.2813 Q1594.9063,517.5625 1594.4531,518.1875 Q1594,518.8125 1594,519.6719 L1594,520.5938 Q1594,521.625 1594.8438,522.3125 Q1595.6875,523 1597.1875,523 Q1598.0781,523 1598.7031,522.7969 Q1599.0625,522.6875 1599.4688,522.3281 Q1599.7344,522.125 1599.875,522.0625 Q1600.0156,522 1600.1875,522 Q1600.5156,522 1600.75,522.2656 Q1601,522.5156 1601,522.875 Q1601,523.2188 1600.6563,523.625 Q1600.1563,524.2188 1599.3594,524.5469 Q1598.3125,525 1597.0313,525 Q1595.5313,525 1594.3281,524.4063 Q1593.3594,523.9375 1592.6719,522.9219 Q1592,521.9063 1592,520.7031 L1592,519.6094 Q1592,518.3594 1592.5938,517.2656 Q1593.2031,516.1719 1594.25,515.5938 Q1595.3125,515 1596.5,515 Q1597.2188,515 1597.8438,515.25 Q1598.4688,515.5 1599,516 Z " fill="#000000"/><text fill="#000000" font-family="sans-serif" font-size="14" lengthAdjust="spacing" textLength="80" x="1611" y="524.3535">NextTClause</text><line style="stroke:#181818;stroke-width:0.5;" x1="1583" x2="1693" y1="535.5" y2="535.5"/><line style="stroke:#181818;stroke-width:0.5;" x1="1583" x2="1693" y1="543.5" y2="543.5"/></g><!--MD5=[8c80a1570e1b1c6e3aa98df7cf311960]
class AffectsClause--><g id="elem_AffectsClause"><rect fill="#F1F1F1" height="48" id="AffectsClause" rx="2.5" ry="2.5" style="stroke:#181818;stroke-width:0.5;" width="119" x="1729.5" y="503.5"/><ellipse cx="1744.5" cy="519.5" fill="#ADD1B2" rx="11" ry="11" style="stroke:#181818;stroke-width:1.0;"/><path d="M1746.5,516 Q1746.7031,515.5 1746.9375,515.25 Q1747.1719,515 1747.4375,515 Q1747.9063,515 1748.2031,515.2813 Q1748.5,515.5625 1748.5,516.2188 L1748.5,517.7813 Q1748.5,518.4375 1748.2188,518.7188 Q1747.9375,519 1747.5,519 Q1747.1094,519 1746.8594,518.8281 Q1746.6094,518.6563 1746.5,518.2031 Q1746.4531,517.8906 1746.2813,517.7188 Q1745.9688,517.3906 1745.4063,517.2031 Q1744.8438,517 1744.2813,517 Q1743.5781,517 1742.9844,517.2813 Q1742.4063,517.5625 1741.9531,518.1875 Q1741.5,518.8125 1741.5,519.6719 L1741.5,520.5938 Q1741.5,521.625 1742.3438,522.3125 Q1743.1875,523 1744.6875,523 Q1745.5781,523 1746.2031,522.7969 Q1746.5625,522.6875 1746.9688,522.3281 Q1747.2344,522.125 1747.375,522.0625 Q1747.5156,522 1747.6875,522 Q1748.0156,522 1748.25,522.2656 Q1748.5,522.5156 1748.5,522.875 Q1748.5,523.2188 1748.1563,523.625 Q1747.6563,524.2188 1746.8594,524.5469 Q1745.8125,525 1744.5313,525 Q1743.0313,525 1741.8281,524.4063 Q1740.8594,523.9375 1740.1719,522.9219 Q1739.5,521.9063 1739.5,520.7031 L1739.5,519.6094 Q1739.5,518.3594 1740.0938,517.2656 Q1740.7031,516.1719 1741.75,515.5938 Q1742.8125,515 1744,515 Q1744.7188,515 1745.3438,515.25 Q1745.9688,515.5 1746.5,516 Z " fill="#000000"/><text fill="#000000" font-family="sans-serif" font-size="14" lengthAdjust="spacing" textLength="87" x="1758.5" y="524.3535">AffectsClause</text><line style="stroke:#181818;stroke-width:0.5;" x1="1730.5" x2="1847.5" y1="535.5" y2="535.5"/><line style="stroke:#181818;stroke-width:0.5;" x1="1730.5" x2="1847.5" y1="543.5" y2="543.5"/></g><!--MD5=[0484d90d95d0001a2d7b59a50da9b079]
class AffectsTClause--><g id="elem_AffectsTClause"><rect fill="#F1F1F1" height="48" id="AffectsTClause" rx="2.5" ry="2.5" style="stroke:#181818;stroke-width:0.5;" width="128" x="1884" y="503.5"/><ellipse cx="1899" cy="519.5" fill="#ADD1B2" rx="11" ry="11" style="stroke:#181818;stroke-width:1.0;"/><path d="M1901,516 Q1901.2031,515.5 1901.4375,515.25 Q1901.6719,515 1901.9375,515 Q1902.4063,515 1902.7031,515.2813 Q1903,515.5625 1903,516.2188 L1903,517.7813 Q1903,518.4375 1902.7188,518.7188 Q1902.4375,519 1902,519 Q1901.6094,519 1901.3594,518.8281 Q1901.1094,518.6563 1901,518.2031 Q1900.9531,517.8906 1900.7813,517.7188 Q1900.4688,517.3906 1899.9063,517.2031 Q1899.3438,517 1898.7813,517 Q1898.0781,517 1897.4844,517.2813 Q1896.9063,517.5625 1896.4531,518.1875 Q1896,518.8125 1896,519.6719 L1896,520.5938 Q1896,521.625 1896.8438,522.3125 Q1897.6875,523 1899.1875,523 Q1900.0781,523 1900.7031,522.7969 Q1901.0625,522.6875 1901.4688,522.3281 Q1901.7344,522.125 1901.875,522.0625 Q1902.0156,522 1902.1875,522 Q1902.5156,522 1902.75,522.2656 Q1903,522.5156 1903,522.875 Q1903,523.2188 1902.6563,523.625 Q1902.1563,524.2188 1901.3594,524.5469 Q1900.3125,525 1899.0313,525 Q1897.5313,525 1896.3281,524.4063 Q1895.3594,523.9375 1894.6719,522.9219 Q1894,521.9063 1894,520.7031 L1894,519.6094 Q1894,518.3594 1894.5938,517.2656 Q1895.2031,516.1719 1896.25,515.5938 Q1897.3125,515 1898.5,515 Q1899.2188,515 1899.8438,515.25 Q1900.4688,515.5 1901,516 Z " fill="#000000"/><text fill="#000000" font-family="sans-serif" font-size="14" lengthAdjust="spacing" textLength="96" x="1913" y="524.3535">AffectsTClause</text><line style="stroke:#181818;stroke-width:0.5;" x1="1885" x2="2011" y1="535.5" y2="535.5"/><line style="stroke:#181818;stroke-width:0.5;" x1="1885" x2="2011" y1="543.5" y2="543.5"/></g><!--MD5=[301238c56ad7836ef04e00da92bb5d24]
class ExactExpression--><g id="elem_ExactExpression"><rect fill="#F1F1F1" height="48" id="ExactExpression" rx="2.5" ry="2.5" style="stroke:#181818;stroke-width:0.5;" width="135" x="138.5" y="642.5"/><ellipse cx="153.5" cy="658.5" fill="#ADD1B2" rx="11" ry="11" style="stroke:#181818;stroke-width:1.0;"/><path d="M155.5,655 Q155.7031,654.5 155.9375,654.25 Q156.1719,654 156.4375,654 Q156.9063,654 157.2031,654.2813 Q157.5,654.5625 157.5,655.2188 L157.5,656.7813 Q157.5,657.4375 157.2188,657.7188 Q156.9375,658 156.5,658 Q156.1094,658 155.8594,657.8281 Q155.6094,657.6563 155.5,657.2031 Q155.4531,656.8906 155.2813,656.7188 Q154.9688,656.3906 154.4063,656.2031 Q153.8438,656 153.2813,656 Q152.5781,656 151.9844,656.2813 Q151.4063,656.5625 150.9531,657.1875 Q150.5,657.8125 150.5,658.6719 L150.5,659.5938 Q150.5,660.625 151.3438,661.3125 Q152.1875,662 153.6875,662 Q154.5781,662 155.2031,661.7969 Q155.5625,661.6875 155.9688,661.3281 Q156.2344,661.125 156.375,661.0625 Q156.5156,661 156.6875,661 Q157.0156,661 157.25,661.2656 Q157.5,661.5156 157.5,661.875 Q157.5,662.2188 157.1563,662.625 Q156.6563,663.2188 155.8594,663.5469 Q154.8125,664 153.5313,664 Q152.0313,664 150.8281,663.4063 Q149.8594,662.9375 149.1719,661.9219 Q148.5,660.9063 148.5,659.7031 L148.5,658.6094 Q148.5,657.3594 149.0938,656.2656 Q149.7031,655.1719 150.75,654.5938 Q151.8125,654 153,654 Q153.7188,654 154.3438,654.25 Q154.9688,654.5 155.5,655 Z " fill="#000000"/><text fill="#000000" font-family="sans-serif" font-size="14" lengthAdjust="spacing" textLength="103" x="167.5" y="663.3535">ExactExpression</text><line style="stroke:#181818;stroke-width:0.5;" x1="139.5" x2="272.5" y1="674.5" y2="674.5"/><line style="stroke:#181818;stroke-width:0.5;" x1="139.5" x2="272.5" y1="682.5" y2="682.5"/></g><!--MD5=[32d12ad321483f991b295ab252105359]
class WildExpression--><g id="elem_WildExpression"><rect fill="#F1F1F1" height="48" id="WildExpression" rx="2.5" ry="2.5" style="stroke:#181818;stroke-width:0.5;" width="128" x="309" y="642.5"/><ellipse cx="324" cy="658.5" fill="#ADD1B2" rx="11" ry="11" style="stroke:#181818;stroke-width:1.0;"/><path d="M326,655 Q326.2031,654.5 326.4375,654.25 Q326.6719,654 326.9375,654 Q327.4063,654 327.7031,654.2813 Q328,654.5625 328,655.2188 L328,656.7813 Q328,657.4375 327.7188,657.7188 Q327.4375,658 327,658 Q326.6094,658 326.3594,657.8281 Q326.1094,657.6563 326,657.2031 Q325.9531,656.8906 325.7813,656.7188 Q325.4688,656.3906 324.9063,656.2031 Q324.3438,656 323.7813,656 Q323.0781,656 322.4844,656.2813 Q321.9063,656.5625 321.4531,657.1875 Q321,657.8125 321,658.6719 L321,659.5938 Q321,660.625 321.8438,661.3125 Q322.6875,662 324.1875,662 Q325.0781,662 325.7031,661.7969 Q326.0625,661.6875 326.4688,661.3281 Q326.7344,661.125 326.875,661.0625 Q327.0156,661 327.1875,661 Q327.5156,661 327.75,661.2656 Q328,661.5156 328,661.875 Q328,662.2188 327.6563,662.625 Q327.1563,663.2188 326.3594,663.5469 Q325.3125,664 324.0313,664 Q322.5313,664 321.3281,663.4063 Q320.3594,662.9375 319.6719,661.9219 Q319,660.9063 319,659.7031 L319,658.6094 Q319,657.3594 319.5938,656.2656 Q320.2031,655.1719 321.25,654.5938 Q322.3125,654 323.5,654 Q324.2188,654 324.8438,654.25 Q325.4688,654.5 326,655 Z " fill="#000000"/><text fill="#000000" font-family="sans-serif" font-size="14" lengthAdjust="spacing" textLength="96" x="338" y="663.3535">WildExpression</text><line style="stroke:#181818;stroke-width:0.5;" x1="310" x2="436" y1="674.5" y2="674.5"/><line style="stroke:#181818;stroke-width:0.5;" x1="310" x2="436" y1="682.5" y2="682.5"/></g><!--MD5=[32d3fc67bb9f8f7ab540ae0f01c81fcb]
reverse link Query to SelectCall--><g id="link_Query_SelectCall"><path codeLine="72" d="M247,131.49 C247,147.39 247,163.79 247,177.9 " fill="none" id="Query-backto-SelectCall" style="stroke:#181818;stroke-width:1.0;"/><polygon fill="#181818" points="247,118.3,243,124.3,247,130.3,251,124.3,247,118.3" style="stroke:#181818;stroke-width:1.0;"/></g><!--MD5=[7af37aca99b54e5d0a264a34ba57735b]
reverse link Query to QueryClause--><g id="link_Query_QueryClause"><path codeLine="73" d="M417.18,114.96 C495.79,138.73 586.39,166.12 653.66,186.46 " fill="none" id="Query-backto-QueryClause" style="stroke:#181818;stroke-width:1.0;"/><polygon fill="#181818" points="404.67,111.18,409.2576,116.7436,416.1577,114.6487,411.5701,109.0851,404.67,111.18" style="stroke:#181818;stroke-width:1.0;"/></g><!--MD5=[eb628a9ec3a97af9e3fd181da1cdb0c2]
reverse link Query to SynonymReference--><g id="link_Query_SynonymReference"><path codeLine="74" d="M160.3,126.41 C94.04,182.41 14,270.89 14,371.5 C14,371.5 14,371.5 14,528.5 C14,622.04 54.77,728 74.52,773.84 " fill="none" id="Query-backto-SynonymReference" style="stroke:#181818;stroke-width:1.0;"/><polygon fill="#181818" points="170.38,118.04,163.2091,118.8002,161.1527,125.7118,168.3236,124.9517,170.38,118.04" style="stroke:#181818;stroke-width:1.0;"/></g><!--MD5=[3df6db9fe0576be7b05b70d3e06c471d]
reverse link SelectCall to ElemSelect--><g id="link_SelectCall_ElemSelect"><path codeLine="76" d="M280.7,274.54 C294,296.66 308.78,321.23 320.13,340.11 " fill="none" id="SelectCall-backto-ElemSelect" style="stroke:#181818;stroke-width:1.0;"/><polygon fill="none" points="274.52,277.86,270.22,257.11,286.52,270.64,274.52,277.86" style="stroke:#181818;stroke-width:1.0;"/></g><!--MD5=[a7e320642c43ac1093e8f0c3aa516823]
reverse link SelectCall to BooleanSelect--><g id="link_SelectCall_BooleanSelect"><path codeLine="77" d="M204.98,272.99 C185.08,298.78 162.37,328.23 147,348.16 " fill="none" id="SelectCall-backto-BooleanSelect" style="stroke:#181818;stroke-width:1.0;"/><polygon fill="none" points="199.47,268.67,217.22,257.11,210.55,277.22,199.47,268.67" style="stroke:#181818;stroke-width:1.0;"/></g><!--MD5=[399f6dccf39e9d8dd5a0596af4a87885]
reverse link ElemSelect to ElemReference--><g id="link_ElemSelect_ElemReference"><path codeLine="79" d="M388.33,418.35 C410.1,438.9 435.55,463.98 457,488 C500.56,536.78 545.95,597.98 572.01,634.29 " fill="none" id="ElemSelect-backto-ElemReference" style="stroke:#181818;stroke-width:1.0;"/><polygon fill="none" points="383.44,423.36,373.59,404.6,392.99,413.13,383.44,423.36" style="stroke:#181818;stroke-width:1.0;"/></g><!--MD5=[063fb69b19e3c4e6a5f6b76ed33c6bad]
reverse link IWeight to QueryReference--><g id="link_IWeight_QueryReference"><path codeLine="81" d="M1069.31,429.87 C1056.93,451.9 1043.2,476.33 1032.64,495.11 " fill="none" id="IWeight-backto-QueryReference" style="stroke:#181818;stroke-width:1.0;stroke-dasharray:7.0,7.0;"/><polygon fill="none" points="1063.4,426.11,1079.3,412.11,1075.6,432.97,1063.4,426.11" style="stroke:#181818;stroke-width:1.0;"/></g><!--MD5=[2200b1543eeec8fd5c9dae286be2fc5b]
reverse link QueryReference to IdentReference--><g id="link_QueryReference_IdentReference"><path codeLine="82" d="M1070.91,572.02 C1100.93,595.39 1136.71,623.24 1161.37,642.43 " fill="none" id="QueryReference-backto-IdentReference" style="stroke:#181818;stroke-width:1.0;"/><polygon fill="none" points="1066.42,577.4,1054.94,559.59,1075.02,566.35,1066.42,577.4" style="stroke:#181818;stroke-width:1.0;"/></g><!--MD5=[f2805955f8fa8027ba224c05dedb97a4]
reverse link QueryReference to IntegerReference--><g id="link_QueryReference_IntegerReference"><path codeLine="83" d="M1118.03,566.66 C1165.42,584.51 1222.26,606.35 1273,627 C1284.85,631.82 1297.51,637.18 1309.45,642.32 " fill="none" id="QueryReference-backto-IntegerReference" style="stroke:#181818;stroke-width:1.0;"/><polygon fill="none" points="1115.28,573.11,1099.02,559.52,1120.21,560,1115.28,573.11" style="stroke:#181818;stroke-width:1.0;"/></g><!--MD5=[cb0c1c7c1f5c7de41e861fd5601e7101]
reverse link QueryReference to WildcardReference--><g id="link_QueryReference_WildcardReference"><path codeLine="84" d="M1015,579.89 C1015,601.33 1015,625.16 1015,642.22 " fill="none" id="QueryReference-backto-WildcardReference" style="stroke:#181818;stroke-width:1.0;"/><polygon fill="none" points="1008,579.59,1015,559.59,1022,579.59,1008,579.59" style="stroke:#181818;stroke-width:1.0;"/></g><!--MD5=[927d2ceff52ab631398439a67d796193]
reverse link QueryReference to ElemReference--><g id="link_QueryReference_ElemReference"><path codeLine="85" d="M901.5,565.86 C900.33,566.24 899.16,566.62 898,567 C828.52,589.69 750.03,615.11 690.22,634.45 " fill="none" id="QueryReference-backto-ElemReference" style="stroke:#181818;stroke-width:1.0;"/><polygon fill="none" points="899.64,559.1,920.82,559.53,903.99,572.41,899.64,559.1" style="stroke:#181818;stroke-width:1.0;"/></g><!--MD5=[0784c4471f347fe4a78792b56c267711]
reverse link ElemReference to SynonymReference--><g id="link_ElemReference_SynonymReference"><path codeLine="87" d="M462.66,703.73 C459.75,704.5 456.86,705.25 454,706 C353.92,732.1 238.05,760.35 163.26,778.34 " fill="none" id="ElemReference-backto-SynonymReference" style="stroke:#181818;stroke-width:1.0;"/><polygon fill="none" points="461,696.93,482.12,698.55,464.6,710.46,461,696.93" style="stroke:#181818;stroke-width:1.0;"/></g><!--MD5=[f0f0481b16207efd054ea4029e101707]
reverse link ElemReference to AttrReference--><g id="link_ElemReference_AttrReference"><path codeLine="88" d="M594,718.76 C594,734.66 594,751.69 594,765.79 " fill="none" id="ElemReference-backto-AttrReference" style="stroke:#181818;stroke-width:1.0;"/><polygon fill="none" points="587,718.52,594,698.52,601,718.52,587,718.52" style="stroke:#181818;stroke-width:1.0;"/></g><!--MD5=[d7e3503034ce0890fb15f7dc00b07c34]
reverse link ElemReference to QuerySynonym--><g id="link_ElemReference_QuerySynonym"><path codeLine="89" d="M728.57,666.5 C735.83,666.5 743.09,666.5 750.35,666.5 " fill="none" id="ElemReference-backto-QuerySynonym" style="stroke:#181818;stroke-width:1.0;"/><polygon fill="none" points="715.51,666.5,721.51,670.5,727.51,666.5,721.51,662.5,715.51,666.5" style="stroke:#181818;stroke-width:1.0;"/></g><!--MD5=[b61316972b02eceb10671fd286e5e282]
reverse link ICheckSemantics to QueryClause--><g id="link_ICheckSemantics_QueryClause"><path codeLine="91" d="M753,115.02 C753,138.39 753,165.26 753,185.47 " fill="none" id="ICheckSemantics-backto-QueryClause" style="stroke:#181818;stroke-width:1.0;stroke-dasharray:7.0,7.0;"/><polygon fill="none" points="746,114.83,753,94.83,760,114.83,746,114.83" style="stroke:#181818;stroke-width:1.0;"/></g><!--MD5=[fe80b7213a8081d79de0c5b9c3c736c1]
reverse link QueryClause to SuchThatClause--><g id="link_QueryClause_SuchThatClause"><path codeLine="93" d="M872.4,234.88 C1093.49,265.22 1562.76,329.62 1768.18,357.8 " fill="none" id="QueryClause-backto-SuchThatClause" style="stroke:#181818;stroke-width:1.0;"/><polygon fill="none" points="871.3,241.8,852.44,232.14,873.2,227.93,871.3,241.8" style="stroke:#181818;stroke-width:1.0;"/></g><!--MD5=[4022df4d03ddb01d7bc91900a0718e5d]
reverse link QueryClause to PatternClause--><g id="link_QueryClause_PatternClause"><path codeLine="94" d="M712.53,265.05 C698.29,281.44 682.15,300.01 667.38,316.99 " fill="none" id="QueryClause-backto-PatternClause" style="stroke:#181818;stroke-width:1.0;"/><polygon fill="none" points="707.36,260.33,725.76,249.83,717.93,269.52,707.36,260.33" style="stroke:#181818;stroke-width:1.0;"/></g><!--MD5=[df2fba50009bb246032b347f87efec7a]
reverse link QueryClause to WithClause--><g id="link_QueryClause_WithClause"><path codeLine="95" d="M793.68,264.95 C810.29,283.92 829.48,305.82 846.11,324.81 " fill="none" id="QueryClause-backto-WithClause" style="stroke:#181818;stroke-width:1.0;"/><polygon fill="none" points="788.35,269.49,780.44,249.83,798.88,260.26,788.35,269.49" style="stroke:#181818;stroke-width:1.0;"/></g><!--MD5=[8f3be97dca2b0ad335c749ac3fd9eeb6]
reverse link SuchThatClause to QueryReference--><g id="link_SuchThatClause_QueryReference"><path codeLine="97" d="M1755.21,385.24 C1609.81,401.69 1349.78,435.6 1132,488 C1122.96,490.18 1113.61,492.72 1104.32,495.46 " fill="none" id="SuchThatClause-backto-QueryReference" style="stroke:#181818;stroke-width:1.0;"/><polygon fill="none" points="1768.48,383.75,1762.073,380.4409,1756.5542,385.0824,1762.9612,388.3915,1768.48,383.75" style="stroke:#181818;stroke-width:1.0;"/></g><!--MD5=[31e4b0eec460ec3236896f1d379e526c]
reverse link SuchThatClause to ParentClause--><g id="link_SuchThatClause_ParentClause"><path codeLine="98" d="M1957.4,430.97 C1996.57,456.15 2040.3,484.26 2070.12,503.43 " fill="none" id="SuchThatClause-backto-ParentClause" style="stroke:#181818;stroke-width:1.0;"/><polygon fill="none" points="1953.42,436.73,1940.38,420.03,1960.99,424.96,1953.42,436.73" style="stroke:#181818;stroke-width:1.0;"/></g><!--MD5=[da61ecbb7b94b67942d3b70ed2f59b0e]
reverse link SuchThatClause to ParentTClause--><g id="link_SuchThatClause_ParentTClause"><path codeLine="99" d="M1986.75,413.66 C2046.19,434.52 2118.96,461.21 2183,488 C2194.2,492.69 2206.1,498.09 2217.23,503.34 " fill="none" id="SuchThatClause-backto-ParentTClause" style="stroke:#181818;stroke-width:1.0;"/><polygon fill="none" points="1984.11,420.16,1967.54,406.96,1988.73,406.94,1984.11,420.16" style="stroke:#181818;stroke-width:1.0;"/></g><!--MD5=[4a4e5c71e47b1225b433c3a21e9d0989]
reverse link SuchThatClause to FollowsClause--><g id="link_SuchThatClause_FollowsClause"><path codeLine="100" d="M1987.46,394.66 C2085.23,413.76 2226.26,445.39 2345,488 C2356.92,492.28 2369.41,497.83 2380.86,503.38 " fill="none" id="SuchThatClause-backto-FollowsClause" style="stroke:#181818;stroke-width:1.0;"/><polygon fill="none" points="1985.9,401.49,1967.58,390.84,1988.54,387.74,1985.9,401.49" style="stroke:#181818;stroke-width:1.0;"/></g><!--MD5=[1adaf152a32a67459606e55297dbc5c6]
reverse link SuchThatClause to FollowsTClause--><g id="link_SuchThatClause_FollowsTClause"><path codeLine="101" d="M1987.79,386 C2117.08,401.57 2327.99,433.08 2503,488 C2516.01,492.08 2529.64,497.7 2542.05,503.38 " fill="none" id="SuchThatClause-backto-FollowsTClause" style="stroke:#181818;stroke-width:1.0;"/><polygon fill="none" points="1986.8,392.93,1967.75,383.63,1988.44,379.02,1986.8,392.93" style="stroke:#181818;stroke-width:1.0;"/></g><!--MD5=[94b4fdb56852678e85d938e03756a15e]
reverse link SuchThatClause to UsesClause--><g id="link_SuchThatClause_UsesClause"><path codeLine="102" d="M1987.82,377.39 C2147.44,385.53 2436.92,410.62 2671,488 C2682.58,491.83 2694.49,497.5 2705.17,503.32 " fill="none" id="SuchThatClause-backto-UsesClause" style="stroke:#181818;stroke-width:1.0;"/><polygon fill="none" points="1987.23,384.37,1967.59,376.42,1987.91,370.39,1987.23,384.37" style="stroke:#181818;stroke-width:1.0;"/></g><!--MD5=[3d893a07056061336d8eebcc07faa9cc]
reverse link SuchThatClause to ModifiesClause--><g id="link_SuchThatClause_ModifiesClause"><path codeLine="103" d="M1987.89,375.89 C2169.7,382.21 2524.51,405.12 2813,488 C2826.3,491.82 2840.15,497.57 2852.59,503.46 " fill="none" id="SuchThatClause-backto-ModifiesClause" style="stroke:#181818;stroke-width:1.0;"/><polygon fill="none" points="1987.42,382.88,1967.66,375.23,1987.87,368.89,1987.42,382.88" style="stroke:#181818;stroke-width:1.0;"/></g><!--MD5=[cb6f1b1f4b6022684d835be0fdc03ea0]
reverse link SuchThatClause to CallsClause--><g id="link_SuchThatClause_CallsClause"><path codeLine="104" d="M1748.25,385.92 C1626.46,401.01 1433.62,431.73 1275,488 C1263.64,492.03 1251.89,497.63 1241.26,503.31 " fill="none" id="SuchThatClause-backto-CallsClause" style="stroke:#181818;stroke-width:1.0;"/><polygon fill="none" points="1747.58,378.95,1768.28,383.5,1749.26,392.85,1747.58,378.95" style="stroke:#181818;stroke-width:1.0;"/></g><!--MD5=[d146cedf31376c187f38ee7ce14dbc58]
reverse link SuchThatClause to CallsTClause--><g id="link_SuchThatClause_CallsTClause"><path codeLine="105" d="M1748.42,397.15 C1658.24,416.73 1532.34,447.83 1426,488 C1414.52,492.34 1402.49,497.91 1391.48,503.46 " fill="none" id="SuchThatClause-backto-CallsTClause" style="stroke:#181818;stroke-width:1.0;"/><polygon fill="none" points="1747.22,390.25,1768.24,392.91,1750.15,403.94,1747.22,390.25" style="stroke:#181818;stroke-width:1.0;"/></g><!--MD5=[59201f887bbd0d56b5e1a731704040e3]
reverse link SuchThatClause to NextClause--><g id="link_SuchThatClause_NextClause"><path codeLine="106" d="M1749.2,413.98 C1692.64,434.37 1624.51,460.56 1565,488 C1555.05,492.59 1544.57,498.01 1534.85,503.32 " fill="none" id="SuchThatClause-backto-NextClause" style="stroke:#181818;stroke-width:1.0;"/><polygon fill="none" points="1747.11,407.3,1768.3,407.16,1751.82,420.48,1747.11,407.3" style="stroke:#181818;stroke-width:1.0;"/></g><!--MD5=[74f6d7dc64721a8866c91d5557473002]
reverse link SuchThatClause to NextTClause--><g id="link_SuchThatClause_NextTClause"><path codeLine="107" d="M1781.35,431.14 C1743.57,456.28 1701.43,484.3 1672.68,503.43 " fill="none" id="SuchThatClause-backto-NextTClause" style="stroke:#181818;stroke-width:1.0;"/><polygon fill="none" points="1777.53,425.28,1798.06,420.03,1785.28,436.93,1777.53,425.28" style="stroke:#181818;stroke-width:1.0;"/></g><!--MD5=[0375b37e6f7e2b5a7e937ba2eb0e2267]
reverse link SuchThatClause to AffectsClause--><g id="link_SuchThatClause_AffectsClause"><path codeLine="108" d="M1834.52,438.35 C1822.55,461.53 1809.82,486.18 1800.88,503.5 " fill="none" id="SuchThatClause-backto-AffectsClause" style="stroke:#181818;stroke-width:1.0;"/><polygon fill="none" points="1828.47,434.8,1843.87,420.24,1840.91,441.22,1828.47,434.8" style="stroke:#181818;stroke-width:1.0;"/></g><!--MD5=[48b17d134ec89e6fd3178a12a19a469d]
reverse link SuchThatClause to AffectsTClause--><g id="link_SuchThatClause_AffectsTClause"><path codeLine="109" d="M1901.73,438 C1913.9,461.29 1926.87,486.09 1935.97,503.5 " fill="none" id="SuchThatClause-backto-AffectsTClause" style="stroke:#181818;stroke-width:1.0;"/><polygon fill="none" points="1895.5,441.2,1892.44,420.24,1907.91,434.72,1895.5,441.2" style="stroke:#181818;stroke-width:1.0;"/></g><!--MD5=[dd232cec0768ec0ee36724ffc52d1e01]
reverse link PatternClause to QueryReference--><g id="link_PatternClause_QueryReference"><path codeLine="111" d="M764.26,429.38 C821.83,451.68 885.92,476.5 934.9,495.47 " fill="none" id="PatternClause-backto-QueryReference" style="stroke:#181818;stroke-width:1.0;"/><polygon fill="none" points="752.08,424.66,756.2353,430.5535,763.2737,428.9845,759.1183,423.091,752.08,424.66" style="stroke:#181818;stroke-width:1.0;"/></g><!--MD5=[ee3e4e0ed2cfa75d6319950a2de14de9]
reverse link PatternClause to SynonymReference--><g id="link_PatternClause_SynonymReference"><path codeLine="112" d="M475.56,426.07 C473.69,426.72 471.84,427.36 470,428 C301.33,486.58 213.43,474.23 121,627 C92.73,673.72 86.44,739.36 85.18,773.81 " fill="none" id="PatternClause-backto-SynonymReference" style="stroke:#181818;stroke-width:1.0;"/><polygon fill="none" points="487.97,421.71,480.9848,419.9192,476.6451,425.6783,483.6303,427.4691,487.97,421.71" style="stroke:#181818;stroke-width:1.0;"/></g><!--MD5=[fcccac97120519a2ef71f70f07e23d8f]
reverse link PatternClause to ExpressionSpec--><g id="link_PatternClause_ExpressionSpec"><path codeLine="113" d="M520.54,435.11 C491.82,452.9 461.29,471.81 435.5,487.79 " fill="none" id="PatternClause-backto-ExpressionSpec" style="stroke:#181818;stroke-width:1.0;"/><polygon fill="#181818" points="531.87,428.09,524.6629,427.8503,521.6696,434.4108,528.8767,434.6505,531.87,428.09" style="stroke:#181818;stroke-width:1.0;"/></g><!--MD5=[da30eca766605c7978bc407dd784e8f7]
reverse link ExpressionSpec to ExactExpression--><g id="link_ExpressionSpec_ExactExpression"><path codeLine="115" d="M315.74,575.47 C288.26,598.02 256.56,624.02 234.32,642.27 " fill="none" id="ExpressionSpec-backto-ExactExpression" style="stroke:#181818;stroke-width:1.0;"/><polygon fill="none" points="326.04,567.03,318.8639,567.7397,316.759,574.6367,323.9351,573.927,326.04,567.03" style="stroke:#181818;stroke-width:1.0;"/></g><!--MD5=[56a5e0c09b7119266f431e5592f89afe]
reverse link ExpressionSpec to WildExpression--><g id="link_ExpressionSpec_WildExpression"><path codeLine="116" d="M373,580.29 C373,601.64 373,625.31 373,642.27 " fill="none" id="ExpressionSpec-backto-WildExpression" style="stroke:#181818;stroke-width:1.0;"/><polygon fill="none" points="373,567.03,369,573.03,373,579.03,377,573.03,373,567.03" style="stroke:#181818;stroke-width:1.0;"/></g><!--MD5=[5a2b568dbcd01231c409cc12a52ef08b]
reverse link WithClause to QueryReference--><g id="link_WithClause_QueryReference"><path codeLine="118" d="M934.62,430.42 C952.91,452.28 973.11,476.42 988.68,495.04 " fill="none" id="WithClause-backto-QueryReference" style="stroke:#181818;stroke-width:1.0;"/><polygon fill="none" points="926.1,420.24,926.8823,427.4085,933.8004,429.4435,933.018,422.275,926.1,420.24" style="stroke:#181818;stroke-width:1.0;"/></g><!--MD5=[569d32865ca153c35055626ea6ee3ff3]
reverse link WithClause to Comparator--><g id="link_WithClause_Comparator"><path codeLine="119" d="M863.85,432.53 C854.13,457.33 843.38,484.72 836.02,503.5 " fill="none" id="WithClause-backto-Comparator" style="stroke:#181818;stroke-width:1.0;"/><polygon fill="#181818" points="868.67,420.24,862.7562,424.3664,864.2907,431.4124,870.2045,427.2859,868.67,420.24" style="stroke:#181818;stroke-width:1.0;"/></g><!--MD5=[902cfc698ce8894f9eac89dfc6484c2d]
@startuml

class Query {
    SynonymReference[] getSynonymDeclarations()
    SelectCall getQueryCall()
    QueryClause[] getClauses()
    String toString()
}

interface ICheckSemantics {
  bool isSemanticallyCorrect();
}

interface IWeight {
    void setWeight(double)
    double GetWeight()
}

class QuerySynonym {
    String GetName()
    String GetEntityType()
}

abstract SelectCall {
    SelectType GetSelectType()
    String ToString()
}
class ElemSelect {
    ElemReference[] GetReferences()
}
class BooleanSelect

abstract QueryReference{
    ReferenceType getRefType()
}
class WildcardReference
class IdentReference
class IntegerReference
abstract ElemReference {
    virtual QuerySynonym getSynonym()
}
class SynonymReference
class AttrReference  {
    AttributeType getAttribute()
}

abstract class QueryClause {
    ClauseType getClauseType()
}
abstract class SuchThatClause {
    RsType getSuchThatType()
    QueryReference getFirst()
    QueryReference getSecond()
}
class WithClause {
    Comparator getComparator()
    QueryReference getFirst()
    QueryReference getSecond()
}
class Comparator
class PatternClause  {
    SynonymReference getStmtRef()
    QueryReference getEntRef()
    ExpressionSpec getFirstExpression()
    ExpressionSpec getSecondExpression()
}

abstract ExpressionSpec {
    bool isWild()
    String toString()
}

Query *-down- SelectCall
Query *-down- QueryClause
Query *-down- SynonymReference

SelectCall <|-down- ElemSelect
SelectCall <|-down- BooleanSelect

ElemSelect <|-down- ElemReference

IWeight <|.down. QueryReference
QueryReference <|-down- IdentReference
QueryReference <|-down- IntegerReference
QueryReference <|-down- WildcardReference
QueryReference <|-down- ElemReference

ElemReference <|-down- SynonymReference
ElemReference <|-down- AttrReference
ElemReference o-right- QuerySynonym

ICheckSemantics <|.down. QueryClause

QueryClause <|-down- SuchThatClause
QueryClause <|-down- PatternClause
QueryClause <|-down- WithClause

SuchThatClause o-down- QueryReference
SuchThatClause <|-down- ParentClause
SuchThatClause <|-down- ParentTClause
SuchThatClause <|-down- FollowsClause
SuchThatClause <|-down- FollowsTClause
SuchThatClause <|-down- UsesClause
SuchThatClause <|-down- ModifiesClause
SuchThatClause <|-down- CallsClause
SuchThatClause <|-down- CallsTClause
SuchThatClause <|-down- NextClause
SuchThatClause <|-down- NextTClause
SuchThatClause <|-down- AffectsClause
SuchThatClause <|-down- AffectsTClause

PatternClause o-down- QueryReference
PatternClause o-down- SynonymReference
PatternClause *-down- ExpressionSpec

ExpressionSpec o-down- ExactExpression
ExpressionSpec o-down- WildExpression

WithClause o-down- QueryReference
WithClause *-down- Comparator
@enduml

PlantUML version 1.2022.7(Tue Aug 23 01:01:30 SGT 2022)
(GPL source distribution)
Java Runtime: OpenJDK Runtime Environment
JVM: OpenJDK 64-Bit Server VM
Default Encoding: Cp1252
Language: en
Country: GB
--></g></svg>