<?xml version="1.0" encoding="UTF-8" standalone="no"?><svg xmlns="http://www.w3.org/2000/svg" xmlns:xlink="http://www.w3.org/1999/xlink" contentStyleType="text/css" height="682px" preserveAspectRatio="none" style="width:1215px;height:682px;background:#FFFFFF;" version="1.1" viewBox="0 0 1215 682" width="1215px" zoomAndPan="magnify"><defs/><g><!--MD5=[91221848cc6fc2b51471cfb300e81a0a]
class Query--><g id="elem_Query"><rect codeLine="2" fill="#F1F1F1" height="110.5625" id="Query" rx="2.5" ry="2.5" style="stroke:#181818;stroke-width:0.5;" width="315" x="610" y="7"/><ellipse cx="743.75" cy="23" fill="#ADD1B2" rx="11" ry="11" style="stroke:#181818;stroke-width:1.0;"/><path d="M745.75,19.5 Q745.9531,19 746.1875,18.75 Q746.4219,18.5 746.6875,18.5 Q747.1563,18.5 747.4531,18.7813 Q747.75,19.0625 747.75,19.7188 L747.75,21.2813 Q747.75,21.9375 747.4688,22.2188 Q747.1875,22.5 746.75,22.5 Q746.3594,22.5 746.1094,22.3281 Q745.8594,22.1563 745.75,21.7031 Q745.7031,21.3906 745.5313,21.2188 Q745.2188,20.8906 744.6563,20.7031 Q744.0938,20.5 743.5313,20.5 Q742.8281,20.5 742.2344,20.7813 Q741.6563,21.0625 741.2031,21.6875 Q740.75,22.3125 740.75,23.1719 L740.75,24.0938 Q740.75,25.125 741.5938,25.8125 Q742.4375,26.5 743.9375,26.5 Q744.8281,26.5 745.4531,26.2969 Q745.8125,26.1875 746.2188,25.8281 Q746.4844,25.625 746.625,25.5625 Q746.7656,25.5 746.9375,25.5 Q747.2656,25.5 747.5,25.7656 Q747.75,26.0156 747.75,26.375 Q747.75,26.7188 747.4063,27.125 Q746.9063,27.7188 746.1094,28.0469 Q745.0625,28.5 743.7813,28.5 Q742.2813,28.5 741.0781,27.9063 Q740.1094,27.4375 739.4219,26.4219 Q738.75,25.4063 738.75,24.2031 L738.75,23.1094 Q738.75,21.8594 739.3438,20.7656 Q739.9531,19.6719 741,19.0938 Q742.0625,18.5 743.25,18.5 Q743.9688,18.5 744.5938,18.75 Q745.2188,19 745.75,19.5 Z " fill="#000000"/><text fill="#000000" font-family="sans-serif" font-size="14" lengthAdjust="spacing" textLength="39" x="764.25" y="27.8535">Query</text><line style="stroke:#181818;stroke-width:0.5;" x1="611" x2="924" y1="39" y2="39"/><line style="stroke:#181818;stroke-width:0.5;" x1="611" x2="924" y1="47" y2="47"/><text fill="#000000" font-family="sans-serif" font-size="14" lengthAdjust="spacing" textLength="303" x="616" y="63.6738">SynonymReference[] getSynonymDeclarations()</text><text fill="#000000" font-family="sans-serif" font-size="14" lengthAdjust="spacing" textLength="160" x="616" y="79.3145">SelectCall getQueryCall()</text><text fill="#000000" font-family="sans-serif" font-size="14" lengthAdjust="spacing" textLength="176" x="616" y="94.9551">QueryClause[] getClauses()</text><text fill="#000000" font-family="sans-serif" font-size="14" lengthAdjust="spacing" textLength="100" x="616" y="110.5957">String toString()</text></g><!--MD5=[c01beca59ce16c85f60ff7094427726b]
class ICheckSemantics--><g id="elem_ICheckSemantics"><rect codeLine="9" fill="#F1F1F1" height="63.6406" id="ICheckSemantics" rx="2.5" ry="2.5" style="stroke:#181818;stroke-width:0.5;" width="193" x="902" y="178"/><ellipse cx="939.95" cy="194" fill="#B4A7E5" rx="11" ry="11" style="stroke:#181818;stroke-width:1.0;"/><path d="M940.95,191 L940.95,197 L942.95,197 L943.4344,197 L943.95,197.625 L943.95,198 L943.95,198.375 L943.4344,199 L942.95,199 L936.95,199 L936.4656,199 L935.95,198.375 L935.95,198 L935.95,197.625 L936.4656,197 L936.95,197 L938.95,197 L938.95,191 L936.95,191 L936.4656,191 L935.95,190.375 L935.95,190 L935.95,189.625 L936.4656,189 L936.95,189 L942.95,189 L943.4344,189 L943.95,189.625 L943.95,190 L943.95,190.375 L943.4344,191 L942.95,191 L940.95,191 Z " fill="#000000"/><text fill="#000000" font-family="sans-serif" font-size="14" font-style="italic" lengthAdjust="spacing" textLength="110" x="959.05" y="198.8535">ICheckSemantics</text><line style="stroke:#181818;stroke-width:0.5;" x1="903" x2="1094" y1="210" y2="210"/><line style="stroke:#181818;stroke-width:0.5;" x1="903" x2="1094" y1="218" y2="218"/><text fill="#000000" font-family="sans-serif" font-size="14" lengthAdjust="spacing" textLength="181" x="908" y="234.6738">bool isSemanticallyCorrect();</text></g><!--MD5=[9b8d3f0fc828189484cd5f8157754b9e]
class IWeight--><g id="elem_IWeight"><rect codeLine="13" fill="#F1F1F1" height="79.2813" id="IWeight" rx="2.5" ry="2.5" style="stroke:#181818;stroke-width:0.5;" width="158" x="175.5" y="318"/><ellipse cx="225.75" cy="334" fill="#B4A7E5" rx="11" ry="11" style="stroke:#181818;stroke-width:1.0;"/><path d="M226.75,331 L226.75,337 L228.75,337 L229.2344,337 L229.75,337.625 L229.75,338 L229.75,338.375 L229.2344,339 L228.75,339 L222.75,339 L222.2656,339 L221.75,338.375 L221.75,338 L221.75,337.625 L222.2656,337 L222.75,337 L224.75,337 L224.75,331 L222.75,331 L222.2656,331 L221.75,330.375 L221.75,330 L221.75,329.625 L222.2656,329 L222.75,329 L228.75,329 L229.2344,329 L229.75,329.625 L229.75,330 L229.75,330.375 L229.2344,331 L228.75,331 L226.75,331 Z " fill="#000000"/><text fill="#000000" font-family="sans-serif" font-size="14" font-style="italic" lengthAdjust="spacing" textLength="49" x="246.25" y="338.8535">IWeight</text><line style="stroke:#181818;stroke-width:0.5;" x1="176.5" x2="332.5" y1="350" y2="350"/><line style="stroke:#181818;stroke-width:0.5;" x1="176.5" x2="332.5" y1="358" y2="358"/><text fill="#000000" font-family="sans-serif" font-size="14" lengthAdjust="spacing" textLength="146" x="181.5" y="374.6738">void setWeight(double)</text><text fill="#000000" font-family="sans-serif" font-size="14" lengthAdjust="spacing" textLength="124" x="181.5" y="390.3145">double GetWeight()</text></g><!--MD5=[630a236062e3aa47000d5bc763a76de6]
class QuerySynonym--><g id="elem_QuerySynonym"><rect codeLine="18" fill="#F1F1F1" height="79.2813" id="QuerySynonym" rx="2.5" ry="2.5" style="stroke:#181818;stroke-width:0.5;" width="153" x="913" y="473"/><ellipse cx="938.8" cy="489" fill="#ADD1B2" rx="11" ry="11" style="stroke:#181818;stroke-width:1.0;"/><path d="M940.8,485.5 Q941.0031,485 941.2375,484.75 Q941.4719,484.5 941.7375,484.5 Q942.2063,484.5 942.5031,484.7813 Q942.8,485.0625 942.8,485.7188 L942.8,487.2813 Q942.8,487.9375 942.5188,488.2188 Q942.2375,488.5 941.8,488.5 Q941.4094,488.5 941.1594,488.3281 Q940.9094,488.1563 940.8,487.7031 Q940.7531,487.3906 940.5813,487.2188 Q940.2688,486.8906 939.7063,486.7031 Q939.1438,486.5 938.5813,486.5 Q937.8781,486.5 937.2844,486.7813 Q936.7063,487.0625 936.2531,487.6875 Q935.8,488.3125 935.8,489.1719 L935.8,490.0938 Q935.8,491.125 936.6438,491.8125 Q937.4875,492.5 938.9875,492.5 Q939.8781,492.5 940.5031,492.2969 Q940.8625,492.1875 941.2688,491.8281 Q941.5344,491.625 941.675,491.5625 Q941.8156,491.5 941.9875,491.5 Q942.3156,491.5 942.55,491.7656 Q942.8,492.0156 942.8,492.375 Q942.8,492.7188 942.4563,493.125 Q941.9563,493.7188 941.1594,494.0469 Q940.1125,494.5 938.8313,494.5 Q937.3313,494.5 936.1281,493.9063 Q935.1594,493.4375 934.4719,492.4219 Q933.8,491.4063 933.8,490.2031 L933.8,489.1094 Q933.8,487.8594 934.3938,486.7656 Q935.0031,485.6719 936.05,485.0938 Q937.1125,484.5 938.3,484.5 Q939.0188,484.5 939.6438,484.75 Q940.2688,485 940.8,485.5 Z " fill="#000000"/><text fill="#000000" font-family="sans-serif" font-size="14" lengthAdjust="spacing" textLength="97" x="955.2" y="493.8535">QuerySynonym</text><line style="stroke:#181818;stroke-width:0.5;" x1="914" x2="1065" y1="505" y2="505"/><line style="stroke:#181818;stroke-width:0.5;" x1="914" x2="1065" y1="513" y2="513"/><text fill="#000000" font-family="sans-serif" font-size="14" lengthAdjust="spacing" textLength="110" x="919" y="529.6738">String GetName()</text><text fill="#000000" font-family="sans-serif" font-size="14" lengthAdjust="spacing" textLength="141" x="919" y="545.3145">String GetEntityType()</text></g><!--MD5=[ff8f6c442b59461923cb777b2a46bfa9]
class SelectCall--><g id="elem_SelectCall"><rect codeLine="23" fill="#F1F1F1" height="79.2813" id="SelectCall" rx="2.5" ry="2.5" style="stroke:#181818;stroke-width:0.5;" width="191" x="384" y="23"/><ellipse cx="443.75" cy="39" fill="#A9DCDF" rx="11" ry="11" style="stroke:#181818;stroke-width:1.0;"/><path d="M445.5,40.5 L442.2031,40.5 L441.7656,41.5 L441.7656,41.5 L442.2344,41.5 L442.75,42.125 L442.75,42.5 L442.75,42.875 L442.2344,43.5 L441.7656,43.5 L439.875,43.5 L439.2656,43.5 L438.75,42.875 L438.75,42.5 L438.75,42.125 L439.2656,41.5 L439.875,41.5 L442.1875,35.5 L441.3125,35.5 L440.2656,35.5 L439.75,34.875 L439.75,34.5 L439.75,34.125 L440.2656,33.5 L441.3125,33.5 L444.9844,33.5 L447.6719,41.5 L448.2344,41.5 L448.2344,41.5 L448.75,42.125 L448.75,42.5 L448.75,42.875 L448.2344,43.5 L447.6719,43.5 L445.7813,43.5 L445.2656,43.5 L444.75,42.875 L444.75,42.5 L444.75,42.125 L445.2656,41.5 L445.7813,41.5 L445.7813,41.5 L445.5,40.5 Z M444.9531,38.5 L443.75,34.9219 L442.7188,38.5 L444.9531,38.5 Z " fill="#000000"/><text fill="#000000" font-family="sans-serif" font-size="14" font-style="italic" lengthAdjust="spacing" textLength="63" x="464.25" y="43.8535">SelectCall</text><line style="stroke:#181818;stroke-width:0.5;" x1="385" x2="574" y1="55" y2="55"/><line style="stroke:#181818;stroke-width:0.5;" x1="385" x2="574" y1="63" y2="63"/><text fill="#000000" font-family="sans-serif" font-size="14" lengthAdjust="spacing" textLength="179" x="390" y="79.6738">SelectType GetSelectType()</text><text fill="#000000" font-family="sans-serif" font-size="14" lengthAdjust="spacing" textLength="105" x="390" y="95.3145">String ToString()</text></g><!--MD5=[8e2eda0a0e9a4f035068269b1d3e3dc4]
class ElemSelect--><g id="elem_ElemSelect"><rect codeLine="27" fill="#F1F1F1" height="63.6406" id="ElemSelect" rx="2.5" ry="2.5" style="stroke:#181818;stroke-width:0.5;" width="227" x="202" y="178"/><ellipse cx="276.25" cy="194" fill="#ADD1B2" rx="11" ry="11" style="stroke:#181818;stroke-width:1.0;"/><path d="M278.25,190.5 Q278.4531,190 278.6875,189.75 Q278.9219,189.5 279.1875,189.5 Q279.6563,189.5 279.9531,189.7813 Q280.25,190.0625 280.25,190.7188 L280.25,192.2813 Q280.25,192.9375 279.9688,193.2188 Q279.6875,193.5 279.25,193.5 Q278.8594,193.5 278.6094,193.3281 Q278.3594,193.1563 278.25,192.7031 Q278.2031,192.3906 278.0313,192.2188 Q277.7188,191.8906 277.1563,191.7031 Q276.5938,191.5 276.0313,191.5 Q275.3281,191.5 274.7344,191.7813 Q274.1563,192.0625 273.7031,192.6875 Q273.25,193.3125 273.25,194.1719 L273.25,195.0938 Q273.25,196.125 274.0938,196.8125 Q274.9375,197.5 276.4375,197.5 Q277.3281,197.5 277.9531,197.2969 Q278.3125,197.1875 278.7188,196.8281 Q278.9844,196.625 279.125,196.5625 Q279.2656,196.5 279.4375,196.5 Q279.7656,196.5 280,196.7656 Q280.25,197.0156 280.25,197.375 Q280.25,197.7188 279.9063,198.125 Q279.4063,198.7188 278.6094,199.0469 Q277.5625,199.5 276.2813,199.5 Q274.7813,199.5 273.5781,198.9063 Q272.6094,198.4375 271.9219,197.4219 Q271.25,196.4063 271.25,195.2031 L271.25,194.1094 Q271.25,192.8594 271.8438,191.7656 Q272.4531,190.6719 273.5,190.0938 Q274.5625,189.5 275.75,189.5 Q276.4688,189.5 277.0938,189.75 Q277.7188,190 278.25,190.5 Z " fill="#000000"/><text fill="#000000" font-family="sans-serif" font-size="14" lengthAdjust="spacing" textLength="70" x="296.75" y="198.8535">ElemSelect</text><line style="stroke:#181818;stroke-width:0.5;" x1="203" x2="428" y1="210" y2="210"/><line style="stroke:#181818;stroke-width:0.5;" x1="203" x2="428" y1="218" y2="218"/><text fill="#000000" font-family="sans-serif" font-size="14" lengthAdjust="spacing" textLength="215" x="208" y="234.6738">ElemReference[] GetReferences()</text></g><!--MD5=[b2f4f74b7387d4d90db925330018cc11]
class BooleanSelect--><g id="elem_BooleanSelect"><rect codeLine="30" fill="#F1F1F1" height="48" id="BooleanSelect" rx="2.5" ry="2.5" style="stroke:#181818;stroke-width:0.5;" width="123" x="464" y="186"/><ellipse cx="479" cy="202" fill="#ADD1B2" rx="11" ry="11" style="stroke:#181818;stroke-width:1.0;"/><path d="M481,198.5 Q481.2031,198 481.4375,197.75 Q481.6719,197.5 481.9375,197.5 Q482.4063,197.5 482.7031,197.7813 Q483,198.0625 483,198.7188 L483,200.2813 Q483,200.9375 482.7188,201.2188 Q482.4375,201.5 482,201.5 Q481.6094,201.5 481.3594,201.3281 Q481.1094,201.1563 481,200.7031 Q480.9531,200.3906 480.7813,200.2188 Q480.4688,199.8906 479.9063,199.7031 Q479.3438,199.5 478.7813,199.5 Q478.0781,199.5 477.4844,199.7813 Q476.9063,200.0625 476.4531,200.6875 Q476,201.3125 476,202.1719 L476,203.0938 Q476,204.125 476.8438,204.8125 Q477.6875,205.5 479.1875,205.5 Q480.0781,205.5 480.7031,205.2969 Q481.0625,205.1875 481.4688,204.8281 Q481.7344,204.625 481.875,204.5625 Q482.0156,204.5 482.1875,204.5 Q482.5156,204.5 482.75,204.7656 Q483,205.0156 483,205.375 Q483,205.7188 482.6563,206.125 Q482.1563,206.7188 481.3594,207.0469 Q480.3125,207.5 479.0313,207.5 Q477.5313,207.5 476.3281,206.9063 Q475.3594,206.4375 474.6719,205.4219 Q474,204.4063 474,203.2031 L474,202.1094 Q474,200.8594 474.5938,199.7656 Q475.2031,198.6719 476.25,198.0938 Q477.3125,197.5 478.5,197.5 Q479.2188,197.5 479.8438,197.75 Q480.4688,198 481,198.5 Z " fill="#000000"/><text fill="#000000" font-family="sans-serif" font-size="14" lengthAdjust="spacing" textLength="91" x="493" y="206.8535">BooleanSelect</text><line style="stroke:#181818;stroke-width:0.5;" x1="465" x2="586" y1="218" y2="218"/><line style="stroke:#181818;stroke-width:0.5;" x1="465" x2="586" y1="226" y2="226"/></g><!--MD5=[4f7f8f66868754534a88439a55bda73a]
class QueryReference--><g id="elem_QueryReference"><rect codeLine="32" fill="#F1F1F1" height="63.6406" id="QueryReference" rx="2.5" ry="2.5" style="stroke:#181818;stroke-width:0.5;" width="198" x="401.5" y="480.5"/><ellipse cx="443.95" cy="496.5" fill="#A9DCDF" rx="11" ry="11" style="stroke:#181818;stroke-width:1.0;"/><path d="M445.7,498 L442.4031,498 L441.9656,499 L441.9656,499 L442.4344,499 L442.95,499.625 L442.95,500 L442.95,500.375 L442.4344,501 L441.9656,501 L440.075,501 L439.4656,501 L438.95,500.375 L438.95,500 L438.95,499.625 L439.4656,499 L440.075,499 L442.3875,493 L441.5125,493 L440.4656,493 L439.95,492.375 L439.95,492 L439.95,491.625 L440.4656,491 L441.5125,491 L445.1844,491 L447.8719,499 L448.4344,499 L448.4344,499 L448.95,499.625 L448.95,500 L448.95,500.375 L448.4344,501 L447.8719,501 L445.9813,501 L445.4656,501 L444.95,500.375 L444.95,500 L444.95,499.625 L445.4656,499 L445.9813,499 L445.9813,499 L445.7,498 Z M445.1531,496 L443.95,492.4219 L442.9188,496 L445.1531,496 Z " fill="#000000"/><text fill="#000000" font-family="sans-serif" font-size="14" font-style="italic" lengthAdjust="spacing" textLength="105" x="464.05" y="501.3535">QueryReference</text><line style="stroke:#181818;stroke-width:0.5;" x1="402.5" x2="598.5" y1="512.5" y2="512.5"/><line style="stroke:#181818;stroke-width:0.5;" x1="402.5" x2="598.5" y1="520.5" y2="520.5"/><text fill="#000000" font-family="sans-serif" font-size="14" lengthAdjust="spacing" textLength="186" x="407.5" y="537.1738">ReferenceType getRefType()</text></g><!--MD5=[86e67c79aa44dec2dd1b8ab61ed63df4]
class WildcardReference--><g id="elem_WildcardReference"><rect codeLine="35" fill="#F1F1F1" height="48" id="WildcardReference" rx="2.5" ry="2.5" style="stroke:#181818;stroke-width:0.5;" width="153" x="312" y="620"/><ellipse cx="327" cy="636" fill="#ADD1B2" rx="11" ry="11" style="stroke:#181818;stroke-width:1.0;"/><path d="M329,632.5 Q329.2031,632 329.4375,631.75 Q329.6719,631.5 329.9375,631.5 Q330.4063,631.5 330.7031,631.7813 Q331,632.0625 331,632.7188 L331,634.2813 Q331,634.9375 330.7188,635.2188 Q330.4375,635.5 330,635.5 Q329.6094,635.5 329.3594,635.3281 Q329.1094,635.1563 329,634.7031 Q328.9531,634.3906 328.7813,634.2188 Q328.4688,633.8906 327.9063,633.7031 Q327.3438,633.5 326.7813,633.5 Q326.0781,633.5 325.4844,633.7813 Q324.9063,634.0625 324.4531,634.6875 Q324,635.3125 324,636.1719 L324,637.0938 Q324,638.125 324.8438,638.8125 Q325.6875,639.5 327.1875,639.5 Q328.0781,639.5 328.7031,639.2969 Q329.0625,639.1875 329.4688,638.8281 Q329.7344,638.625 329.875,638.5625 Q330.0156,638.5 330.1875,638.5 Q330.5156,638.5 330.75,638.7656 Q331,639.0156 331,639.375 Q331,639.7188 330.6563,640.125 Q330.1563,640.7188 329.3594,641.0469 Q328.3125,641.5 327.0313,641.5 Q325.5313,641.5 324.3281,640.9063 Q323.3594,640.4375 322.6719,639.4219 Q322,638.4063 322,637.2031 L322,636.1094 Q322,634.8594 322.5938,633.7656 Q323.2031,632.6719 324.25,632.0938 Q325.3125,631.5 326.5,631.5 Q327.2188,631.5 327.8438,631.75 Q328.4688,632 329,632.5 Z " fill="#000000"/><text fill="#000000" font-family="sans-serif" font-size="14" lengthAdjust="spacing" textLength="121" x="341" y="640.8535">WildcardReference</text><line style="stroke:#181818;stroke-width:0.5;" x1="313" x2="464" y1="652" y2="652"/><line style="stroke:#181818;stroke-width:0.5;" x1="313" x2="464" y1="660" y2="660"/></g><!--MD5=[9268670ed45e91e8e3c5b912cdb2b180]
class IdentReference--><g id="elem_IdentReference"><rect codeLine="36" fill="#F1F1F1" height="48" id="IdentReference" rx="2.5" ry="2.5" style="stroke:#181818;stroke-width:0.5;" width="129" x="500" y="620"/><ellipse cx="515" cy="636" fill="#ADD1B2" rx="11" ry="11" style="stroke:#181818;stroke-width:1.0;"/><path d="M517,632.5 Q517.2031,632 517.4375,631.75 Q517.6719,631.5 517.9375,631.5 Q518.4063,631.5 518.7031,631.7813 Q519,632.0625 519,632.7188 L519,634.2813 Q519,634.9375 518.7188,635.2188 Q518.4375,635.5 518,635.5 Q517.6094,635.5 517.3594,635.3281 Q517.1094,635.1563 517,634.7031 Q516.9531,634.3906 516.7813,634.2188 Q516.4688,633.8906 515.9063,633.7031 Q515.3438,633.5 514.7813,633.5 Q514.0781,633.5 513.4844,633.7813 Q512.9063,634.0625 512.4531,634.6875 Q512,635.3125 512,636.1719 L512,637.0938 Q512,638.125 512.8438,638.8125 Q513.6875,639.5 515.1875,639.5 Q516.0781,639.5 516.7031,639.2969 Q517.0625,639.1875 517.4688,638.8281 Q517.7344,638.625 517.875,638.5625 Q518.0156,638.5 518.1875,638.5 Q518.5156,638.5 518.75,638.7656 Q519,639.0156 519,639.375 Q519,639.7188 518.6563,640.125 Q518.1563,640.7188 517.3594,641.0469 Q516.3125,641.5 515.0313,641.5 Q513.5313,641.5 512.3281,640.9063 Q511.3594,640.4375 510.6719,639.4219 Q510,638.4063 510,637.2031 L510,636.1094 Q510,634.8594 510.5938,633.7656 Q511.2031,632.6719 512.25,632.0938 Q513.3125,631.5 514.5,631.5 Q515.2188,631.5 515.8438,631.75 Q516.4688,632 517,632.5 Z " fill="#000000"/><text fill="#000000" font-family="sans-serif" font-size="14" lengthAdjust="spacing" textLength="97" x="529" y="640.8535">IdentReference</text><line style="stroke:#181818;stroke-width:0.5;" x1="501" x2="628" y1="652" y2="652"/><line style="stroke:#181818;stroke-width:0.5;" x1="501" x2="628" y1="660" y2="660"/></g><!--MD5=[bd8e536829f39b58e53f20fdb9b501c4]
class IntegerReference--><g id="elem_IntegerReference"><rect codeLine="37" fill="#F1F1F1" height="48" id="IntegerReference" rx="2.5" ry="2.5" style="stroke:#181818;stroke-width:0.5;" width="142" x="134.5" y="620"/><ellipse cx="149.5" cy="636" fill="#ADD1B2" rx="11" ry="11" style="stroke:#181818;stroke-width:1.0;"/><path d="M151.5,632.5 Q151.7031,632 151.9375,631.75 Q152.1719,631.5 152.4375,631.5 Q152.9063,631.5 153.2031,631.7813 Q153.5,632.0625 153.5,632.7188 L153.5,634.2813 Q153.5,634.9375 153.2188,635.2188 Q152.9375,635.5 152.5,635.5 Q152.1094,635.5 151.8594,635.3281 Q151.6094,635.1563 151.5,634.7031 Q151.4531,634.3906 151.2813,634.2188 Q150.9688,633.8906 150.4063,633.7031 Q149.8438,633.5 149.2813,633.5 Q148.5781,633.5 147.9844,633.7813 Q147.4063,634.0625 146.9531,634.6875 Q146.5,635.3125 146.5,636.1719 L146.5,637.0938 Q146.5,638.125 147.3438,638.8125 Q148.1875,639.5 149.6875,639.5 Q150.5781,639.5 151.2031,639.2969 Q151.5625,639.1875 151.9688,638.8281 Q152.2344,638.625 152.375,638.5625 Q152.5156,638.5 152.6875,638.5 Q153.0156,638.5 153.25,638.7656 Q153.5,639.0156 153.5,639.375 Q153.5,639.7188 153.1563,640.125 Q152.6563,640.7188 151.8594,641.0469 Q150.8125,641.5 149.5313,641.5 Q148.0313,641.5 146.8281,640.9063 Q145.8594,640.4375 145.1719,639.4219 Q144.5,638.4063 144.5,637.2031 L144.5,636.1094 Q144.5,634.8594 145.0938,633.7656 Q145.7031,632.6719 146.75,632.0938 Q147.8125,631.5 149,631.5 Q149.7188,631.5 150.3438,631.75 Q150.9688,632 151.5,632.5 Z " fill="#000000"/><text fill="#000000" font-family="sans-serif" font-size="14" lengthAdjust="spacing" textLength="110" x="163.5" y="640.8535">IntegerReference</text><line style="stroke:#181818;stroke-width:0.5;" x1="135.5" x2="275.5" y1="652" y2="652"/><line style="stroke:#181818;stroke-width:0.5;" x1="135.5" x2="275.5" y1="660" y2="660"/></g><!--MD5=[e6e254a3e1845aeeb82dd3d8e9fbd02b]
class ElemReference--><g id="elem_ElemReference"><rect codeLine="38" fill="#F1F1F1" height="63.6406" id="ElemReference" rx="2.5" ry="2.5" style="stroke:#181818;stroke-width:0.5;" width="243" x="635" y="480.5"/><ellipse cx="703.75" cy="496.5" fill="#A9DCDF" rx="11" ry="11" style="stroke:#181818;stroke-width:1.0;"/><path d="M705.5,498 L702.2031,498 L701.7656,499 L701.7656,499 L702.2344,499 L702.75,499.625 L702.75,500 L702.75,500.375 L702.2344,501 L701.7656,501 L699.875,501 L699.2656,501 L698.75,500.375 L698.75,500 L698.75,499.625 L699.2656,499 L699.875,499 L702.1875,493 L701.3125,493 L700.2656,493 L699.75,492.375 L699.75,492 L699.75,491.625 L700.2656,491 L701.3125,491 L704.9844,491 L707.6719,499 L708.2344,499 L708.2344,499 L708.75,499.625 L708.75,500 L708.75,500.375 L708.2344,501 L707.6719,501 L705.7813,501 L705.2656,501 L704.75,500.375 L704.75,500 L704.75,499.625 L705.2656,499 L705.7813,499 L705.7813,499 L705.5,498 Z M704.9531,496 L703.75,492.4219 L702.7188,496 L704.9531,496 Z " fill="#000000"/><text fill="#000000" font-family="sans-serif" font-size="14" font-style="italic" lengthAdjust="spacing" textLength="97" x="724.25" y="501.3535">ElemReference</text><line style="stroke:#181818;stroke-width:0.5;" x1="636" x2="877" y1="512.5" y2="512.5"/><line style="stroke:#181818;stroke-width:0.5;" x1="636" x2="877" y1="520.5" y2="520.5"/><text fill="#000000" font-family="sans-serif" font-size="14" lengthAdjust="spacing" textLength="231" x="641" y="537.1738">virtual QuerySynonym getSynonym()</text></g><!--MD5=[504d057594d99508dac643c7ea2c6c06]
class SynonymReference--><g id="elem_SynonymReference"><rect codeLine="41" fill="#F1F1F1" height="48" id="SynonymReference" rx="2.5" ry="2.5" style="stroke:#181818;stroke-width:0.5;" width="156" x="883.5" y="620"/><ellipse cx="898.5" cy="636" fill="#ADD1B2" rx="11" ry="11" style="stroke:#181818;stroke-width:1.0;"/><path d="M900.5,632.5 Q900.7031,632 900.9375,631.75 Q901.1719,631.5 901.4375,631.5 Q901.9063,631.5 902.2031,631.7813 Q902.5,632.0625 902.5,632.7188 L902.5,634.2813 Q902.5,634.9375 902.2188,635.2188 Q901.9375,635.5 901.5,635.5 Q901.1094,635.5 900.8594,635.3281 Q900.6094,635.1563 900.5,634.7031 Q900.4531,634.3906 900.2813,634.2188 Q899.9688,633.8906 899.4063,633.7031 Q898.8438,633.5 898.2813,633.5 Q897.5781,633.5 896.9844,633.7813 Q896.4063,634.0625 895.9531,634.6875 Q895.5,635.3125 895.5,636.1719 L895.5,637.0938 Q895.5,638.125 896.3438,638.8125 Q897.1875,639.5 898.6875,639.5 Q899.5781,639.5 900.2031,639.2969 Q900.5625,639.1875 900.9688,638.8281 Q901.2344,638.625 901.375,638.5625 Q901.5156,638.5 901.6875,638.5 Q902.0156,638.5 902.25,638.7656 Q902.5,639.0156 902.5,639.375 Q902.5,639.7188 902.1563,640.125 Q901.6563,640.7188 900.8594,641.0469 Q899.8125,641.5 898.5313,641.5 Q897.0313,641.5 895.8281,640.9063 Q894.8594,640.4375 894.1719,639.4219 Q893.5,638.4063 893.5,637.2031 L893.5,636.1094 Q893.5,634.8594 894.0938,633.7656 Q894.7031,632.6719 895.75,632.0938 Q896.8125,631.5 898,631.5 Q898.7188,631.5 899.3438,631.75 Q899.9688,632 900.5,632.5 Z " fill="#000000"/><text fill="#000000" font-family="sans-serif" font-size="14" lengthAdjust="spacing" textLength="124" x="912.5" y="640.8535">SynonymReference</text><line style="stroke:#181818;stroke-width:0.5;" x1="884.5" x2="1038.5" y1="652" y2="652"/><line style="stroke:#181818;stroke-width:0.5;" x1="884.5" x2="1038.5" y1="660" y2="660"/></g><!--MD5=[cee9f0681a9d9e91d9d09955f68be225]
class AttrReference--><g id="elem_AttrReference"><rect codeLine="42" fill="#F1F1F1" height="63.6406" id="AttrReference" rx="2.5" ry="2.5" style="stroke:#181818;stroke-width:0.5;" width="184" x="664.5" y="612"/><ellipse cx="708.3" cy="628" fill="#ADD1B2" rx="11" ry="11" style="stroke:#181818;stroke-width:1.0;"/><path d="M710.3,624.5 Q710.5031,624 710.7375,623.75 Q710.9719,623.5 711.2375,623.5 Q711.7063,623.5 712.0031,623.7813 Q712.3,624.0625 712.3,624.7188 L712.3,626.2813 Q712.3,626.9375 712.0188,627.2188 Q711.7375,627.5 711.3,627.5 Q710.9094,627.5 710.6594,627.3281 Q710.4094,627.1563 710.3,626.7031 Q710.2531,626.3906 710.0813,626.2188 Q709.7688,625.8906 709.2063,625.7031 Q708.6438,625.5 708.0813,625.5 Q707.3781,625.5 706.7844,625.7813 Q706.2063,626.0625 705.7531,626.6875 Q705.3,627.3125 705.3,628.1719 L705.3,629.0938 Q705.3,630.125 706.1438,630.8125 Q706.9875,631.5 708.4875,631.5 Q709.3781,631.5 710.0031,631.2969 Q710.3625,631.1875 710.7688,630.8281 Q711.0344,630.625 711.175,630.5625 Q711.3156,630.5 711.4875,630.5 Q711.8156,630.5 712.05,630.7656 Q712.3,631.0156 712.3,631.375 Q712.3,631.7188 711.9563,632.125 Q711.4563,632.7188 710.6594,633.0469 Q709.6125,633.5 708.3313,633.5 Q706.8313,633.5 705.6281,632.9063 Q704.6594,632.4375 703.9719,631.4219 Q703.3,630.4063 703.3,629.2031 L703.3,628.1094 Q703.3,626.8594 703.8938,625.7656 Q704.5031,624.6719 705.55,624.0938 Q706.6125,623.5 707.8,623.5 Q708.5188,623.5 709.1438,623.75 Q709.7688,624 710.3,624.5 Z " fill="#000000"/><text fill="#000000" font-family="sans-serif" font-size="14" lengthAdjust="spacing" textLength="88" x="728.7" y="632.8535">AttrReference</text><line style="stroke:#181818;stroke-width:0.5;" x1="665.5" x2="847.5" y1="644" y2="644"/><line style="stroke:#181818;stroke-width:0.5;" x1="665.5" x2="847.5" y1="652" y2="652"/><text fill="#000000" font-family="sans-serif" font-size="14" lengthAdjust="spacing" textLength="172" x="670.5" y="668.6738">AttributeType getAttribute()</text></g><!--MD5=[9772ecc17400a8065c413f4293334f2d]
class QueryClause--><g id="elem_QueryClause"><rect codeLine="46" fill="#F1F1F1" height="63.6406" id="QueryClause" rx="2.5" ry="2.5" style="stroke:#181818;stroke-width:0.5;" width="198" x="668.5" y="178"/><ellipse cx="721.75" cy="194" fill="#A9DCDF" rx="11" ry="11" style="stroke:#181818;stroke-width:1.0;"/><path d="M723.5,195.5 L720.2031,195.5 L719.7656,196.5 L719.7656,196.5 L720.2344,196.5 L720.75,197.125 L720.75,197.5 L720.75,197.875 L720.2344,198.5 L719.7656,198.5 L717.875,198.5 L717.2656,198.5 L716.75,197.875 L716.75,197.5 L716.75,197.125 L717.2656,196.5 L717.875,196.5 L720.1875,190.5 L719.3125,190.5 L718.2656,190.5 L717.75,189.875 L717.75,189.5 L717.75,189.125 L718.2656,188.5 L719.3125,188.5 L722.9844,188.5 L725.6719,196.5 L726.2344,196.5 L726.2344,196.5 L726.75,197.125 L726.75,197.5 L726.75,197.875 L726.2344,198.5 L725.6719,198.5 L723.7813,198.5 L723.2656,198.5 L722.75,197.875 L722.75,197.5 L722.75,197.125 L723.2656,196.5 L723.7813,196.5 L723.7813,196.5 L723.5,195.5 Z M722.9531,193.5 L721.75,189.9219 L720.7188,193.5 L722.9531,193.5 Z " fill="#000000"/><text fill="#000000" font-family="sans-serif" font-size="14" font-style="italic" lengthAdjust="spacing" textLength="83" x="742.25" y="198.8535">QueryClause</text><line style="stroke:#181818;stroke-width:0.5;" x1="669.5" x2="865.5" y1="210" y2="210"/><line style="stroke:#181818;stroke-width:0.5;" x1="669.5" x2="865.5" y1="218" y2="218"/><text fill="#000000" font-family="sans-serif" font-size="14" lengthAdjust="spacing" textLength="186" x="674.5" y="234.6738">ClauseType getClauseType()</text></g><!--MD5=[209713aafc3e5d967048991069ac1efb]
class SuchThatClause--><g id="elem_SuchThatClause"><rect codeLine="49" fill="#F1F1F1" height="94.9219" id="SuchThatClause" rx="2.5" ry="2.5" style="stroke:#181818;stroke-width:0.5;" width="199" x="668" y="310"/><ellipse cx="710.9" cy="326" fill="#A9DCDF" rx="11" ry="11" style="stroke:#181818;stroke-width:1.0;"/><path d="M712.65,327.5 L709.3531,327.5 L708.9156,328.5 L708.9156,328.5 L709.3844,328.5 L709.9,329.125 L709.9,329.5 L709.9,329.875 L709.3844,330.5 L708.9156,330.5 L707.025,330.5 L706.4156,330.5 L705.9,329.875 L705.9,329.5 L705.9,329.125 L706.4156,328.5 L707.025,328.5 L709.3375,322.5 L708.4625,322.5 L707.4156,322.5 L706.9,321.875 L706.9,321.5 L706.9,321.125 L707.4156,320.5 L708.4625,320.5 L712.1344,320.5 L714.8219,328.5 L715.3844,328.5 L715.3844,328.5 L715.9,329.125 L715.9,329.5 L715.9,329.875 L715.3844,330.5 L714.8219,330.5 L712.9313,330.5 L712.4156,330.5 L711.9,329.875 L711.9,329.5 L711.9,329.125 L712.4156,328.5 L712.9313,328.5 L712.9313,328.5 L712.65,327.5 Z M712.1031,325.5 L710.9,321.9219 L709.8688,325.5 L712.1031,325.5 Z " fill="#000000"/><text fill="#000000" font-family="sans-serif" font-size="14" font-style="italic" lengthAdjust="spacing" textLength="105" x="731.1" y="330.8535">SuchThatClause</text><line style="stroke:#181818;stroke-width:0.5;" x1="669" x2="866" y1="342" y2="342"/><line style="stroke:#181818;stroke-width:0.5;" x1="669" x2="866" y1="350" y2="350"/><text fill="#000000" font-family="sans-serif" font-size="14" lengthAdjust="spacing" textLength="176" x="674" y="366.6738">RsType getSuchThatType()</text><text fill="#000000" font-family="sans-serif" font-size="14" lengthAdjust="spacing" textLength="167" x="674" y="382.3145">QueryReference getFirst()</text><text fill="#000000" font-family="sans-serif" font-size="14" lengthAdjust="spacing" textLength="187" x="674" y="397.9551">QueryReference getSecond()</text></g><!--MD5=[efba00fe3698846dd806f86fdc741d9b]
class WithClause--><g id="elem_WithClause"><rect codeLine="54" fill="#F1F1F1" height="94.9219" id="WithClause" rx="2.5" ry="2.5" style="stroke:#181818;stroke-width:0.5;" width="199" x="902" y="310"/><ellipse cx="961.25" cy="326" fill="#ADD1B2" rx="11" ry="11" style="stroke:#181818;stroke-width:1.0;"/><path d="M963.25,322.5 Q963.4531,322 963.6875,321.75 Q963.9219,321.5 964.1875,321.5 Q964.6563,321.5 964.9531,321.7813 Q965.25,322.0625 965.25,322.7188 L965.25,324.2813 Q965.25,324.9375 964.9688,325.2188 Q964.6875,325.5 964.25,325.5 Q963.8594,325.5 963.6094,325.3281 Q963.3594,325.1563 963.25,324.7031 Q963.2031,324.3906 963.0313,324.2188 Q962.7188,323.8906 962.1563,323.7031 Q961.5938,323.5 961.0313,323.5 Q960.3281,323.5 959.7344,323.7813 Q959.1563,324.0625 958.7031,324.6875 Q958.25,325.3125 958.25,326.1719 L958.25,327.0938 Q958.25,328.125 959.0938,328.8125 Q959.9375,329.5 961.4375,329.5 Q962.3281,329.5 962.9531,329.2969 Q963.3125,329.1875 963.7188,328.8281 Q963.9844,328.625 964.125,328.5625 Q964.2656,328.5 964.4375,328.5 Q964.7656,328.5 965,328.7656 Q965.25,329.0156 965.25,329.375 Q965.25,329.7188 964.9063,330.125 Q964.4063,330.7188 963.6094,331.0469 Q962.5625,331.5 961.2813,331.5 Q959.7813,331.5 958.5781,330.9063 Q957.6094,330.4375 956.9219,329.4219 Q956.25,328.4063 956.25,327.2031 L956.25,326.1094 Q956.25,324.8594 956.8438,323.7656 Q957.4531,322.6719 958.5,322.0938 Q959.5625,321.5 960.75,321.5 Q961.4688,321.5 962.0938,321.75 Q962.7188,322 963.25,322.5 Z " fill="#000000"/><text fill="#000000" font-family="sans-serif" font-size="14" lengthAdjust="spacing" textLength="72" x="981.75" y="330.8535">WithClause</text><line style="stroke:#181818;stroke-width:0.5;" x1="903" x2="1100" y1="342" y2="342"/><line style="stroke:#181818;stroke-width:0.5;" x1="903" x2="1100" y1="350" y2="350"/><text fill="#000000" font-family="sans-serif" font-size="14" lengthAdjust="spacing" textLength="184" x="908" y="366.6738">Comparator getComparator()</text><text fill="#000000" font-family="sans-serif" font-size="14" lengthAdjust="spacing" textLength="167" x="908" y="382.3145">QueryReference getFirst()</text><text fill="#000000" font-family="sans-serif" font-size="14" lengthAdjust="spacing" textLength="187" x="908" y="397.9551">QueryReference getSecond()</text></g><!--MD5=[bfbc09f118ac649fa938666fcb82962a]
class Comparator--><g id="elem_Comparator"><rect codeLine="59" fill="#F1F1F1" height="48" id="Comparator" rx="2.5" ry="2.5" style="stroke:#181818;stroke-width:0.5;" width="107" x="1101" y="488.5"/><ellipse cx="1116" cy="504.5" fill="#ADD1B2" rx="11" ry="11" style="stroke:#181818;stroke-width:1.0;"/><path d="M1118,501 Q1118.2031,500.5 1118.4375,500.25 Q1118.6719,500 1118.9375,500 Q1119.4063,500 1119.7031,500.2813 Q1120,500.5625 1120,501.2188 L1120,502.7813 Q1120,503.4375 1119.7188,503.7188 Q1119.4375,504 1119,504 Q1118.6094,504 1118.3594,503.8281 Q1118.1094,503.6563 1118,503.2031 Q1117.9531,502.8906 1117.7813,502.7188 Q1117.4688,502.3906 1116.9063,502.2031 Q1116.3438,502 1115.7813,502 Q1115.0781,502 1114.4844,502.2813 Q1113.9063,502.5625 1113.4531,503.1875 Q1113,503.8125 1113,504.6719 L1113,505.5938 Q1113,506.625 1113.8438,507.3125 Q1114.6875,508 1116.1875,508 Q1117.0781,508 1117.7031,507.7969 Q1118.0625,507.6875 1118.4688,507.3281 Q1118.7344,507.125 1118.875,507.0625 Q1119.0156,507 1119.1875,507 Q1119.5156,507 1119.75,507.2656 Q1120,507.5156 1120,507.875 Q1120,508.2188 1119.6563,508.625 Q1119.1563,509.2188 1118.3594,509.5469 Q1117.3125,510 1116.0313,510 Q1114.5313,510 1113.3281,509.4063 Q1112.3594,508.9375 1111.6719,507.9219 Q1111,506.9063 1111,505.7031 L1111,504.6094 Q1111,503.3594 1111.5938,502.2656 Q1112.2031,501.1719 1113.25,500.5938 Q1114.3125,500 1115.5,500 Q1116.2188,500 1116.8438,500.25 Q1117.4688,500.5 1118,501 Z " fill="#000000"/><text fill="#000000" font-family="sans-serif" font-size="14" lengthAdjust="spacing" textLength="75" x="1130" y="509.3535">Comparator</text><line style="stroke:#181818;stroke-width:0.5;" x1="1102" x2="1207" y1="520.5" y2="520.5"/><line style="stroke:#181818;stroke-width:0.5;" x1="1102" x2="1207" y1="528.5" y2="528.5"/></g><!--MD5=[92ec8b8a6d97b46515a87cf3ef59b1e5]
class PatternClause--><g id="elem_PatternClause"><rect codeLine="60" fill="#F1F1F1" height="110.5625" id="PatternClause" rx="2.5" ry="2.5" style="stroke:#181818;stroke-width:0.5;" width="264" x="368.5" y="302"/><ellipse cx="451.25" cy="318" fill="#ADD1B2" rx="11" ry="11" style="stroke:#181818;stroke-width:1.0;"/><path d="M453.25,314.5 Q453.4531,314 453.6875,313.75 Q453.9219,313.5 454.1875,313.5 Q454.6563,313.5 454.9531,313.7813 Q455.25,314.0625 455.25,314.7188 L455.25,316.2813 Q455.25,316.9375 454.9688,317.2188 Q454.6875,317.5 454.25,317.5 Q453.8594,317.5 453.6094,317.3281 Q453.3594,317.1563 453.25,316.7031 Q453.2031,316.3906 453.0313,316.2188 Q452.7188,315.8906 452.1563,315.7031 Q451.5938,315.5 451.0313,315.5 Q450.3281,315.5 449.7344,315.7813 Q449.1563,316.0625 448.7031,316.6875 Q448.25,317.3125 448.25,318.1719 L448.25,319.0938 Q448.25,320.125 449.0938,320.8125 Q449.9375,321.5 451.4375,321.5 Q452.3281,321.5 452.9531,321.2969 Q453.3125,321.1875 453.7188,320.8281 Q453.9844,320.625 454.125,320.5625 Q454.2656,320.5 454.4375,320.5 Q454.7656,320.5 455,320.7656 Q455.25,321.0156 455.25,321.375 Q455.25,321.7188 454.9063,322.125 Q454.4063,322.7188 453.6094,323.0469 Q452.5625,323.5 451.2813,323.5 Q449.7813,323.5 448.5781,322.9063 Q447.6094,322.4375 446.9219,321.4219 Q446.25,320.4063 446.25,319.2031 L446.25,318.1094 Q446.25,316.8594 446.8438,315.7656 Q447.4531,314.6719 448.5,314.0938 Q449.5625,313.5 450.75,313.5 Q451.4688,313.5 452.0938,313.75 Q452.7188,314 453.25,314.5 Z " fill="#000000"/><text fill="#000000" font-family="sans-serif" font-size="14" lengthAdjust="spacing" textLength="90" x="471.75" y="322.8535">PatternClause</text><line style="stroke:#181818;stroke-width:0.5;" x1="369.5" x2="631.5" y1="334" y2="334"/><line style="stroke:#181818;stroke-width:0.5;" x1="369.5" x2="631.5" y1="342" y2="342"/><text fill="#000000" font-family="sans-serif" font-size="14" lengthAdjust="spacing" textLength="208" x="374.5" y="358.6738">SynonymReference getStmtRef()</text><text fill="#000000" font-family="sans-serif" font-size="14" lengthAdjust="spacing" textLength="182" x="374.5" y="374.3145">QueryReference getEntRef()</text><text fill="#000000" font-family="sans-serif" font-size="14" lengthAdjust="spacing" textLength="232" x="374.5" y="389.9551">ExpressionSpec getFirstExpression()</text><text fill="#000000" font-family="sans-serif" font-size="14" lengthAdjust="spacing" textLength="252" x="374.5" y="405.5957">ExpressionSpec getSecondExpression()</text></g><!--MD5=[d2fabc0fe1c4688c6097576732ed1d98]
class ExpressionSpec--><g id="elem_ExpressionSpec"><rect codeLine="67" fill="#F1F1F1" height="79.2813" id="ExpressionSpec" rx="2.5" ry="2.5" style="stroke:#181818;stroke-width:0.5;" width="133" x="7" y="318"/><ellipse cx="22" cy="334" fill="#A9DCDF" rx="11" ry="11" style="stroke:#181818;stroke-width:1.0;"/><path d="M23.75,335.5 L20.4531,335.5 L20.0156,336.5 L20.0156,336.5 L20.4844,336.5 L21,337.125 L21,337.5 L21,337.875 L20.4844,338.5 L20.0156,338.5 L18.125,338.5 L17.5156,338.5 L17,337.875 L17,337.5 L17,337.125 L17.5156,336.5 L18.125,336.5 L20.4375,330.5 L19.5625,330.5 L18.5156,330.5 L18,329.875 L18,329.5 L18,329.125 L18.5156,328.5 L19.5625,328.5 L23.2344,328.5 L25.9219,336.5 L26.4844,336.5 L26.4844,336.5 L27,337.125 L27,337.5 L27,337.875 L26.4844,338.5 L25.9219,338.5 L24.0313,338.5 L23.5156,338.5 L23,337.875 L23,337.5 L23,337.125 L23.5156,336.5 L24.0313,336.5 L24.0313,336.5 L23.75,335.5 Z M23.2031,333.5 L22,329.9219 L20.9688,333.5 L23.2031,333.5 Z " fill="#000000"/><text fill="#000000" font-family="sans-serif" font-size="14" font-style="italic" lengthAdjust="spacing" textLength="101" x="36" y="338.8535">ExpressionSpec</text><line style="stroke:#181818;stroke-width:0.5;" x1="8" x2="139" y1="350" y2="350"/><line style="stroke:#181818;stroke-width:0.5;" x1="8" x2="139" y1="358" y2="358"/><text fill="#000000" font-family="sans-serif" font-size="14" lengthAdjust="spacing" textLength="78" x="13" y="374.6738">bool isWild()</text><text fill="#000000" font-family="sans-serif" font-size="14" lengthAdjust="spacing" textLength="100" x="13" y="390.3145">String toString()</text></g><!--MD5=[dbcfbaee98d7a599ba2575f7e1f1ad39]
link SelectCall to Query--><g id="link_SelectCall_Query"><path codeLine="72" d="M575.12,62.5 C582.24,62.5 589.35,62.5 596.46,62.5 " fill="none" id="SelectCall-to-Query" style="stroke:#181818;stroke-width:1.0;"/><polygon fill="#181818" points="609.69,62.5,603.69,58.5,597.69,62.5,603.69,66.5,609.69,62.5" style="stroke:#181818;stroke-width:1.0;"/></g><!--MD5=[7af37aca99b54e5d0a264a34ba57735b]
reverse link Query to QueryClause--><g id="link_Query_QueryClause"><path codeLine="73" d="M767.5,131.54 C767.5,147.71 767.5,164.2 767.5,177.79 " fill="none" id="Query-backto-QueryClause" style="stroke:#181818;stroke-width:1.0;"/><polygon fill="#181818" points="767.5,118.09,763.5,124.09,767.5,130.09,771.5,124.09,767.5,118.09" style="stroke:#181818;stroke-width:1.0;"/></g><!--MD5=[3df6db9fe0576be7b05b70d3e06c471d]
reverse link SelectCall to ElemSelect--><g id="link_SelectCall_ElemSelect"><path codeLine="75" d="M421.02,115.38 C397.49,136.26 371.14,159.63 350.66,177.81 " fill="none" id="SelectCall-backto-ElemSelect" style="stroke:#181818;stroke-width:1.0;"/><polygon fill="none" points="416.38,110.15,435.98,102.11,425.67,120.62,416.38,110.15" style="stroke:#181818;stroke-width:1.0;"/></g><!--MD5=[a7e320642c43ac1093e8f0c3aa516823]
reverse link SelectCall to BooleanSelect--><g id="link_SelectCall_BooleanSelect"><path codeLine="76" d="M497.84,121.52 C504.94,143.97 512.66,168.38 518.13,185.7 " fill="none" id="SelectCall-backto-BooleanSelect" style="stroke:#181818;stroke-width:1.0;"/><polygon fill="none" points="491.06,123.29,491.71,102.11,504.41,119.07,491.06,123.29" style="stroke:#181818;stroke-width:1.0;"/></g><!--MD5=[063fb69b19e3c4e6a5f6b76ed33c6bad]
reverse link IWeight to QueryReference--><g id="link_IWeight_QueryReference"><path codeLine="78" d="M333.67,407.74 C372.01,431.58 416.88,459.49 450.43,480.36 " fill="none" id="IWeight-backto-QueryReference" style="stroke:#181818;stroke-width:1.0;stroke-dasharray:7.0,7.0;"/><polygon fill="none" points="329.86,413.62,316.58,397.11,337.26,401.73,329.86,413.62" style="stroke:#181818;stroke-width:1.0;"/></g><!--MD5=[2200b1543eeec8fd5c9dae286be2fc5b]
reverse link QueryReference to IdentReference--><g id="link_QueryReference_IdentReference"><path codeLine="79" d="M524.73,562.52 C534.47,582.23 545.23,604.01 553.1,619.94 " fill="none" id="QueryReference-backto-IdentReference" style="stroke:#181818;stroke-width:1.0;"/><polygon fill="none" points="518.42,565.55,515.83,544.52,530.97,559.35,518.42,565.55" style="stroke:#181818;stroke-width:1.0;"/></g><!--MD5=[f2805955f8fa8027ba224c05dedb97a4]
reverse link QueryReference to IntegerReference--><g id="link_QueryReference_IntegerReference"><path codeLine="80" d="M411.24,552.68 C361.19,574.65 300.48,601.31 258.03,619.94 " fill="none" id="QueryReference-backto-IntegerReference" style="stroke:#181818;stroke-width:1.0;"/><polygon fill="none" points="408.71,546.15,429.84,544.52,414.34,558.97,408.71,546.15" style="stroke:#181818;stroke-width:1.0;"/></g><!--MD5=[cb0c1c7c1f5c7de41e861fd5601e7101]
reverse link QueryReference to WildcardReference--><g id="link_QueryReference_WildcardReference"><path codeLine="81" d="M460.46,559.79 C442.81,580.2 422.86,603.28 408.44,619.94 " fill="none" id="QueryReference-backto-WildcardReference" style="stroke:#181818;stroke-width:1.0;"/><polygon fill="none" points="455.3,555.07,473.67,544.52,465.88,564.22,455.3,555.07" style="stroke:#181818;stroke-width:1.0;"/></g><!--MD5=[927d2ceff52ab631398439a67d796193]
reverse link QueryReference to ElemReference--><g id="link_QueryReference_ElemReference"><path codeLine="82" d="M619.61,512.5 C624.66,512.5 629.71,512.5 634.76,512.5 " fill="none" id="QueryReference-backto-ElemReference" style="stroke:#181818;stroke-width:1.0;"/><polygon fill="none" points="619.5,519.5,599.5,512.5,619.5,505.5,619.5,519.5" style="stroke:#181818;stroke-width:1.0;"/></g><!--MD5=[0784c4471f347fe4a78792b56c267711]
reverse link ElemReference to SynonymReference--><g id="link_ElemReference_SynonymReference"><path codeLine="84" d="M822.7,555.32 C856.63,576.76 896.67,602.04 925,619.94 " fill="none" id="ElemReference-backto-SynonymReference" style="stroke:#181818;stroke-width:1.0;"/><polygon fill="none" points="818.77,561.12,805.6,544.52,826.25,549.28,818.77,561.12" style="stroke:#181818;stroke-width:1.0;"/></g><!--MD5=[f0f0481b16207efd054ea4029e101707]
reverse link ElemReference to AttrReference--><g id="link_ElemReference_AttrReference"><path codeLine="85" d="M756.5,564.76 C756.5,580.66 756.5,597.69 756.5,611.79 " fill="none" id="ElemReference-backto-AttrReference" style="stroke:#181818;stroke-width:1.0;"/><polygon fill="none" points="749.5,564.52,756.5,544.52,763.5,564.52,749.5,564.52" style="stroke:#181818;stroke-width:1.0;"/></g><!--MD5=[d7e3503034ce0890fb15f7dc00b07c34]
reverse link ElemReference to QuerySynonym--><g id="link_ElemReference_QuerySynonym"><path codeLine="86" d="M891.07,512.5 C898.33,512.5 905.59,512.5 912.85,512.5 " fill="none" id="ElemReference-backto-QuerySynonym" style="stroke:#181818;stroke-width:1.0;"/><polygon fill="none" points="878.01,512.5,884.01,516.5,890.01,512.5,884.01,508.5,878.01,512.5" style="stroke:#181818;stroke-width:1.0;"/></g><!--MD5=[1912fe5f274c5128bc5442c30c2e3254]
link QueryClause to ICheckSemantics--><g id="link_QueryClause_ICheckSemantics"><path codeLine="88" d="M866.76,210 C871.68,210 876.6,210 881.52,210 " fill="none" id="QueryClause-to-ICheckSemantics" style="stroke:#181818;stroke-width:1.0;stroke-dasharray:7.0,7.0;"/><polygon fill="none" points="881.75,203,901.75,210,881.75,217,881.75,203" style="stroke:#181818;stroke-width:1.0;"/></g><!--MD5=[fe80b7213a8081d79de0c5b9c3c736c1]
reverse link QueryClause to SuchThatClause--><g id="link_QueryClause_SuchThatClause"><path codeLine="90" d="M767.5,262.44 C767.5,277.89 767.5,294.74 767.5,309.85 " fill="none" id="QueryClause-backto-SuchThatClause" style="stroke:#181818;stroke-width:1.0;"/><polygon fill="none" points="760.5,262.21,767.5,242.21,774.5,262.21,760.5,262.21" style="stroke:#181818;stroke-width:1.0;"/></g><!--MD5=[4022df4d03ddb01d7bc91900a0718e5d]
reverse link QueryClause to PatternClause--><g id="link_QueryClause_PatternClause"><path codeLine="91" d="M692.96,251.62 C664.4,267.18 631.34,285.2 600.76,301.86 " fill="none" id="QueryClause-backto-PatternClause" style="stroke:#181818;stroke-width:1.0;"/><polygon fill="none" points="689.64,245.46,710.55,242.03,696.34,257.75,689.64,245.46" style="stroke:#181818;stroke-width:1.0;"/></g><!--MD5=[df2fba50009bb246032b347f87efec7a]
reverse link QueryClause to WithClause--><g id="link_QueryClause_WithClause"><path codeLine="92" d="M834.54,252.69 C863.21,270.51 896.8,291.4 926.31,309.75 " fill="none" id="QueryClause-backto-WithClause" style="stroke:#181818;stroke-width:1.0;"/><polygon fill="none" points="830.7,258.54,817.41,242.03,838.09,246.65,830.7,258.54" style="stroke:#181818;stroke-width:1.0;"/></g><!--MD5=[8f3be97dca2b0ad335c749ac3fd9eeb6]
reverse link SuchThatClause to QueryReference--><g id="link_SuchThatClause_QueryReference"><path codeLine="94" d="M674.88,411.58 C634.77,434.56 589.22,460.66 554.73,480.43 " fill="none" id="SuchThatClause-backto-QueryReference" style="stroke:#181818;stroke-width:1.0;"/><polygon fill="none" points="686.3,405.03,679.1053,404.5446,675.89,410.9993,683.0848,411.4846,686.3,405.03" style="stroke:#181818;stroke-width:1.0;"/></g><!--MD5=[dd232cec0768ec0ee36724ffc52d1e01]
reverse link PatternClause to QueryReference--><g id="link_PatternClause_QueryReference"><path codeLine="96" d="M500.5,426.44 C500.5,445.19 500.5,464.64 500.5,480.2 " fill="none" id="PatternClause-backto-QueryReference" style="stroke:#181818;stroke-width:1.0;"/><polygon fill="none" points="500.5,413.3,496.5,419.3,500.5,425.3,504.5,419.3,500.5,413.3" style="stroke:#181818;stroke-width:1.0;"/></g><!--MD5=[8c8b28294c1d08130685ec182a4d0808]
link ExpressionSpec to PatternClause--><g id="link_ExpressionSpec_PatternClause"><path codeLine="97" d="M107.92,317.88 C125.9,300.22 149.46,281.32 175,272 C240.96,247.92 264.72,255.58 333,272 C355.13,277.32 377.62,286.08 398.65,296.02 " fill="none" id="ExpressionSpec-to-PatternClause" style="stroke:#181818;stroke-width:1.0;"/><polygon fill="#181818" points="410.5,301.82,406.8701,295.5891,399.7224,296.5433,403.3523,302.7742,410.5,301.82" style="stroke:#181818;stroke-width:1.0;"/></g><!--MD5=[5a2b568dbcd01231c409cc12a52ef08b]
reverse link WithClause to QueryReference--><g id="link_WithClause_QueryReference"><path codeLine="99" d="M893.42,409.83 C890.43,410.94 887.45,411.99 884.5,413 C769.38,452.24 734.74,440.62 617.5,473 C609.15,475.31 600.52,477.85 591.89,480.49 " fill="none" id="WithClause-backto-QueryReference" style="stroke:#181818;stroke-width:1.0;"/><polygon fill="none" points="905.76,405.09,898.7249,403.5066,894.5575,409.3916,901.5926,410.975,905.76,405.09" style="stroke:#181818;stroke-width:1.0;"/></g><!--MD5=[569d32865ca153c35055626ea6ee3ff3]
reverse link WithClause to Comparator--><g id="link_WithClause_Comparator"><path codeLine="100" d="M1057.49,414.49 C1083.07,440.07 1111.95,468.95 1131.5,488.5 " fill="none" id="WithClause-backto-Comparator" style="stroke:#181818;stroke-width:1.0;"/><polygon fill="#181818" points="1048.24,405.24,1049.6542,412.3111,1056.7253,413.7253,1055.3111,406.6542,1048.24,405.24" style="stroke:#181818;stroke-width:1.0;"/></g><!--MD5=[c57cd2fd7c2df66692065b940c651489]
@startuml

class Query {
    SynonymReference[] getSynonymDeclarations()
    SelectCall getQueryCall()
    QueryClause[] getClauses()
    String toString()
}

interface ICheckSemantics {
  bool isSemanticallyCorrect();
}

interface IWeight {
    void setWeight(double)
    double GetWeight()
}

class QuerySynonym {
    String GetName()
    String GetEntityType()
}

abstract SelectCall {
    SelectType GetSelectType()
    String ToString()
}
class ElemSelect {
    ElemReference[] GetReferences()
}
class BooleanSelect

abstract QueryReference{
    ReferenceType getRefType()
}
class WildcardReference
class IdentReference
class IntegerReference
abstract ElemReference {
    virtual QuerySynonym getSynonym()
}
class SynonymReference
class AttrReference  {
    AttributeType getAttribute()
}

abstract class QueryClause {
    ClauseType getClauseType()
}
abstract class SuchThatClause {
    RsType getSuchThatType()
    QueryReference getFirst()
    QueryReference getSecond()
}
class WithClause {
    Comparator getComparator()
    QueryReference getFirst()
    QueryReference getSecond()
}
class Comparator
class PatternClause  {
    SynonymReference getStmtRef()
    QueryReference getEntRef()
    ExpressionSpec getFirstExpression()
    ExpressionSpec getSecondExpression()
}

abstract ExpressionSpec {
    bool isWild()
    String toString()
}

Query *-left- SelectCall
Query *-down- QueryClause

SelectCall <|-down- ElemSelect
SelectCall <|-down- BooleanSelect

IWeight <|.down. QueryReference
QueryReference <|-down- IdentReference
QueryReference <|-down- IntegerReference
QueryReference <|-down- WildcardReference
QueryReference <|-right- ElemReference

ElemReference <|-down- SynonymReference
ElemReference <|-down- AttrReference
ElemReference o-right- QuerySynonym

ICheckSemantics <|.left. QueryClause

QueryClause <|-down- SuchThatClause
QueryClause <|-down- PatternClause
QueryClause <|-down- WithClause

SuchThatClause o-down- QueryReference

PatternClause o-down- QueryReference
PatternClause *-left- ExpressionSpec

WithClause o-down- QueryReference
WithClause *-down- Comparator
@enduml

PlantUML version 1.2022.7(Tue Aug 23 01:01:30 SGT 2022)
(GPL source distribution)
Java Runtime: OpenJDK Runtime Environment
JVM: OpenJDK 64-Bit Server VM
Default Encoding: Cp1252
Language: en
Country: GB
--></g></svg>