<?xml version="1.0" encoding="UTF-8" standalone="no"?><svg xmlns="http://www.w3.org/2000/svg" xmlns:xlink="http://www.w3.org/1999/xlink" contentStyleType="text/css" height="593px" preserveAspectRatio="none" style="width:1890px;height:593px;background:#FFFFFF;" version="1.1" viewBox="0 0 1890 593" width="1890px" zoomAndPan="magnify"><defs/><g><!--MD5=[3fee75583bb7a64f68d843a3c9534ab3]
class Node--><g id="elem_Node"><rect codeLine="2" fill="#F1F1F1" height="146.9297" id="Node" rx="2.5" ry="2.5" style="stroke:#181818;stroke-width:0.5;" width="298" x="1261" y="7"/><ellipse cx="1387.75" cy="23" fill="#A9DCDF" rx="11" ry="11" style="stroke:#181818;stroke-width:1.0;"/><path d="M1387.6133,18.3481 L1386.4595,23.4199 L1388.7754,23.4199 Z M1386.1191,16.1069 L1389.1157,16.1069 L1392.4609,28.5 L1390.0122,28.5 L1389.2485,25.437 L1385.9697,25.437 L1385.2227,28.5 L1382.7739,28.5 Z " fill="#000000"/><text fill="#000000" font-family="sans-serif" font-size="14" font-style="italic" lengthAdjust="spacing" textLength="36" x="1408.25" y="28.291">Node</text><line style="stroke:#181818;stroke-width:0.5;" x1="1262" x2="1558" y1="39" y2="39"/><text fill="#000000" font-family="sans-serif" font-size="14" lengthAdjust="spacing" textLength="151" x="1267" y="56.5352">NodeType node_type_</text><line style="stroke:#181818;stroke-width:0.5;" x1="1262" x2="1558" y1="63.4883" y2="63.4883"/><text fill="#000000" font-family="sans-serif" font-size="14" lengthAdjust="spacing" textLength="175" x="1267" y="81.0234">NodeType GetNodeType()</text><text fill="#000000" font-family="sans-serif" font-size="14" lengthAdjust="spacing" textLength="142" x="1267" y="97.5117">Node[] GetChildren()</text><text fill="#000000" font-family="sans-serif" font-size="14" lengthAdjust="spacing" textLength="245" x="1267" y="114">void VisitAll(Function&lt;Node, void&gt;)</text><text fill="#000000" font-family="sans-serif" font-size="14" lengthAdjust="spacing" textLength="286" x="1267" y="130.4883">void VisitChildren(Function&lt;Node, void&gt;)</text><text fill="#000000" font-family="sans-serif" font-size="14" lengthAdjust="spacing" textLength="114" x="1267" y="146.9766">String ToString()</text></g><!--MD5=[db76bfaf7207b7f21f0dde8b3887b32a]
class SymbolNode--><g id="elem_SymbolNode"><rect codeLine="11" fill="#F1F1F1" height="48" id="SymbolNode" rx="2.5" ry="2.5" style="stroke:#181818;stroke-width:0.5;" width="118" x="1571" y="538"/><ellipse cx="1586" cy="554" fill="#ADD1B2" rx="11" ry="11" style="stroke:#181818;stroke-width:1.0;"/><path d="M1588.4731,560.1431 Q1587.8921,560.4419 1587.2529,560.5913 Q1586.6138,560.7407 1585.9082,560.7407 Q1583.4014,560.7407 1582.0815,559.0889 Q1580.7617,557.437 1580.7617,554.3159 Q1580.7617,551.1865 1582.0815,549.5347 Q1583.4014,547.8828 1585.9082,547.8828 Q1586.6138,547.8828 1587.2612,548.0322 Q1587.9087,548.1816 1588.4731,548.4805 L1588.4731,551.2031 Q1587.8423,550.6221 1587.2488,550.3523 Q1586.6553,550.0825 1586.0244,550.0825 Q1584.6797,550.0825 1583.9949,551.1492 Q1583.3101,552.2158 1583.3101,554.3159 Q1583.3101,556.4077 1583.9949,557.4744 Q1584.6797,558.541 1586.0244,558.541 Q1586.6553,558.541 1587.2488,558.2712 Q1587.8423,558.0015 1588.4731,557.4204 Z " fill="#000000"/><text fill="#000000" font-family="sans-serif" font-size="14" lengthAdjust="spacing" textLength="86" x="1600" y="559.291">SymbolNode</text><line style="stroke:#181818;stroke-width:0.5;" x1="1572" x2="1688" y1="570" y2="570"/><line style="stroke:#181818;stroke-width:0.5;" x1="1572" x2="1688" y1="578" y2="578"/></g><!--MD5=[99c5e705886eece2366dda9ad4f6d474]
class LiteralNode--><g id="elem_LiteralNode"><rect codeLine="12" fill="#F1F1F1" height="48" id="LiteralNode" rx="2.5" ry="2.5" style="stroke:#181818;stroke-width:0.5;" width="110" x="1724" y="538"/><ellipse cx="1739" cy="554" fill="#ADD1B2" rx="11" ry="11" style="stroke:#181818;stroke-width:1.0;"/><path d="M1741.4731,560.1431 Q1740.8921,560.4419 1740.2529,560.5913 Q1739.6138,560.7407 1738.9082,560.7407 Q1736.4014,560.7407 1735.0815,559.0889 Q1733.7617,557.437 1733.7617,554.3159 Q1733.7617,551.1865 1735.0815,549.5347 Q1736.4014,547.8828 1738.9082,547.8828 Q1739.6138,547.8828 1740.2612,548.0322 Q1740.9087,548.1816 1741.4731,548.4805 L1741.4731,551.2031 Q1740.8423,550.6221 1740.2488,550.3523 Q1739.6553,550.0825 1739.0244,550.0825 Q1737.6797,550.0825 1736.9949,551.1492 Q1736.3101,552.2158 1736.3101,554.3159 Q1736.3101,556.4077 1736.9949,557.4744 Q1737.6797,558.541 1739.0244,558.541 Q1739.6553,558.541 1740.2488,558.2712 Q1740.8423,558.0015 1741.4731,557.4204 Z " fill="#000000"/><text fill="#000000" font-family="sans-serif" font-size="14" lengthAdjust="spacing" textLength="78" x="1753" y="559.291">LiteralNode</text><line style="stroke:#181818;stroke-width:0.5;" x1="1725" x2="1833" y1="570" y2="570"/><line style="stroke:#181818;stroke-width:0.5;" x1="1725" x2="1833" y1="578" y2="578"/></g><!--MD5=[8f50685565a8ce892276df8b6d18c748]
class CallNode--><g id="elem_CallNode"><rect codeLine="13" fill="#F1F1F1" height="48" id="CallNode" rx="2.5" ry="2.5" style="stroke:#181818;stroke-width:0.5;" width="94" x="7" y="322"/><ellipse cx="22" cy="338" fill="#ADD1B2" rx="11" ry="11" style="stroke:#181818;stroke-width:1.0;"/><path d="M24.4731,344.1431 Q23.8921,344.4419 23.2529,344.5913 Q22.6138,344.7407 21.9082,344.7407 Q19.4014,344.7407 18.0815,343.0889 Q16.7617,341.437 16.7617,338.3159 Q16.7617,335.1865 18.0815,333.5347 Q19.4014,331.8828 21.9082,331.8828 Q22.6138,331.8828 23.2612,332.0322 Q23.9087,332.1816 24.4731,332.4805 L24.4731,335.2031 Q23.8423,334.6221 23.2488,334.3523 Q22.6553,334.0825 22.0244,334.0825 Q20.6797,334.0825 19.9949,335.1492 Q19.3101,336.2158 19.3101,338.3159 Q19.3101,340.4077 19.9949,341.4744 Q20.6797,342.541 22.0244,342.541 Q22.6553,342.541 23.2488,342.2712 Q23.8423,342.0015 24.4731,341.4204 Z " fill="#000000"/><text fill="#000000" font-family="sans-serif" font-size="14" lengthAdjust="spacing" textLength="62" x="36" y="343.291">CallNode</text><line style="stroke:#181818;stroke-width:0.5;" x1="8" x2="100" y1="354" y2="354"/><line style="stroke:#181818;stroke-width:0.5;" x1="8" x2="100" y1="362" y2="362"/></g><!--MD5=[933c8d26f6207039faa5819638d192aa]
class AssignNode--><g id="elem_AssignNode"><rect codeLine="14" fill="#F1F1F1" height="48" id="AssignNode" rx="2.5" ry="2.5" style="stroke:#181818;stroke-width:0.5;" width="114" x="136" y="322"/><ellipse cx="151" cy="338" fill="#ADD1B2" rx="11" ry="11" style="stroke:#181818;stroke-width:1.0;"/><path d="M153.4731,344.1431 Q152.8921,344.4419 152.2529,344.5913 Q151.6138,344.7407 150.9082,344.7407 Q148.4014,344.7407 147.0815,343.0889 Q145.7617,341.437 145.7617,338.3159 Q145.7617,335.1865 147.0815,333.5347 Q148.4014,331.8828 150.9082,331.8828 Q151.6138,331.8828 152.2612,332.0322 Q152.9087,332.1816 153.4731,332.4805 L153.4731,335.2031 Q152.8423,334.6221 152.2488,334.3523 Q151.6553,334.0825 151.0244,334.0825 Q149.6797,334.0825 148.9949,335.1492 Q148.3101,336.2158 148.3101,338.3159 Q148.3101,340.4077 148.9949,341.4744 Q149.6797,342.541 151.0244,342.541 Q151.6553,342.541 152.2488,342.2712 Q152.8423,342.0015 153.4731,341.4204 Z " fill="#000000"/><text fill="#000000" font-family="sans-serif" font-size="14" lengthAdjust="spacing" textLength="82" x="165" y="343.291">AssignNode</text><line style="stroke:#181818;stroke-width:0.5;" x1="137" x2="249" y1="354" y2="354"/><line style="stroke:#181818;stroke-width:0.5;" x1="137" x2="249" y1="362" y2="362"/></g><!--MD5=[bcf5fa96861d641251ce3275ecf9cdec]
class ReadNode--><g id="elem_ReadNode"><rect codeLine="15" fill="#F1F1F1" height="48" id="ReadNode" rx="2.5" ry="2.5" style="stroke:#181818;stroke-width:0.5;" width="102" x="285" y="322"/><ellipse cx="300" cy="338" fill="#ADD1B2" rx="11" ry="11" style="stroke:#181818;stroke-width:1.0;"/><path d="M302.4731,344.1431 Q301.8921,344.4419 301.2529,344.5913 Q300.6138,344.7407 299.9082,344.7407 Q297.4014,344.7407 296.0815,343.0889 Q294.7617,341.437 294.7617,338.3159 Q294.7617,335.1865 296.0815,333.5347 Q297.4014,331.8828 299.9082,331.8828 Q300.6138,331.8828 301.2612,332.0322 Q301.9087,332.1816 302.4731,332.4805 L302.4731,335.2031 Q301.8423,334.6221 301.2488,334.3523 Q300.6553,334.0825 300.0244,334.0825 Q298.6797,334.0825 297.9949,335.1492 Q297.3101,336.2158 297.3101,338.3159 Q297.3101,340.4077 297.9949,341.4744 Q298.6797,342.541 300.0244,342.541 Q300.6553,342.541 301.2488,342.2712 Q301.8423,342.0015 302.4731,341.4204 Z " fill="#000000"/><text fill="#000000" font-family="sans-serif" font-size="14" lengthAdjust="spacing" textLength="70" x="314" y="343.291">ReadNode</text><line style="stroke:#181818;stroke-width:0.5;" x1="286" x2="386" y1="354" y2="354"/><line style="stroke:#181818;stroke-width:0.5;" x1="286" x2="386" y1="362" y2="362"/></g><!--MD5=[4ecf989d0bfd37435f604f87e9824258]
class PrintNode--><g id="elem_PrintNode"><rect codeLine="16" fill="#F1F1F1" height="48" id="PrintNode" rx="2.5" ry="2.5" style="stroke:#181818;stroke-width:0.5;" width="100" x="422" y="322"/><ellipse cx="437" cy="338" fill="#ADD1B2" rx="11" ry="11" style="stroke:#181818;stroke-width:1.0;"/><path d="M439.4731,344.1431 Q438.8921,344.4419 438.2529,344.5913 Q437.6138,344.7407 436.9082,344.7407 Q434.4014,344.7407 433.0815,343.0889 Q431.7617,341.437 431.7617,338.3159 Q431.7617,335.1865 433.0815,333.5347 Q434.4014,331.8828 436.9082,331.8828 Q437.6138,331.8828 438.2612,332.0322 Q438.9087,332.1816 439.4731,332.4805 L439.4731,335.2031 Q438.8423,334.6221 438.2488,334.3523 Q437.6553,334.0825 437.0244,334.0825 Q435.6797,334.0825 434.9949,335.1492 Q434.3101,336.2158 434.3101,338.3159 Q434.3101,340.4077 434.9949,341.4744 Q435.6797,342.541 437.0244,342.541 Q437.6553,342.541 438.2488,342.2712 Q438.8423,342.0015 439.4731,341.4204 Z " fill="#000000"/><text fill="#000000" font-family="sans-serif" font-size="14" lengthAdjust="spacing" textLength="68" x="451" y="343.291">PrintNode</text><line style="stroke:#181818;stroke-width:0.5;" x1="423" x2="521" y1="354" y2="354"/><line style="stroke:#181818;stroke-width:0.5;" x1="423" x2="521" y1="362" y2="362"/></g><!--MD5=[ae285a60b55aa88d325280180339527a]
class IfNode--><g id="elem_IfNode"><rect codeLine="17" fill="#F1F1F1" height="48" id="IfNode" rx="2.5" ry="2.5" style="stroke:#181818;stroke-width:0.5;" width="77" x="557.5" y="322"/><ellipse cx="572.5" cy="338" fill="#ADD1B2" rx="11" ry="11" style="stroke:#181818;stroke-width:1.0;"/><path d="M574.9731,344.1431 Q574.3921,344.4419 573.7529,344.5913 Q573.1138,344.7407 572.4082,344.7407 Q569.9014,344.7407 568.5815,343.0889 Q567.2617,341.437 567.2617,338.3159 Q567.2617,335.1865 568.5815,333.5347 Q569.9014,331.8828 572.4082,331.8828 Q573.1138,331.8828 573.7612,332.0322 Q574.4087,332.1816 574.9731,332.4805 L574.9731,335.2031 Q574.3423,334.6221 573.7488,334.3523 Q573.1553,334.0825 572.5244,334.0825 Q571.1797,334.0825 570.4949,335.1492 Q569.8101,336.2158 569.8101,338.3159 Q569.8101,340.4077 570.4949,341.4744 Q571.1797,342.541 572.5244,342.541 Q573.1553,342.541 573.7488,342.2712 Q574.3423,342.0015 574.9731,341.4204 Z " fill="#000000"/><text fill="#000000" font-family="sans-serif" font-size="14" lengthAdjust="spacing" textLength="45" x="586.5" y="343.291">IfNode</text><line style="stroke:#181818;stroke-width:0.5;" x1="558.5" x2="633.5" y1="354" y2="354"/><line style="stroke:#181818;stroke-width:0.5;" x1="558.5" x2="633.5" y1="362" y2="362"/></g><!--MD5=[d853d9ca514fd07347d63feeffb4c72b]
class WhileNode--><g id="elem_WhileNode"><rect codeLine="18" fill="#F1F1F1" height="48" id="WhileNode" rx="2.5" ry="2.5" style="stroke:#181818;stroke-width:0.5;" width="105" x="669.5" y="322"/><ellipse cx="684.5" cy="338" fill="#ADD1B2" rx="11" ry="11" style="stroke:#181818;stroke-width:1.0;"/><path d="M686.9731,344.1431 Q686.3921,344.4419 685.7529,344.5913 Q685.1138,344.7407 684.4082,344.7407 Q681.9014,344.7407 680.5815,343.0889 Q679.2617,341.437 679.2617,338.3159 Q679.2617,335.1865 680.5815,333.5347 Q681.9014,331.8828 684.4082,331.8828 Q685.1138,331.8828 685.7612,332.0322 Q686.4087,332.1816 686.9731,332.4805 L686.9731,335.2031 Q686.3423,334.6221 685.7488,334.3523 Q685.1553,334.0825 684.5244,334.0825 Q683.1797,334.0825 682.4949,335.1492 Q681.8101,336.2158 681.8101,338.3159 Q681.8101,340.4077 682.4949,341.4744 Q683.1797,342.541 684.5244,342.541 Q685.1553,342.541 685.7488,342.2712 Q686.3423,342.0015 686.9731,341.4204 Z " fill="#000000"/><text fill="#000000" font-family="sans-serif" font-size="14" lengthAdjust="spacing" textLength="73" x="698.5" y="343.291">WhileNode</text><line style="stroke:#181818;stroke-width:0.5;" x1="670.5" x2="773.5" y1="354" y2="354"/><line style="stroke:#181818;stroke-width:0.5;" x1="670.5" x2="773.5" y1="362" y2="362"/></g><!--MD5=[5d2b3be9621a8f2f1670ce74de485ce5]
class ProcedureNode--><g id="elem_ProcedureNode"><rect codeLine="19" fill="#F1F1F1" height="48" id="ProcedureNode" rx="2.5" ry="2.5" style="stroke:#181818;stroke-width:0.5;" width="138" x="1426" y="214"/><ellipse cx="1441" cy="230" fill="#ADD1B2" rx="11" ry="11" style="stroke:#181818;stroke-width:1.0;"/><path d="M1443.4731,236.1431 Q1442.8921,236.4419 1442.2529,236.5913 Q1441.6138,236.7407 1440.9082,236.7407 Q1438.4014,236.7407 1437.0815,235.0889 Q1435.7617,233.437 1435.7617,230.3159 Q1435.7617,227.1865 1437.0815,225.5347 Q1438.4014,223.8828 1440.9082,223.8828 Q1441.6138,223.8828 1442.2612,224.0322 Q1442.9087,224.1816 1443.4731,224.4805 L1443.4731,227.2031 Q1442.8423,226.6221 1442.2488,226.3523 Q1441.6553,226.0825 1441.0244,226.0825 Q1439.6797,226.0825 1438.9949,227.1492 Q1438.3101,228.2158 1438.3101,230.3159 Q1438.3101,232.4077 1438.9949,233.4744 Q1439.6797,234.541 1441.0244,234.541 Q1441.6553,234.541 1442.2488,234.2712 Q1442.8423,234.0015 1443.4731,233.4204 Z " fill="#000000"/><text fill="#000000" font-family="sans-serif" font-size="14" lengthAdjust="spacing" textLength="106" x="1455" y="235.291">ProcedureNode</text><line style="stroke:#181818;stroke-width:0.5;" x1="1427" x2="1563" y1="246" y2="246"/><line style="stroke:#181818;stroke-width:0.5;" x1="1427" x2="1563" y1="254" y2="254"/></g><!--MD5=[0322dbdb8d73088871e261daf2bc8c0b]
class StmtListNode--><g id="elem_StmtListNode"><rect codeLine="20" fill="#F1F1F1" height="48" id="StmtListNode" rx="2.5" ry="2.5" style="stroke:#181818;stroke-width:0.5;" width="122" x="1599" y="214"/><ellipse cx="1614" cy="230" fill="#ADD1B2" rx="11" ry="11" style="stroke:#181818;stroke-width:1.0;"/><path d="M1616.4731,236.1431 Q1615.8921,236.4419 1615.2529,236.5913 Q1614.6138,236.7407 1613.9082,236.7407 Q1611.4014,236.7407 1610.0815,235.0889 Q1608.7617,233.437 1608.7617,230.3159 Q1608.7617,227.1865 1610.0815,225.5347 Q1611.4014,223.8828 1613.9082,223.8828 Q1614.6138,223.8828 1615.2612,224.0322 Q1615.9087,224.1816 1616.4731,224.4805 L1616.4731,227.2031 Q1615.8423,226.6221 1615.2488,226.3523 Q1614.6553,226.0825 1614.0244,226.0825 Q1612.6797,226.0825 1611.9949,227.1492 Q1611.3101,228.2158 1611.3101,230.3159 Q1611.3101,232.4077 1611.9949,233.4744 Q1612.6797,234.541 1614.0244,234.541 Q1614.6553,234.541 1615.2488,234.2712 Q1615.8423,234.0015 1616.4731,233.4204 Z " fill="#000000"/><text fill="#000000" font-family="sans-serif" font-size="14" lengthAdjust="spacing" textLength="90" x="1628" y="235.291">StmtListNode</text><line style="stroke:#181818;stroke-width:0.5;" x1="1600" x2="1720" y1="246" y2="246"/><line style="stroke:#181818;stroke-width:0.5;" x1="1600" x2="1720" y1="254" y2="254"/></g><!--MD5=[e9bb6463f5d61e6d9eb1249e7a627f2a]
class ProgramNode--><g id="elem_ProgramNode"><rect fill="#F1F1F1" height="48" id="ProgramNode" rx="2.5" ry="2.5" style="stroke:#181818;stroke-width:0.5;" width="127" x="1756.5" y="214"/><ellipse cx="1771.5" cy="230" fill="#ADD1B2" rx="11" ry="11" style="stroke:#181818;stroke-width:1.0;"/><path d="M1773.9731,236.1431 Q1773.3921,236.4419 1772.7529,236.5913 Q1772.1138,236.7407 1771.4082,236.7407 Q1768.9014,236.7407 1767.5815,235.0889 Q1766.2617,233.437 1766.2617,230.3159 Q1766.2617,227.1865 1767.5815,225.5347 Q1768.9014,223.8828 1771.4082,223.8828 Q1772.1138,223.8828 1772.7612,224.0322 Q1773.4087,224.1816 1773.9731,224.4805 L1773.9731,227.2031 Q1773.3423,226.6221 1772.7488,226.3523 Q1772.1553,226.0825 1771.5244,226.0825 Q1770.1797,226.0825 1769.4949,227.1492 Q1768.8101,228.2158 1768.8101,230.3159 Q1768.8101,232.4077 1769.4949,233.4744 Q1770.1797,234.541 1771.5244,234.541 Q1772.1553,234.541 1772.7488,234.2712 Q1773.3423,234.0015 1773.9731,233.4204 Z " fill="#000000"/><text fill="#000000" font-family="sans-serif" font-size="14" lengthAdjust="spacing" textLength="95" x="1785.5" y="235.291">ProgramNode</text><line style="stroke:#181818;stroke-width:0.5;" x1="1757.5" x2="1882.5" y1="246" y2="246"/><line style="stroke:#181818;stroke-width:0.5;" x1="1757.5" x2="1882.5" y1="254" y2="254"/></g><!--MD5=[b3b56df124a822548c6661d3240bebdf]
class StatementNode--><g id="elem_StatementNode"><rect fill="#F1F1F1" height="48" id="StatementNode" rx="2.5" ry="2.5" style="stroke:#181818;stroke-width:0.5;" width="137" x="403.5" y="214"/><ellipse cx="418.5" cy="230" fill="#ADD1B2" rx="11" ry="11" style="stroke:#181818;stroke-width:1.0;"/><path d="M420.9731,236.1431 Q420.3921,236.4419 419.7529,236.5913 Q419.1138,236.7407 418.4082,236.7407 Q415.9014,236.7407 414.5815,235.0889 Q413.2617,233.437 413.2617,230.3159 Q413.2617,227.1865 414.5815,225.5347 Q415.9014,223.8828 418.4082,223.8828 Q419.1138,223.8828 419.7612,224.0322 Q420.4087,224.1816 420.9731,224.4805 L420.9731,227.2031 Q420.3423,226.6221 419.7488,226.3523 Q419.1553,226.0825 418.5244,226.0825 Q417.1797,226.0825 416.4949,227.1492 Q415.8101,228.2158 415.8101,230.3159 Q415.8101,232.4077 416.4949,233.4744 Q417.1797,234.541 418.5244,234.541 Q419.1553,234.541 419.7488,234.2712 Q420.3423,234.0015 420.9731,233.4204 Z " fill="#000000"/><text fill="#000000" font-family="sans-serif" font-size="14" lengthAdjust="spacing" textLength="105" x="432.5" y="235.291">StatementNode</text><line style="stroke:#181818;stroke-width:0.5;" x1="404.5" x2="539.5" y1="246" y2="246"/><line style="stroke:#181818;stroke-width:0.5;" x1="404.5" x2="539.5" y1="254" y2="254"/></g><!--MD5=[93f24e17965ae22571813b4e2e3c1663]
class CondExprNode--><g id="elem_CondExprNode"><rect fill="#F1F1F1" height="48" id="CondExprNode" rx="2.5" ry="2.5" style="stroke:#181818;stroke-width:0.5;" width="137" x="1022.5" y="214"/><ellipse cx="1037.5" cy="230" fill="#ADD1B2" rx="11" ry="11" style="stroke:#181818;stroke-width:1.0;"/><path d="M1039.9731,236.1431 Q1039.3921,236.4419 1038.7529,236.5913 Q1038.1138,236.7407 1037.4082,236.7407 Q1034.9014,236.7407 1033.5815,235.0889 Q1032.2617,233.437 1032.2617,230.3159 Q1032.2617,227.1865 1033.5815,225.5347 Q1034.9014,223.8828 1037.4082,223.8828 Q1038.1138,223.8828 1038.7612,224.0322 Q1039.4087,224.1816 1039.9731,224.4805 L1039.9731,227.2031 Q1039.3423,226.6221 1038.7488,226.3523 Q1038.1553,226.0825 1037.5244,226.0825 Q1036.1797,226.0825 1035.4949,227.1492 Q1034.8101,228.2158 1034.8101,230.3159 Q1034.8101,232.4077 1035.4949,233.4744 Q1036.1797,234.541 1037.5244,234.541 Q1038.1553,234.541 1038.7488,234.2712 Q1039.3423,234.0015 1039.9731,233.4204 Z " fill="#000000"/><text fill="#000000" font-family="sans-serif" font-size="14" lengthAdjust="spacing" textLength="105" x="1051.5" y="235.291">CondExprNode</text><line style="stroke:#181818;stroke-width:0.5;" x1="1023.5" x2="1158.5" y1="246" y2="246"/><line style="stroke:#181818;stroke-width:0.5;" x1="1023.5" x2="1158.5" y1="254" y2="254"/></g><!--MD5=[d3a1b599dc0550159b17893da81e53a4]
class RelFactorNode--><g id="elem_RelFactorNode"><rect fill="#F1F1F1" height="48" id="RelFactorNode" rx="2.5" ry="2.5" style="stroke:#181818;stroke-width:0.5;" width="132" x="1259" y="214"/><ellipse cx="1274" cy="230" fill="#ADD1B2" rx="11" ry="11" style="stroke:#181818;stroke-width:1.0;"/><path d="M1276.4731,236.1431 Q1275.8921,236.4419 1275.2529,236.5913 Q1274.6138,236.7407 1273.9082,236.7407 Q1271.4014,236.7407 1270.0815,235.0889 Q1268.7617,233.437 1268.7617,230.3159 Q1268.7617,227.1865 1270.0815,225.5347 Q1271.4014,223.8828 1273.9082,223.8828 Q1274.6138,223.8828 1275.2612,224.0322 Q1275.9087,224.1816 1276.4731,224.4805 L1276.4731,227.2031 Q1275.8423,226.6221 1275.2488,226.3523 Q1274.6553,226.0825 1274.0244,226.0825 Q1272.6797,226.0825 1271.9949,227.1492 Q1271.3101,228.2158 1271.3101,230.3159 Q1271.3101,232.4077 1271.9949,233.4744 Q1272.6797,234.541 1274.0244,234.541 Q1274.6553,234.541 1275.2488,234.2712 Q1275.8423,234.0015 1276.4731,233.4204 Z " fill="#000000"/><text fill="#000000" font-family="sans-serif" font-size="14" lengthAdjust="spacing" textLength="100" x="1288" y="235.291">RelFactorNode</text><line style="stroke:#181818;stroke-width:0.5;" x1="1260" x2="1390" y1="246" y2="246"/><line style="stroke:#181818;stroke-width:0.5;" x1="1260" x2="1390" y1="254" y2="254"/></g><!--MD5=[03cca6ecd699cdbe4859186212c3a758]
class ReferenceNode--><g id="elem_ReferenceNode"><rect fill="#F1F1F1" height="48" id="ReferenceNode" rx="2.5" ry="2.5" style="stroke:#181818;stroke-width:0.5;" width="136" x="1562" y="430"/><ellipse cx="1577" cy="446" fill="#ADD1B2" rx="11" ry="11" style="stroke:#181818;stroke-width:1.0;"/><path d="M1579.4731,452.1431 Q1578.8921,452.4419 1578.2529,452.5913 Q1577.6138,452.7407 1576.9082,452.7407 Q1574.4014,452.7407 1573.0815,451.0889 Q1571.7617,449.437 1571.7617,446.3159 Q1571.7617,443.1865 1573.0815,441.5347 Q1574.4014,439.8828 1576.9082,439.8828 Q1577.6138,439.8828 1578.2612,440.0322 Q1578.9087,440.1816 1579.4731,440.4805 L1579.4731,443.2031 Q1578.8423,442.6221 1578.2488,442.3523 Q1577.6553,442.0825 1577.0244,442.0825 Q1575.6797,442.0825 1574.9949,443.1492 Q1574.3101,444.2158 1574.3101,446.3159 Q1574.3101,448.4077 1574.9949,449.4744 Q1575.6797,450.541 1577.0244,450.541 Q1577.6553,450.541 1578.2488,450.2712 Q1578.8423,450.0015 1579.4731,449.4204 Z " fill="#000000"/><text fill="#000000" font-family="sans-serif" font-size="14" lengthAdjust="spacing" textLength="104" x="1591" y="451.291">ReferenceNode</text><line style="stroke:#181818;stroke-width:0.5;" x1="1563" x2="1697" y1="462" y2="462"/><line style="stroke:#181818;stroke-width:0.5;" x1="1563" x2="1697" y1="470" y2="470"/></g><!--MD5=[475d6310b0690b98eac8d3436b0f8c3b]
class ExprNode--><g id="elem_ExprNode"><rect fill="#F1F1F1" height="48" id="ExprNode" rx="2.5" ry="2.5" style="stroke:#181818;stroke-width:0.5;" width="100" x="1241" y="430"/><ellipse cx="1256" cy="446" fill="#ADD1B2" rx="11" ry="11" style="stroke:#181818;stroke-width:1.0;"/><path d="M1258.4731,452.1431 Q1257.8921,452.4419 1257.2529,452.5913 Q1256.6138,452.7407 1255.9082,452.7407 Q1253.4014,452.7407 1252.0815,451.0889 Q1250.7617,449.437 1250.7617,446.3159 Q1250.7617,443.1865 1252.0815,441.5347 Q1253.4014,439.8828 1255.9082,439.8828 Q1256.6138,439.8828 1257.2612,440.0322 Q1257.9087,440.1816 1258.4731,440.4805 L1258.4731,443.2031 Q1257.8423,442.6221 1257.2488,442.3523 Q1256.6553,442.0825 1256.0244,442.0825 Q1254.6797,442.0825 1253.9949,443.1492 Q1253.3101,444.2158 1253.3101,446.3159 Q1253.3101,448.4077 1253.9949,449.4744 Q1254.6797,450.541 1256.0244,450.541 Q1256.6553,450.541 1257.2488,450.2712 Q1257.8423,450.0015 1258.4731,449.4204 Z " fill="#000000"/><text fill="#000000" font-family="sans-serif" font-size="14" lengthAdjust="spacing" textLength="68" x="1270" y="451.291">ExprNode</text><line style="stroke:#181818;stroke-width:0.5;" x1="1242" x2="1340" y1="462" y2="462"/><line style="stroke:#181818;stroke-width:0.5;" x1="1242" x2="1340" y1="470" y2="470"/></g><!--MD5=[d3d47289e7ebf9d431bfae776415bd10]
class PlusNode--><g id="elem_PlusNode"><rect fill="#F1F1F1" height="48" id="PlusNode" rx="2.5" ry="2.5" style="stroke:#181818;stroke-width:0.5;" width="96" x="894" y="538"/><ellipse cx="909" cy="554" fill="#ADD1B2" rx="11" ry="11" style="stroke:#181818;stroke-width:1.0;"/><path d="M911.4731,560.1431 Q910.8921,560.4419 910.2529,560.5913 Q909.6138,560.7407 908.9082,560.7407 Q906.4014,560.7407 905.0815,559.0889 Q903.7617,557.437 903.7617,554.3159 Q903.7617,551.1865 905.0815,549.5347 Q906.4014,547.8828 908.9082,547.8828 Q909.6138,547.8828 910.2612,548.0322 Q910.9087,548.1816 911.4731,548.4805 L911.4731,551.2031 Q910.8423,550.6221 910.2488,550.3523 Q909.6553,550.0825 909.0244,550.0825 Q907.6797,550.0825 906.9949,551.1492 Q906.3101,552.2158 906.3101,554.3159 Q906.3101,556.4077 906.9949,557.4744 Q907.6797,558.541 909.0244,558.541 Q909.6553,558.541 910.2488,558.2712 Q910.8423,558.0015 911.4731,557.4204 Z " fill="#000000"/><text fill="#000000" font-family="sans-serif" font-size="14" lengthAdjust="spacing" textLength="64" x="923" y="559.291">PlusNode</text><line style="stroke:#181818;stroke-width:0.5;" x1="895" x2="989" y1="570" y2="570"/><line style="stroke:#181818;stroke-width:0.5;" x1="895" x2="989" y1="578" y2="578"/></g><!--MD5=[6023d7309ca27c27cd016d5e9fdf10e1]
class MinusNode--><g id="elem_MinusNode"><rect fill="#F1F1F1" height="48" id="MinusNode" rx="2.5" ry="2.5" style="stroke:#181818;stroke-width:0.5;" width="109" x="1025.5" y="538"/><ellipse cx="1040.5" cy="554" fill="#ADD1B2" rx="11" ry="11" style="stroke:#181818;stroke-width:1.0;"/><path d="M1042.9731,560.1431 Q1042.3921,560.4419 1041.7529,560.5913 Q1041.1138,560.7407 1040.4082,560.7407 Q1037.9014,560.7407 1036.5815,559.0889 Q1035.2617,557.437 1035.2617,554.3159 Q1035.2617,551.1865 1036.5815,549.5347 Q1037.9014,547.8828 1040.4082,547.8828 Q1041.1138,547.8828 1041.7612,548.0322 Q1042.4087,548.1816 1042.9731,548.4805 L1042.9731,551.2031 Q1042.3423,550.6221 1041.7488,550.3523 Q1041.1553,550.0825 1040.5244,550.0825 Q1039.1797,550.0825 1038.4949,551.1492 Q1037.8101,552.2158 1037.8101,554.3159 Q1037.8101,556.4077 1038.4949,557.4744 Q1039.1797,558.541 1040.5244,558.541 Q1041.1553,558.541 1041.7488,558.2712 Q1042.3423,558.0015 1042.9731,557.4204 Z " fill="#000000"/><text fill="#000000" font-family="sans-serif" font-size="14" lengthAdjust="spacing" textLength="77" x="1054.5" y="559.291">MinusNode</text><line style="stroke:#181818;stroke-width:0.5;" x1="1026.5" x2="1133.5" y1="570" y2="570"/><line style="stroke:#181818;stroke-width:0.5;" x1="1026.5" x2="1133.5" y1="578" y2="578"/></g><!--MD5=[9262217800b538fceacc7d4643196870]
class TimesNode--><g id="elem_TimesNode"><rect fill="#F1F1F1" height="48" id="TimesNode" rx="2.5" ry="2.5" style="stroke:#181818;stroke-width:0.5;" width="109" x="1169.5" y="538"/><ellipse cx="1184.5" cy="554" fill="#ADD1B2" rx="11" ry="11" style="stroke:#181818;stroke-width:1.0;"/><path d="M1186.9731,560.1431 Q1186.3921,560.4419 1185.7529,560.5913 Q1185.1138,560.7407 1184.4082,560.7407 Q1181.9014,560.7407 1180.5815,559.0889 Q1179.2617,557.437 1179.2617,554.3159 Q1179.2617,551.1865 1180.5815,549.5347 Q1181.9014,547.8828 1184.4082,547.8828 Q1185.1138,547.8828 1185.7612,548.0322 Q1186.4087,548.1816 1186.9731,548.4805 L1186.9731,551.2031 Q1186.3423,550.6221 1185.7488,550.3523 Q1185.1553,550.0825 1184.5244,550.0825 Q1183.1797,550.0825 1182.4949,551.1492 Q1181.8101,552.2158 1181.8101,554.3159 Q1181.8101,556.4077 1182.4949,557.4744 Q1183.1797,558.541 1184.5244,558.541 Q1185.1553,558.541 1185.7488,558.2712 Q1186.3423,558.0015 1186.9731,557.4204 Z " fill="#000000"/><text fill="#000000" font-family="sans-serif" font-size="14" lengthAdjust="spacing" textLength="77" x="1198.5" y="559.291">TimesNode</text><line style="stroke:#181818;stroke-width:0.5;" x1="1170.5" x2="1277.5" y1="570" y2="570"/><line style="stroke:#181818;stroke-width:0.5;" x1="1170.5" x2="1277.5" y1="578" y2="578"/></g><!--MD5=[b115dc6d0760ee4394d2de99dc2f16c0]
class DivNode--><g id="elem_DivNode"><rect fill="#F1F1F1" height="48" id="DivNode" rx="2.5" ry="2.5" style="stroke:#181818;stroke-width:0.5;" width="89" x="1313.5" y="538"/><ellipse cx="1328.5" cy="554" fill="#ADD1B2" rx="11" ry="11" style="stroke:#181818;stroke-width:1.0;"/><path d="M1330.9731,560.1431 Q1330.3921,560.4419 1329.7529,560.5913 Q1329.1138,560.7407 1328.4082,560.7407 Q1325.9014,560.7407 1324.5815,559.0889 Q1323.2617,557.437 1323.2617,554.3159 Q1323.2617,551.1865 1324.5815,549.5347 Q1325.9014,547.8828 1328.4082,547.8828 Q1329.1138,547.8828 1329.7612,548.0322 Q1330.4087,548.1816 1330.9731,548.4805 L1330.9731,551.2031 Q1330.3423,550.6221 1329.7488,550.3523 Q1329.1553,550.0825 1328.5244,550.0825 Q1327.1797,550.0825 1326.4949,551.1492 Q1325.8101,552.2158 1325.8101,554.3159 Q1325.8101,556.4077 1326.4949,557.4744 Q1327.1797,558.541 1328.5244,558.541 Q1329.1553,558.541 1329.7488,558.2712 Q1330.3423,558.0015 1330.9731,557.4204 Z " fill="#000000"/><text fill="#000000" font-family="sans-serif" font-size="14" lengthAdjust="spacing" textLength="57" x="1342.5" y="559.291">DivNode</text><line style="stroke:#181818;stroke-width:0.5;" x1="1314.5" x2="1401.5" y1="570" y2="570"/><line style="stroke:#181818;stroke-width:0.5;" x1="1314.5" x2="1401.5" y1="578" y2="578"/></g><!--MD5=[b4f63af355dd1952453fb939ea9dabd3]
class ModNode--><g id="elem_ModNode"><rect fill="#F1F1F1" height="48" id="ModNode" rx="2.5" ry="2.5" style="stroke:#181818;stroke-width:0.5;" width="98" x="1438" y="538"/><ellipse cx="1453" cy="554" fill="#ADD1B2" rx="11" ry="11" style="stroke:#181818;stroke-width:1.0;"/><path d="M1455.4731,560.1431 Q1454.8921,560.4419 1454.2529,560.5913 Q1453.6138,560.7407 1452.9082,560.7407 Q1450.4014,560.7407 1449.0815,559.0889 Q1447.7617,557.437 1447.7617,554.3159 Q1447.7617,551.1865 1449.0815,549.5347 Q1450.4014,547.8828 1452.9082,547.8828 Q1453.6138,547.8828 1454.2612,548.0322 Q1454.9087,548.1816 1455.4731,548.4805 L1455.4731,551.2031 Q1454.8423,550.6221 1454.2488,550.3523 Q1453.6553,550.0825 1453.0244,550.0825 Q1451.6797,550.0825 1450.9949,551.1492 Q1450.3101,552.2158 1450.3101,554.3159 Q1450.3101,556.4077 1450.9949,557.4744 Q1451.6797,558.541 1453.0244,558.541 Q1453.6553,558.541 1454.2488,558.2712 Q1454.8423,558.0015 1455.4731,557.4204 Z " fill="#000000"/><text fill="#000000" font-family="sans-serif" font-size="14" lengthAdjust="spacing" textLength="66" x="1467" y="559.291">ModNode</text><line style="stroke:#181818;stroke-width:0.5;" x1="1439" x2="1535" y1="570" y2="570"/><line style="stroke:#181818;stroke-width:0.5;" x1="1439" x2="1535" y1="578" y2="578"/></g><!--MD5=[170042e33094fdec2be0ad2fdd8dccee]
class NotExprNode--><g id="elem_NotExprNode"><rect fill="#F1F1F1" height="48" id="NotExprNode" rx="2.5" ry="2.5" style="stroke:#181818;stroke-width:0.5;" width="124" x="810" y="322"/><ellipse cx="825" cy="338" fill="#ADD1B2" rx="11" ry="11" style="stroke:#181818;stroke-width:1.0;"/><path d="M827.4731,344.1431 Q826.8921,344.4419 826.2529,344.5913 Q825.6138,344.7407 824.9082,344.7407 Q822.4014,344.7407 821.0815,343.0889 Q819.7617,341.437 819.7617,338.3159 Q819.7617,335.1865 821.0815,333.5347 Q822.4014,331.8828 824.9082,331.8828 Q825.6138,331.8828 826.2612,332.0322 Q826.9087,332.1816 827.4731,332.4805 L827.4731,335.2031 Q826.8423,334.6221 826.2488,334.3523 Q825.6553,334.0825 825.0244,334.0825 Q823.6797,334.0825 822.9949,335.1492 Q822.3101,336.2158 822.3101,338.3159 Q822.3101,340.4077 822.9949,341.4744 Q823.6797,342.541 825.0244,342.541 Q825.6553,342.541 826.2488,342.2712 Q826.8423,342.0015 827.4731,341.4204 Z " fill="#000000"/><text fill="#000000" font-family="sans-serif" font-size="14" lengthAdjust="spacing" textLength="92" x="839" y="343.291">NotExprNode</text><line style="stroke:#181818;stroke-width:0.5;" x1="811" x2="933" y1="354" y2="354"/><line style="stroke:#181818;stroke-width:0.5;" x1="811" x2="933" y1="362" y2="362"/></g><!--MD5=[3eee78a513eb05b25c5c70c554af7962]
class BinaryCondExprNode--><g id="elem_BinaryCondExprNode"><rect fill="#F1F1F1" height="48" id="BinaryCondExprNode" rx="2.5" ry="2.5" style="stroke:#181818;stroke-width:0.5;" width="179" x="969.5" y="322"/><ellipse cx="984.5" cy="338" fill="#ADD1B2" rx="11" ry="11" style="stroke:#181818;stroke-width:1.0;"/><path d="M986.9731,344.1431 Q986.3921,344.4419 985.7529,344.5913 Q985.1138,344.7407 984.4082,344.7407 Q981.9014,344.7407 980.5815,343.0889 Q979.2617,341.437 979.2617,338.3159 Q979.2617,335.1865 980.5815,333.5347 Q981.9014,331.8828 984.4082,331.8828 Q985.1138,331.8828 985.7612,332.0322 Q986.4087,332.1816 986.9731,332.4805 L986.9731,335.2031 Q986.3423,334.6221 985.7488,334.3523 Q985.1553,334.0825 984.5244,334.0825 Q983.1797,334.0825 982.4949,335.1492 Q981.8101,336.2158 981.8101,338.3159 Q981.8101,340.4077 982.4949,341.4744 Q983.1797,342.541 984.5244,342.541 Q985.1553,342.541 985.7488,342.2712 Q986.3423,342.0015 986.9731,341.4204 Z " fill="#000000"/><text fill="#000000" font-family="sans-serif" font-size="14" lengthAdjust="spacing" textLength="147" x="998.5" y="343.291">BinaryCondExprNode</text><line style="stroke:#181818;stroke-width:0.5;" x1="970.5" x2="1147.5" y1="354" y2="354"/><line style="stroke:#181818;stroke-width:0.5;" x1="970.5" x2="1147.5" y1="362" y2="362"/></g><!--MD5=[3f06257502143913d5453ff5f74b22fb]
class RelExprNode--><g id="elem_RelExprNode"><rect fill="#F1F1F1" height="48" id="RelExprNode" rx="2.5" ry="2.5" style="stroke:#181818;stroke-width:0.5;" width="121" x="1183.5" y="322"/><ellipse cx="1198.5" cy="338" fill="#ADD1B2" rx="11" ry="11" style="stroke:#181818;stroke-width:1.0;"/><path d="M1200.9731,344.1431 Q1200.3921,344.4419 1199.7529,344.5913 Q1199.1138,344.7407 1198.4082,344.7407 Q1195.9014,344.7407 1194.5815,343.0889 Q1193.2617,341.437 1193.2617,338.3159 Q1193.2617,335.1865 1194.5815,333.5347 Q1195.9014,331.8828 1198.4082,331.8828 Q1199.1138,331.8828 1199.7612,332.0322 Q1200.4087,332.1816 1200.9731,332.4805 L1200.9731,335.2031 Q1200.3423,334.6221 1199.7488,334.3523 Q1199.1553,334.0825 1198.5244,334.0825 Q1197.1797,334.0825 1196.4949,335.1492 Q1195.8101,336.2158 1195.8101,338.3159 Q1195.8101,340.4077 1196.4949,341.4744 Q1197.1797,342.541 1198.5244,342.541 Q1199.1553,342.541 1199.7488,342.2712 Q1200.3423,342.0015 1200.9731,341.4204 Z " fill="#000000"/><text fill="#000000" font-family="sans-serif" font-size="14" lengthAdjust="spacing" textLength="89" x="1212.5" y="343.291">RelExprNode</text><line style="stroke:#181818;stroke-width:0.5;" x1="1184.5" x2="1303.5" y1="354" y2="354"/><line style="stroke:#181818;stroke-width:0.5;" x1="1184.5" x2="1303.5" y1="362" y2="362"/></g><!--MD5=[9c8e9379037173e3d360feaee0bd556f]
reverse link Node to ProgramNode--><g id="link_Node_ProgramNode"><path codeLine="23" d="M1579.37,145.73 C1642.62,169.72 1710.54,195.49 1758.04,213.5 " fill="none" id="Node-backto-ProgramNode" style="stroke:#181818;stroke-width:1.0;"/><polygon fill="none" points="1577.1,152.36,1560.88,138.73,1582.07,139.27,1577.1,152.36" style="stroke:#181818;stroke-width:1.0;"/></g><!--MD5=[2079a787b6de6abbc82169d71b58051b]
reverse link Node to ProcedureNode--><g id="link_Node_ProcedureNode"><path codeLine="24" d="M1459.94,172.86 C1468.19,187.96 1476.06,202.35 1482.25,213.67 " fill="none" id="Node-backto-ProcedureNode" style="stroke:#181818;stroke-width:1.0;"/><polygon fill="none" points="1453.94,176.48,1450.49,155.57,1466.22,169.76,1453.94,176.48" style="stroke:#181818;stroke-width:1.0;"/></g><!--MD5=[e9b5d95ea5f8c0ed4fe7f2e237fee1ff]
reverse link Node to StmtListNode--><g id="link_Node_StmtListNode"><path codeLine="25" d="M1545.46,165.76 C1573.76,183.36 1601.33,200.51 1622.33,213.57 " fill="none" id="Node-backto-StmtListNode" style="stroke:#181818;stroke-width:1.0;"/><polygon fill="none" points="1541.88,171.78,1528.6,155.27,1549.28,159.89,1541.88,171.78" style="stroke:#181818;stroke-width:1.0;"/></g><!--MD5=[b81b402171a851d25f8db723fbab1bd4]
reverse link Node to StatementNode--><g id="link_Node_StatementNode"><path codeLine="26" d="M1239.58,109.75 C1030.82,144.36 686.96,201.36 540.98,225.56 " fill="none" id="Node-backto-StatementNode" style="stroke:#181818;stroke-width:1.0;"/><polygon fill="none" points="1238.22,102.88,1259.1,106.52,1240.51,116.69,1238.22,102.88" style="stroke:#181818;stroke-width:1.0;"/></g><!--MD5=[a13dd4af5f31e8170a4b22b155e0ea38]
reverse link Node to CondExprNode--><g id="link_Node_CondExprNode"><path codeLine="27" d="M1241.62,163.58 C1203.88,181.98 1166.79,200.05 1138.87,213.67 " fill="none" id="Node-backto-CondExprNode" style="stroke:#181818;stroke-width:1.0;"/><polygon fill="none" points="1238.37,157.38,1259.41,154.91,1244.5,169.96,1238.37,157.38" style="stroke:#181818;stroke-width:1.0;"/></g><!--MD5=[13b8cbddf60fabd7cb3af4045c183e96]
reverse link Node to RelFactorNode--><g id="link_Node_RelFactorNode"><path codeLine="28" d="M1360.06,172.86 C1351.81,187.96 1343.94,202.35 1337.75,213.67 " fill="none" id="Node-backto-RelFactorNode" style="stroke:#181818;stroke-width:1.0;"/><polygon fill="none" points="1353.78,169.76,1369.51,155.57,1366.06,176.48,1353.78,169.76" style="stroke:#181818;stroke-width:1.0;"/></g><!--MD5=[71c40b41b9779ff60f23085590932992]
reverse link RelFactorNode to ReferenceNode--><g id="link_RelFactorNode_ReferenceNode"><path codeLine="31" d="M1375.46,274.4 C1438.18,318.41 1543.45,392.27 1596.82,429.72 " fill="none" id="RelFactorNode-backto-ReferenceNode" style="stroke:#181818;stroke-width:1.0;"/><polygon fill="none" points="1371.81,280.4,1359.46,263.18,1379.85,268.94,1371.81,280.4" style="stroke:#181818;stroke-width:1.0;"/></g><!--MD5=[df05d04429caf00f15a98998eaecd11d]
reverse link ReferenceNode to SymbolNode--><g id="link_ReferenceNode_SymbolNode"><path codeLine="32" d="M1630,499.72 C1630,512.82 1630,526.62 1630,537.79 " fill="none" id="ReferenceNode-backto-SymbolNode" style="stroke:#181818;stroke-width:1.0;"/><polygon fill="none" points="1623,499.78,1630,479.78,1637,499.78,1623,499.78" style="stroke:#181818;stroke-width:1.0;"/></g><!--MD5=[9ffd67ea7e24c64e441021c695acf7be]
reverse link ReferenceNode to LiteralNode--><g id="link_ReferenceNode_LiteralNode"><path codeLine="33" d="M1680.06,490.62 C1701.84,506.11 1726.74,523.82 1746.12,537.61 " fill="none" id="ReferenceNode-backto-LiteralNode" style="stroke:#181818;stroke-width:1.0;"/><polygon fill="none" points="1676.17,496.44,1663.93,479.14,1684.29,485.03,1676.17,496.44" style="stroke:#181818;stroke-width:1.0;"/></g><!--MD5=[183c3f8319782f0ce8fa13a63a4d11e0]
reverse link RelFactorNode to ExprNode--><g id="link_RelFactorNode_ExprNode"><path codeLine="36" d="M1327.64,283.6 C1328.24,309.12 1327.47,341.61 1322,370 C1317.99,390.84 1309.29,413.33 1302.13,429.64 " fill="none" id="RelFactorNode-backto-ExprNode" style="stroke:#181818;stroke-width:1.0;"/><polygon fill="none" points="1320.66,284.22,1326.86,263.95,1334.65,283.66,1320.66,284.22" style="stroke:#181818;stroke-width:1.0;"/></g><!--MD5=[fa9300ca8311b7665739af2a0b38563d]
reverse link ExprNode to PlusNode--><g id="link_ExprNode_PlusNode"><path codeLine="37" d="M1219.98,474.76 C1162.57,491 1079.77,514.99 1008,538 C1002.22,539.85 996.18,541.86 990.21,543.89 " fill="none" id="ExprNode-backto-PlusNode" style="stroke:#181818;stroke-width:1.0;"/><polygon fill="none" points="1218.06,468.03,1239.21,469.35,1221.86,481.51,1218.06,468.03" style="stroke:#181818;stroke-width:1.0;"/></g><!--MD5=[d3317c50a9fec997f96e0e2e5263d984]
reverse link ExprNode to MinusNode--><g id="link_ExprNode_MinusNode"><path codeLine="38" d="M1225.35,487.98 C1193.28,504.09 1155.47,523.09 1126.45,537.67 " fill="none" id="ExprNode-backto-MinusNode" style="stroke:#181818;stroke-width:1.0;"/><polygon fill="none" points="1222.07,481.8,1243.08,479.07,1228.35,494.31,1222.07,481.8" style="stroke:#181818;stroke-width:1.0;"/></g><!--MD5=[68affaae7fe3e7a97fed16739ce434f6]
reverse link ExprNode to TimesNode--><g id="link_ExprNode_TimesNode"><path codeLine="39" d="M1264.87,496.34 C1255.97,510.42 1246.34,525.65 1238.67,537.79 " fill="none" id="ExprNode-backto-TimesNode" style="stroke:#181818;stroke-width:1.0;"/><polygon fill="none" points="1258.88,492.71,1275.49,479.54,1270.72,500.19,1258.88,492.71" style="stroke:#181818;stroke-width:1.0;"/></g><!--MD5=[108ee4ccaf6752efe53a3988a4908b01]
reverse link ExprNode to DivNode--><g id="link_ExprNode_DivNode"><path codeLine="40" d="M1317.13,496.34 C1326.03,510.42 1335.66,525.65 1343.33,537.79 " fill="none" id="ExprNode-backto-DivNode" style="stroke:#181818;stroke-width:1.0;"/><polygon fill="none" points="1311.28,500.19,1306.51,479.54,1323.12,492.71,1311.28,500.19" style="stroke:#181818;stroke-width:1.0;"/></g><!--MD5=[9cdc07f37cea1702b888812b21993110]
reverse link ExprNode to ModNode--><g id="link_ExprNode_ModNode"><path codeLine="41" d="M1352.59,488.31 C1382.2,504.32 1416.99,523.14 1443.75,537.61 " fill="none" id="ExprNode-backto-ModNode" style="stroke:#181818;stroke-width:1.0;"/><polygon fill="none" points="1349.61,494.65,1335.34,478.98,1356.27,482.34,1349.61,494.65" style="stroke:#181818;stroke-width:1.0;"/></g><!--MD5=[afc31d4f454db420ed8f1e0cf0d81d4b]
reverse link CondExprNode to NotExprNode--><g id="link_CondExprNode_NotExprNode"><path codeLine="44" d="M1023.33,271.76 C989.95,287.91 950.47,307.02 920.21,321.67 " fill="none" id="CondExprNode-backto-NotExprNode" style="stroke:#181818;stroke-width:1.0;"/><polygon fill="none" points="1020.25,265.47,1041.31,263.05,1026.35,278.07,1020.25,265.47" style="stroke:#181818;stroke-width:1.0;"/></g><!--MD5=[95fbc1af5f85f35cab0608d26ca2bb8e]
reverse link CondExprNode to BinaryCondExprNode--><g id="link_CondExprNode_BinaryCondExprNode"><path codeLine="45" d="M1077.79,282.75 C1073.75,296.14 1069.46,310.34 1066.01,321.79 " fill="none" id="CondExprNode-backto-BinaryCondExprNode" style="stroke:#181818;stroke-width:1.0;"/><polygon fill="none" points="1071.06,280.83,1083.54,263.71,1084.46,284.88,1071.06,280.83" style="stroke:#181818;stroke-width:1.0;"/></g><!--MD5=[8dcde8288cf76710dd128f0edcb15665]
reverse link CondExprNode to RelExprNode--><g id="link_CondExprNode_RelExprNode"><path codeLine="46" d="M1142.07,274.38 C1164.51,289.93 1190.24,307.76 1210.24,321.61 " fill="none" id="CondExprNode-backto-RelExprNode" style="stroke:#181818;stroke-width:1.0;"/><polygon fill="none" points="1138.27,280.27,1125.82,263.12,1146.25,268.76,1138.27,280.27" style="stroke:#181818;stroke-width:1.0;"/></g><!--MD5=[7983c30bd081372876b66d014fd9ef12]
reverse link StatementNode to CallNode--><g id="link_StatementNode_CallNode"><path codeLine="49" d="M382.37,257.04 C310.36,272.25 206.92,295.69 118,322 C112.57,323.61 106.92,325.42 101.33,327.31 " fill="none" id="StatementNode-backto-CallNode" style="stroke:#181818;stroke-width:1.0;"/><polygon fill="none" points="380.71,250.24,401.71,253,383.57,263.94,380.71,250.24" style="stroke:#181818;stroke-width:1.0;"/></g><!--MD5=[8b7b0ff29270f860ccac8e22a5323111]
reverse link StatementNode to AssignNode--><g id="link_StatementNode_AssignNode"><path codeLine="50" d="M390.51,269.96 C345.46,287.08 290.6,307.92 250.14,323.29 " fill="none" id="StatementNode-backto-AssignNode" style="stroke:#181818;stroke-width:1.0;"/><polygon fill="none" points="387.83,263.49,409.01,262.93,392.8,276.58,387.83,263.49" style="stroke:#181818;stroke-width:1.0;"/></g><!--MD5=[2453eeae208b176d1c010f18880fb779]
reverse link StatementNode to ReadNode--><g id="link_StatementNode_ReadNode"><path codeLine="51" d="M425.35,275.36 C405.61,290.74 383.21,308.2 365.78,321.79 " fill="none" id="StatementNode-backto-ReadNode" style="stroke:#181818;stroke-width:1.0;"/><polygon fill="none" points="420.88,269.97,440.96,263.19,429.49,281.01,420.88,269.97" style="stroke:#181818;stroke-width:1.0;"/></g><!--MD5=[67f77f31cb2a5ba7c3d2472e3e47efc3]
reverse link StatementNode to PrintNode--><g id="link_StatementNode_PrintNode"><path codeLine="52" d="M472,283.72 C472,296.82 472,310.62 472,321.79 " fill="none" id="StatementNode-backto-PrintNode" style="stroke:#181818;stroke-width:1.0;"/><polygon fill="none" points="465,283.78,472,263.78,479,283.78,465,283.78" style="stroke:#181818;stroke-width:1.0;"/></g><!--MD5=[05c5ecbe06d4a38032d4c1aba0e2c9a1]
reverse link StatementNode to IfNode--><g id="link_StatementNode_IfNode"><path codeLine="53" d="M515.36,276.07 C533.15,291.27 553.2,308.41 568.85,321.79 " fill="none" id="StatementNode-backto-IfNode" style="stroke:#181818;stroke-width:1.0;"/><polygon fill="none" points="511.02,281.56,500.36,263.25,520.11,270.92,511.02,281.56" style="stroke:#181818;stroke-width:1.0;"/></g><!--MD5=[01777f88d8d126711e841afeb23615fb]
reverse link StatementNode to WhileNode--><g id="link_StatementNode_WhileNode"><path codeLine="54" d="M546.93,270.77 C586.3,287.46 633.6,307.52 669.11,322.57 " fill="none" id="StatementNode-backto-WhileNode" style="stroke:#181818;stroke-width:1.0;"/><polygon fill="none" points="544.25,277.24,528.57,262.98,549.71,264.35,544.25,277.24" style="stroke:#181818;stroke-width:1.0;"/></g><!--MD5=[453d68f07be273d1df493b60d5a7098f]
@startuml

abstract class Node {
    NodeType node_type_
    NodeType GetNodeType()
    Node[] GetChildren()
    void VisitAll(Function<Node, void>)
    void VisitChildren(Function<Node, void>)
    String ToString()
}

class SymbolNode
class LiteralNode
class CallNode
class AssignNode
class ReadNode
class PrintNode
class IfNode
class WhileNode
class ProcedureNode
class StmtListNode

'base nodes
ProgramNode -up-|> Node
ProcedureNode -up-|> Node
StmtListNode -up-|> Node
StatementNode -up-|> Node
CondExprNode -up-|> Node
RelFactorNode -up-|> Node

'atomic nodes
ReferenceNode - -up-|> RelFactorNode
SymbolNode -up-|> ReferenceNode
LiteralNode -up-|> ReferenceNode

'expression nodes
ExprNode - -up-|> RelFactorNode
PlusNode -up-|> ExprNode
MinusNode -up-|> ExprNode
TimesNode -up-|> ExprNode
DivNode -up-|> ExprNode
ModNode -up-|> ExprNode

'cond expr nodes
NotExprNode -up-|> CondExprNode
BinaryCondExprNode -up-|> CondExprNode
RelExprNode -up-|> CondExprNode

'statements
CallNode -up-|> StatementNode
AssignNode -up-|> StatementNode
ReadNode -up-|> StatementNode
PrintNode -up-|> StatementNode
IfNode -up-|> StatementNode
WhileNode -up-|> StatementNode

@enduml

@startuml

abstract class Node {
    NodeType node_type_
    NodeType GetNodeType()
    Node[] GetChildren()
    void VisitAll(Function<Node, void>)
    void VisitChildren(Function<Node, void>)
    String ToString()
}

class SymbolNode
class LiteralNode
class CallNode
class AssignNode
class ReadNode
class PrintNode
class IfNode
class WhileNode
class ProcedureNode
class StmtListNode

ProgramNode -up-|> Node
ProcedureNode -up-|> Node
StmtListNode -up-|> Node
StatementNode -up-|> Node
CondExprNode -up-|> Node
RelFactorNode -up-|> Node

ReferenceNode - -up-|> RelFactorNode
SymbolNode -up-|> ReferenceNode
LiteralNode -up-|> ReferenceNode

ExprNode - -up-|> RelFactorNode
PlusNode -up-|> ExprNode
MinusNode -up-|> ExprNode
TimesNode -up-|> ExprNode
DivNode -up-|> ExprNode
ModNode -up-|> ExprNode

NotExprNode -up-|> CondExprNode
BinaryCondExprNode -up-|> CondExprNode
RelExprNode -up-|> CondExprNode

CallNode -up-|> StatementNode
AssignNode -up-|> StatementNode
ReadNode -up-|> StatementNode
PrintNode -up-|> StatementNode
IfNode -up-|> StatementNode
WhileNode -up-|> StatementNode

@enduml

PlantUML version 1.2022.12(Mon Oct 24 02:12:26 SGT 2022)
(GPL source distribution)
Java Runtime: OpenJDK Runtime Environment
JVM: OpenJDK 64-Bit Server VM
Default Encoding: US-ASCII
Language: en
Country: SG
--></g></svg>