<?xml version="1.0" encoding="UTF-8" standalone="no"?><svg xmlns="http://www.w3.org/2000/svg" xmlns:xlink="http://www.w3.org/1999/xlink" contentStyleType="text/css" height="269px" preserveAspectRatio="none" style="width:983px;height:269px;background:#FFFFFF;" version="1.1" viewBox="0 0 983 269" width="983px" zoomAndPan="magnify"><defs/><g><!--MD5=[3fee75583bb7a64f68d843a3c9534ab3]
class Node--><g id="elem_Node"><rect codeLine="2" fill="#F1F1F1" height="146.9297" id="Node" rx="2.5" ry="2.5" style="stroke:#181818;stroke-width:0.5;" width="298" x="336.5" y="7"/><ellipse cx="463.25" cy="23" fill="#A9DCDF" rx="11" ry="11" style="stroke:#181818;stroke-width:1.0;"/><path d="M463.1133,18.3481 L461.9595,23.4199 L464.2754,23.4199 Z M461.6191,16.1069 L464.6157,16.1069 L467.9609,28.5 L465.5122,28.5 L464.7485,25.437 L461.4697,25.437 L460.7227,28.5 L458.2739,28.5 Z " fill="#000000"/><text fill="#000000" font-family="sans-serif" font-size="14" font-style="italic" lengthAdjust="spacing" textLength="36" x="483.75" y="28.291">Node</text><line style="stroke:#181818;stroke-width:0.5;" x1="337.5" x2="633.5" y1="39" y2="39"/><text fill="#000000" font-family="sans-serif" font-size="14" lengthAdjust="spacing" textLength="151" x="342.5" y="56.5352">NodeType node_type_</text><line style="stroke:#181818;stroke-width:0.5;" x1="337.5" x2="633.5" y1="63.4883" y2="63.4883"/><text fill="#000000" font-family="sans-serif" font-size="14" lengthAdjust="spacing" textLength="175" x="342.5" y="81.0234">NodeType GetNodeType()</text><text fill="#000000" font-family="sans-serif" font-size="14" lengthAdjust="spacing" textLength="142" x="342.5" y="97.5117">Node[] GetChildren()</text><text fill="#000000" font-family="sans-serif" font-size="14" lengthAdjust="spacing" textLength="245" x="342.5" y="114">void VisitAll(Function&lt;Node, void&gt;)</text><text fill="#000000" font-family="sans-serif" font-size="14" lengthAdjust="spacing" textLength="286" x="342.5" y="130.4883">void VisitChildren(Function&lt;Node, void&gt;)</text><text fill="#000000" font-family="sans-serif" font-size="14" lengthAdjust="spacing" textLength="114" x="342.5" y="146.9766">String ToString()</text></g><!--MD5=[e9bb6463f5d61e6d9eb1249e7a627f2a]
class ProgramNode--><g id="elem_ProgramNode"><rect codeLine="11" fill="#F1F1F1" height="48" id="ProgramNode" rx="2.5" ry="2.5" style="stroke:#181818;stroke-width:0.5;" width="127" x="7" y="214"/><ellipse cx="22" cy="230" fill="#ADD1B2" rx="11" ry="11" style="stroke:#181818;stroke-width:1.0;"/><path d="M24.4731,236.1431 Q23.8921,236.4419 23.2529,236.5913 Q22.6138,236.7407 21.9082,236.7407 Q19.4014,236.7407 18.0815,235.0889 Q16.7617,233.437 16.7617,230.3159 Q16.7617,227.1865 18.0815,225.5347 Q19.4014,223.8828 21.9082,223.8828 Q22.6138,223.8828 23.2612,224.0322 Q23.9087,224.1816 24.4731,224.4805 L24.4731,227.2031 Q23.8423,226.6221 23.2488,226.3523 Q22.6553,226.0825 22.0244,226.0825 Q20.6797,226.0825 19.9949,227.1492 Q19.3101,228.2158 19.3101,230.3159 Q19.3101,232.4077 19.9949,233.4744 Q20.6797,234.541 22.0244,234.541 Q22.6553,234.541 23.2488,234.2712 Q23.8423,234.0015 24.4731,233.4204 Z " fill="#000000"/><text fill="#000000" font-family="sans-serif" font-size="14" lengthAdjust="spacing" textLength="95" x="36" y="235.291">ProgramNode</text><line style="stroke:#181818;stroke-width:0.5;" x1="8" x2="133" y1="246" y2="246"/><line style="stroke:#181818;stroke-width:0.5;" x1="8" x2="133" y1="254" y2="254"/></g><!--MD5=[5d2b3be9621a8f2f1670ce74de485ce5]
class ProcedureNode--><g id="elem_ProcedureNode"><rect codeLine="12" fill="#F1F1F1" height="48" id="ProcedureNode" rx="2.5" ry="2.5" style="stroke:#181818;stroke-width:0.5;" width="138" x="169.5" y="214"/><ellipse cx="184.5" cy="230" fill="#ADD1B2" rx="11" ry="11" style="stroke:#181818;stroke-width:1.0;"/><path d="M186.9731,236.1431 Q186.3921,236.4419 185.7529,236.5913 Q185.1138,236.7407 184.4082,236.7407 Q181.9014,236.7407 180.5815,235.0889 Q179.2617,233.437 179.2617,230.3159 Q179.2617,227.1865 180.5815,225.5347 Q181.9014,223.8828 184.4082,223.8828 Q185.1138,223.8828 185.7612,224.0322 Q186.4087,224.1816 186.9731,224.4805 L186.9731,227.2031 Q186.3423,226.6221 185.7488,226.3523 Q185.1553,226.0825 184.5244,226.0825 Q183.1797,226.0825 182.4949,227.1492 Q181.8101,228.2158 181.8101,230.3159 Q181.8101,232.4077 182.4949,233.4744 Q183.1797,234.541 184.5244,234.541 Q185.1553,234.541 185.7488,234.2712 Q186.3423,234.0015 186.9731,233.4204 Z " fill="#000000"/><text fill="#000000" font-family="sans-serif" font-size="14" lengthAdjust="spacing" textLength="106" x="198.5" y="235.291">ProcedureNode</text><line style="stroke:#181818;stroke-width:0.5;" x1="170.5" x2="306.5" y1="246" y2="246"/><line style="stroke:#181818;stroke-width:0.5;" x1="170.5" x2="306.5" y1="254" y2="254"/></g><!--MD5=[0322dbdb8d73088871e261daf2bc8c0b]
class StmtListNode--><g id="elem_StmtListNode"><rect codeLine="13" fill="#F1F1F1" height="48" id="StmtListNode" rx="2.5" ry="2.5" style="stroke:#181818;stroke-width:0.5;" width="122" x="342.5" y="214"/><ellipse cx="357.5" cy="230" fill="#ADD1B2" rx="11" ry="11" style="stroke:#181818;stroke-width:1.0;"/><path d="M359.9731,236.1431 Q359.3921,236.4419 358.7529,236.5913 Q358.1138,236.7407 357.4082,236.7407 Q354.9014,236.7407 353.5815,235.0889 Q352.2617,233.437 352.2617,230.3159 Q352.2617,227.1865 353.5815,225.5347 Q354.9014,223.8828 357.4082,223.8828 Q358.1138,223.8828 358.7612,224.0322 Q359.4087,224.1816 359.9731,224.4805 L359.9731,227.2031 Q359.3423,226.6221 358.7488,226.3523 Q358.1553,226.0825 357.5244,226.0825 Q356.1797,226.0825 355.4949,227.1492 Q354.8101,228.2158 354.8101,230.3159 Q354.8101,232.4077 355.4949,233.4744 Q356.1797,234.541 357.5244,234.541 Q358.1553,234.541 358.7488,234.2712 Q359.3423,234.0015 359.9731,233.4204 Z " fill="#000000"/><text fill="#000000" font-family="sans-serif" font-size="14" lengthAdjust="spacing" textLength="90" x="371.5" y="235.291">StmtListNode</text><line style="stroke:#181818;stroke-width:0.5;" x1="343.5" x2="463.5" y1="246" y2="246"/><line style="stroke:#181818;stroke-width:0.5;" x1="343.5" x2="463.5" y1="254" y2="254"/></g><!--MD5=[b3b56df124a822548c6661d3240bebdf]
class StatementNode--><g id="elem_StatementNode"><rect codeLine="14" fill="#F1F1F1" height="48" id="StatementNode" rx="2.5" ry="2.5" style="stroke:#181818;stroke-width:0.5;" width="137" x="500" y="214"/><ellipse cx="515" cy="230" fill="#ADD1B2" rx="11" ry="11" style="stroke:#181818;stroke-width:1.0;"/><path d="M517.4731,236.1431 Q516.8921,236.4419 516.2529,236.5913 Q515.6138,236.7407 514.9082,236.7407 Q512.4014,236.7407 511.0815,235.0889 Q509.7617,233.437 509.7617,230.3159 Q509.7617,227.1865 511.0815,225.5347 Q512.4014,223.8828 514.9082,223.8828 Q515.6138,223.8828 516.2612,224.0322 Q516.9087,224.1816 517.4731,224.4805 L517.4731,227.2031 Q516.8423,226.6221 516.2488,226.3523 Q515.6553,226.0825 515.0244,226.0825 Q513.6797,226.0825 512.9949,227.1492 Q512.3101,228.2158 512.3101,230.3159 Q512.3101,232.4077 512.9949,233.4744 Q513.6797,234.541 515.0244,234.541 Q515.6553,234.541 516.2488,234.2712 Q516.8423,234.0015 517.4731,233.4204 Z " fill="#000000"/><text fill="#000000" font-family="sans-serif" font-size="14" lengthAdjust="spacing" textLength="105" x="529" y="235.291">StatementNode</text><line style="stroke:#181818;stroke-width:0.5;" x1="501" x2="636" y1="246" y2="246"/><line style="stroke:#181818;stroke-width:0.5;" x1="501" x2="636" y1="254" y2="254"/></g><!--MD5=[93f24e17965ae22571813b4e2e3c1663]
class CondExprNode--><g id="elem_CondExprNode"><rect codeLine="15" fill="#F1F1F1" height="48" id="CondExprNode" rx="2.5" ry="2.5" style="stroke:#181818;stroke-width:0.5;" width="137" x="672" y="214"/><ellipse cx="687" cy="230" fill="#ADD1B2" rx="11" ry="11" style="stroke:#181818;stroke-width:1.0;"/><path d="M689.4731,236.1431 Q688.8921,236.4419 688.2529,236.5913 Q687.6138,236.7407 686.9082,236.7407 Q684.4014,236.7407 683.0815,235.0889 Q681.7617,233.437 681.7617,230.3159 Q681.7617,227.1865 683.0815,225.5347 Q684.4014,223.8828 686.9082,223.8828 Q687.6138,223.8828 688.2612,224.0322 Q688.9087,224.1816 689.4731,224.4805 L689.4731,227.2031 Q688.8423,226.6221 688.2488,226.3523 Q687.6553,226.0825 687.0244,226.0825 Q685.6797,226.0825 684.9949,227.1492 Q684.3101,228.2158 684.3101,230.3159 Q684.3101,232.4077 684.9949,233.4744 Q685.6797,234.541 687.0244,234.541 Q687.6553,234.541 688.2488,234.2712 Q688.8423,234.0015 689.4731,233.4204 Z " fill="#000000"/><text fill="#000000" font-family="sans-serif" font-size="14" lengthAdjust="spacing" textLength="105" x="701" y="235.291">CondExprNode</text><line style="stroke:#181818;stroke-width:0.5;" x1="673" x2="808" y1="246" y2="246"/><line style="stroke:#181818;stroke-width:0.5;" x1="673" x2="808" y1="254" y2="254"/></g><!--MD5=[d3a1b599dc0550159b17893da81e53a4]
class RelFactorNode--><g id="elem_RelFactorNode"><rect codeLine="16" fill="#F1F1F1" height="48" id="RelFactorNode" rx="2.5" ry="2.5" style="stroke:#181818;stroke-width:0.5;" width="132" x="844.5" y="214"/><ellipse cx="859.5" cy="230" fill="#ADD1B2" rx="11" ry="11" style="stroke:#181818;stroke-width:1.0;"/><path d="M861.9731,236.1431 Q861.3921,236.4419 860.7529,236.5913 Q860.1138,236.7407 859.4082,236.7407 Q856.9014,236.7407 855.5815,235.0889 Q854.2617,233.437 854.2617,230.3159 Q854.2617,227.1865 855.5815,225.5347 Q856.9014,223.8828 859.4082,223.8828 Q860.1138,223.8828 860.7612,224.0322 Q861.4087,224.1816 861.9731,224.4805 L861.9731,227.2031 Q861.3423,226.6221 860.7488,226.3523 Q860.1553,226.0825 859.5244,226.0825 Q858.1797,226.0825 857.4949,227.1492 Q856.8101,228.2158 856.8101,230.3159 Q856.8101,232.4077 857.4949,233.4744 Q858.1797,234.541 859.5244,234.541 Q860.1553,234.541 860.7488,234.2712 Q861.3423,234.0015 861.9731,233.4204 Z " fill="#000000"/><text fill="#000000" font-family="sans-serif" font-size="14" lengthAdjust="spacing" textLength="100" x="873.5" y="235.291">RelFactorNode</text><line style="stroke:#181818;stroke-width:0.5;" x1="845.5" x2="975.5" y1="246" y2="246"/><line style="stroke:#181818;stroke-width:0.5;" x1="845.5" x2="975.5" y1="254" y2="254"/></g><!--MD5=[9c8e9379037173e3d360feaee0bd556f]
reverse link Node to ProgramNode--><g id="link_Node_ProgramNode"><path codeLine="19" d="M316.37,144.87 C251.63,169.13 181.73,195.32 133.07,213.56 " fill="none" id="Node-backto-ProgramNode" style="stroke:#181818;stroke-width:1.0;"/><polygon fill="none" points="313.66,138.41,334.84,137.95,318.57,151.52,313.66,138.41" style="stroke:#181818;stroke-width:1.0;"/></g><!--MD5=[2079a787b6de6abbc82169d71b58051b]
reverse link Node to ProcedureNode--><g id="link_Node_ProcedureNode"><path codeLine="20" d="M351.67,165.76 C323.71,183.36 296.46,200.51 275.71,213.57 " fill="none" id="Node-backto-ProcedureNode" style="stroke:#181818;stroke-width:1.0;"/><polygon fill="none" points="347.66,160.01,368.31,155.28,355.12,171.85,347.66,160.01" style="stroke:#181818;stroke-width:1.0;"/></g><!--MD5=[e9b5d95ea5f8c0ed4fe7f2e237fee1ff]
reverse link Node to StmtListNode--><g id="link_Node_StmtListNode"><path codeLine="21" d="M437.33,172.86 C429.36,187.96 421.77,202.35 415.8,213.67 " fill="none" id="Node-backto-StmtListNode" style="stroke:#181818;stroke-width:1.0;"/><polygon fill="none" points="430.91,170.01,446.43,155.58,443.3,176.54,430.91,170.01" style="stroke:#181818;stroke-width:1.0;"/></g><!--MD5=[b81b402171a851d25f8db723fbab1bd4]
reverse link Node to StatementNode--><g id="link_Node_StatementNode"><path codeLine="22" d="M534.26,172.86 C542.32,187.96 550.01,202.35 556.05,213.67 " fill="none" id="Node-backto-StatementNode" style="stroke:#181818;stroke-width:1.0;"/><polygon fill="none" points="528.28,176.52,525.04,155.58,540.63,169.92,528.28,176.52" style="stroke:#181818;stroke-width:1.0;"/></g><!--MD5=[a13dd4af5f31e8170a4b22b155e0ea38]
reverse link Node to CondExprNode--><g id="link_Node_CondExprNode"><path codeLine="23" d="M623.26,165.51 C652.26,183.19 680.56,200.45 702.08,213.57 " fill="none" id="Node-backto-CondExprNode" style="stroke:#181818;stroke-width:1.0;"/><polygon fill="none" points="619.88,171.65,606.45,155.26,627.17,159.69,619.88,171.65" style="stroke:#181818;stroke-width:1.0;"/></g><!--MD5=[13b8cbddf60fabd7cb3af4045c183e96]
reverse link Node to RelFactorNode--><g id="link_Node_RelFactorNode"><path codeLine="24" d="M654.94,143.5 C722.27,168.13 795.62,194.97 846.39,213.54 " fill="none" id="Node-backto-RelFactorNode" style="stroke:#181818;stroke-width:1.0;"/><polygon fill="none" points="652.54,150.07,636.16,136.62,657.35,136.92,652.54,150.07" style="stroke:#181818;stroke-width:1.0;"/></g><!--MD5=[f20b43ae6f14b73e1d971a0238a58235]
@startuml

abstract class Node {
    NodeType node_type_
    NodeType GetNodeType()
    Node[] GetChildren()
    void VisitAll(Function<Node, void>)
    void VisitChildren(Function<Node, void>)
    String ToString()
}

class ProgramNode
class ProcedureNode
class StmtListNode
class StatementNode
class CondExprNode
class RelFactorNode

'base nodes
ProgramNode -up-|> Node
ProcedureNode -up-|> Node
StmtListNode -up-|> Node
StatementNode -up-|> Node
CondExprNode -up-|> Node
RelFactorNode -up-|> Node

@enduml

@startuml

abstract class Node {
    NodeType node_type_
    NodeType GetNodeType()
    Node[] GetChildren()
    void VisitAll(Function<Node, void>)
    void VisitChildren(Function<Node, void>)
    String ToString()
}

class ProgramNode
class ProcedureNode
class StmtListNode
class StatementNode
class CondExprNode
class RelFactorNode

ProgramNode -up-|> Node
ProcedureNode -up-|> Node
StmtListNode -up-|> Node
StatementNode -up-|> Node
CondExprNode -up-|> Node
RelFactorNode -up-|> Node

@enduml

PlantUML version 1.2022.12(Mon Oct 24 02:12:26 SGT 2022)
(GPL source distribution)
Java Runtime: OpenJDK Runtime Environment
JVM: OpenJDK 64-Bit Server VM
Default Encoding: US-ASCII
Language: en
Country: SG
--></g></svg>