<?xml version="1.0" encoding="UTF-8" standalone="no"?><svg xmlns="http://www.w3.org/2000/svg" xmlns:xlink="http://www.w3.org/1999/xlink" contentStyleType="text/css" height="351px" preserveAspectRatio="none" style="width:312px;height:351px;background:#FFFFFF;" version="1.1" viewBox="0 0 312 351" width="312px" zoomAndPan="magnify"><defs/><g><!--MD5=[3fee75583bb7a64f68d843a3c9534ab3]
class Node--><g id="elem_Node"><rect codeLine="2" fill="#F1F1F1" height="146.9297" id="Node" rx="2.5" ry="2.5" style="stroke:#181818;stroke-width:0.5;" width="298" x="7" y="7"/><ellipse cx="133.75" cy="23" fill="#A9DCDF" rx="11" ry="11" style="stroke:#181818;stroke-width:1.0;"/><path d="M133.6133,18.3481 L132.4595,23.4199 L134.7754,23.4199 Z M132.1191,16.1069 L135.1157,16.1069 L138.4609,28.5 L136.0122,28.5 L135.2485,25.437 L131.9697,25.437 L131.2227,28.5 L128.7739,28.5 Z " fill="#000000"/><text fill="#000000" font-family="sans-serif" font-size="14" font-style="italic" lengthAdjust="spacing" textLength="36" x="154.25" y="28.291">Node</text><line style="stroke:#181818;stroke-width:0.5;" x1="8" x2="304" y1="39" y2="39"/><text fill="#000000" font-family="sans-serif" font-size="14" lengthAdjust="spacing" textLength="151" x="13" y="56.5352">NodeType node_type_</text><line style="stroke:#181818;stroke-width:0.5;" x1="8" x2="304" y1="63.4883" y2="63.4883"/><text fill="#000000" font-family="sans-serif" font-size="14" lengthAdjust="spacing" textLength="175" x="13" y="81.0234">NodeType GetNodeType()</text><text fill="#000000" font-family="sans-serif" font-size="14" lengthAdjust="spacing" textLength="142" x="13" y="97.5117">Node[] GetChildren()</text><text fill="#000000" font-family="sans-serif" font-size="14" lengthAdjust="spacing" textLength="245" x="13" y="114">void VisitAll(Function&lt;Node, void&gt;)</text><text fill="#000000" font-family="sans-serif" font-size="14" lengthAdjust="spacing" textLength="286" x="13" y="130.4883">void VisitChildren(Function&lt;Node, void&gt;)</text><text fill="#000000" font-family="sans-serif" font-size="14" lengthAdjust="spacing" textLength="114" x="13" y="146.9766">String ToString()</text></g><!--MD5=[63b4e58b790faf6c11a51d35be884178]
class CFGNode--><g id="elem_CFGNode"><rect codeLine="11" fill="#F1F1F1" height="130.4414" id="CFGNode" rx="2.5" ry="2.5" style="stroke:#181818;stroke-width:0.5;" width="185" x="63.5" y="214"/><ellipse cx="119.75" cy="230" fill="#ADD1B2" rx="11" ry="11" style="stroke:#181818;stroke-width:1.0;"/><path d="M122.2231,236.1431 Q121.6421,236.4419 121.0029,236.5913 Q120.3638,236.7407 119.6582,236.7407 Q117.1514,236.7407 115.8315,235.0889 Q114.5117,233.437 114.5117,230.3159 Q114.5117,227.1865 115.8315,225.5347 Q117.1514,223.8828 119.6582,223.8828 Q120.3638,223.8828 121.0112,224.0322 Q121.6587,224.1816 122.2231,224.4805 L122.2231,227.2031 Q121.5923,226.6221 120.9988,226.3523 Q120.4053,226.0825 119.7744,226.0825 Q118.4297,226.0825 117.7449,227.1492 Q117.0601,228.2158 117.0601,230.3159 Q117.0601,232.4077 117.7449,233.4744 Q118.4297,234.541 119.7744,234.541 Q120.4053,234.541 120.9988,234.2712 Q121.5923,234.0015 122.2231,233.4204 Z " fill="#000000"/><text fill="#000000" font-family="sans-serif" font-size="14" lengthAdjust="spacing" textLength="64" x="140.25" y="235.291">CFGNode</text><line style="stroke:#181818;stroke-width:0.5;" x1="64.5" x2="247.5" y1="246" y2="246"/><text fill="#000000" font-family="sans-serif" font-size="14" lengthAdjust="spacing" textLength="79" x="69.5" y="263.5352">Entity stmt_</text><line style="stroke:#181818;stroke-width:0.5;" x1="64.5" x2="247.5" y1="270.4883" y2="270.4883"/><text fill="#000000" font-family="sans-serif" font-size="14" lengthAdjust="spacing" textLength="106" x="69.5" y="288.0234">Entity GetStmt()</text><text fill="#000000" font-family="sans-serif" font-size="14" lengthAdjust="spacing" textLength="143" x="69.5" y="304.5117">void AddChild(Node)</text><text fill="#000000" font-family="sans-serif" font-size="14" lengthAdjust="spacing" textLength="173" x="69.5" y="321">void SetChild(Node *, int)</text><text fill="#000000" font-family="sans-serif" font-size="14" lengthAdjust="spacing" textLength="117" x="69.5" y="337.4883">bool IsTerminal()</text></g><!--MD5=[9cfb45ccfb824f9b81dc3b336c54977d]
reverse link Node to CFGNode--><g id="link_Node_CFGNode"><path codeLine="19" d="M156,175.75 C156,188.58 156,201.5 156,213.64 " fill="none" id="Node-backto-CFGNode" style="stroke:#181818;stroke-width:1.0;"/><polygon fill="none" points="149,175.9,156,155.9,163,175.9,149,175.9" style="stroke:#181818;stroke-width:1.0;"/></g><!--MD5=[e12e69bf6596d0cce0cb7a296242ea6f]
@startuml

abstract class Node {
    NodeType node_type_
    NodeType GetNodeType()
    Node[] GetChildren()
    void VisitAll(Function<Node, void>)
    void VisitChildren(Function<Node, void>)
    String ToString()
}

class CFGNode {
    Entity stmt_
    Entity GetStmt()
    void AddChild(Node)
    void SetChild(Node *, int)
    bool IsTerminal()
}

Node <|-down- CFGNode

@enduml

PlantUML version 1.2022.12(Mon Oct 24 02:12:26 SGT 2022)
(GPL source distribution)
Java Runtime: OpenJDK Runtime Environment
JVM: OpenJDK 64-Bit Server VM
Default Encoding: US-ASCII
Language: en
Country: SG
--></g></svg>