<?xml version="1.0" encoding="UTF-8" standalone="no"?><svg xmlns="http://www.w3.org/2000/svg" xmlns:xlink="http://www.w3.org/1999/xlink" contentStyleType="text/css" height="502px" preserveAspectRatio="none" style="width:963px;height:502px;background:#FFFFFF;" version="1.1" viewBox="0 0 963 502" width="963px" zoomAndPan="magnify"><defs/><g><!--MD5=[df76e760f2062188d44f98c21a88999b]
class UI--><g id="elem_UI"><rect codeLine="2" fill="#F1F1F1" height="48" id="UI" rx="2.5" ry="2.5" style="stroke:#181818;stroke-width:0.5;" width="46" x="208" y="7"/><ellipse cx="223" cy="23" fill="#B4A7E5" rx="11" ry="11" style="stroke:#181818;stroke-width:1.0;"/><path d="M219.4277,19.2651 L219.4277,17.1069 L226.8071,17.1069 L226.8071,19.2651 L224.3418,19.2651 L224.3418,27.3418 L226.8071,27.3418 L226.8071,29.5 L219.4277,29.5 L219.4277,27.3418 L221.8931,27.3418 L221.8931,19.2651 Z " fill="#000000"/><text fill="#000000" font-family="sans-serif" font-size="14" font-style="italic" lengthAdjust="spacing" textLength="14" x="237" y="28.291">UI</text><line style="stroke:#181818;stroke-width:0.5;" x1="209" x2="253" y1="39" y2="39"/><line style="stroke:#181818;stroke-width:0.5;" x1="209" x2="253" y1="47" y2="47"/></g><!--MD5=[72fafe39a0b4fbb863f0a243b20773f7]
class IPKBPopulator--><g id="elem_IPKBPopulator"><rect codeLine="3" fill="#F1F1F1" height="48" id="IPKBPopulator" rx="2.5" ry="2.5" style="stroke:#181818;stroke-width:0.5;" width="128" x="289" y="7"/><ellipse cx="304" cy="23" fill="#B4A7E5" rx="11" ry="11" style="stroke:#181818;stroke-width:1.0;"/><path d="M300.4277,19.2651 L300.4277,17.1069 L307.8071,17.1069 L307.8071,19.2651 L305.3418,19.2651 L305.3418,27.3418 L307.8071,27.3418 L307.8071,29.5 L300.4277,29.5 L300.4277,27.3418 L302.8931,27.3418 L302.8931,19.2651 Z " fill="#000000"/><text fill="#000000" font-family="sans-serif" font-size="14" font-style="italic" lengthAdjust="spacing" textLength="96" x="318" y="28.291">IPKBPopulator</text><line style="stroke:#181818;stroke-width:0.5;" x1="290" x2="416" y1="39" y2="39"/><line style="stroke:#181818;stroke-width:0.5;" x1="290" x2="416" y1="47" y2="47"/></g><!--MD5=[d71d1ab749f02987107a92bcb0388bfb]
class SP--><g id="elem_SP"><rect codeLine="5" fill="#F1F1F1" height="64.4883" id="SP" rx="2.5" ry="2.5" style="stroke:#181818;stroke-width:0.5;" width="135" x="224.5" y="132"/><ellipse cx="279.75" cy="148" fill="#ADD1B2" rx="11" ry="11" style="stroke:#181818;stroke-width:1.0;"/><path d="M282.2231,154.1431 Q281.6421,154.4419 281.0029,154.5913 Q280.3638,154.7407 279.6582,154.7407 Q277.1514,154.7407 275.8315,153.0889 Q274.5117,151.437 274.5117,148.3159 Q274.5117,145.1865 275.8315,143.5347 Q277.1514,141.8828 279.6582,141.8828 Q280.3638,141.8828 281.0112,142.0322 Q281.6587,142.1816 282.2231,142.4805 L282.2231,145.2031 Q281.5923,144.6221 280.9988,144.3523 Q280.4053,144.0825 279.7744,144.0825 Q278.4297,144.0825 277.7449,145.1492 Q277.0601,146.2158 277.0601,148.3159 Q277.0601,150.4077 277.7449,151.4744 Q278.4297,152.541 279.7744,152.541 Q280.4053,152.541 280.9988,152.2712 Q281.5923,152.0015 282.2231,151.4204 Z " fill="#000000"/><text fill="#000000" font-family="sans-serif" font-size="14" lengthAdjust="spacing" textLength="16" x="300.25" y="153.291">SP</text><line style="stroke:#181818;stroke-width:0.5;" x1="225.5" x2="358.5" y1="164" y2="164"/><line style="stroke:#181818;stroke-width:0.5;" x1="225.5" x2="358.5" y1="172" y2="172"/><text fill="#000000" font-family="sans-serif" font-size="14" lengthAdjust="spacing" textLength="123" x="230.5" y="189.5352">void LoadSource()</text></g><!--MD5=[8ff175ab6a1849416c5f8a6c27b711a2]
class Lexer--><g id="elem_Lexer"><rect codeLine="8" fill="#F1F1F1" height="80.9766" id="Lexer" rx="2.5" ry="2.5" style="stroke:#181818;stroke-width:0.5;" width="144" x="7" y="273"/><ellipse cx="55.75" cy="289" fill="#ADD1B2" rx="11" ry="11" style="stroke:#181818;stroke-width:1.0;"/><path d="M58.2231,295.1431 Q57.6421,295.4419 57.0029,295.5913 Q56.3638,295.7407 55.6582,295.7407 Q53.1514,295.7407 51.8315,294.0889 Q50.5117,292.437 50.5117,289.3159 Q50.5117,286.1865 51.8315,284.5347 Q53.1514,282.8828 55.6582,282.8828 Q56.3638,282.8828 57.0112,283.0322 Q57.6587,283.1816 58.2231,283.4805 L58.2231,286.2031 Q57.5923,285.6221 56.9988,285.3523 Q56.4053,285.0825 55.7744,285.0825 Q54.4297,285.0825 53.7449,286.1492 Q53.0601,287.2158 53.0601,289.3159 Q53.0601,291.4077 53.7449,292.4744 Q54.4297,293.541 55.7744,293.541 Q56.4053,293.541 56.9988,293.2712 Q57.5923,293.0015 58.2231,292.4204 Z " fill="#000000"/><text fill="#000000" font-family="sans-serif" font-size="14" lengthAdjust="spacing" textLength="38" x="76.25" y="294.291">Lexer</text><line style="stroke:#181818;stroke-width:0.5;" x1="8" x2="150" y1="305" y2="305"/><line style="stroke:#181818;stroke-width:0.5;" x1="8" x2="150" y1="313" y2="313"/><text fill="#000000" font-family="sans-serif" font-size="14" lengthAdjust="spacing" textLength="132" x="13" y="330.5352">Token NextToken()</text><text fill="#000000" font-family="sans-serif" font-size="14" lengthAdjust="spacing" textLength="91" x="13" y="347.0234">Token[] Lex()</text></g><!--MD5=[d8c8cfd5ca149094f5b67f9f607a5ec7]
class Token--><g id="elem_Token"><rect codeLine="12" fill="#F1F1F1" height="48" id="Token" rx="2.5" ry="2.5" style="stroke:#181818;stroke-width:0.5;" width="75" x="41.5" y="439"/><ellipse cx="56.5" cy="455" fill="#A9DCDF" rx="11" ry="11" style="stroke:#181818;stroke-width:1.0;"/><path d="M56.3633,450.3481 L55.2095,455.4199 L57.5254,455.4199 Z M54.8691,448.1069 L57.8657,448.1069 L61.2109,460.5 L58.7622,460.5 L57.9985,457.437 L54.7197,457.437 L53.9727,460.5 L51.5239,460.5 Z " fill="#000000"/><text fill="#000000" font-family="sans-serif" font-size="14" font-style="italic" lengthAdjust="spacing" textLength="43" x="70.5" y="460.291">Token</text><line style="stroke:#181818;stroke-width:0.5;" x1="42.5" x2="115.5" y1="471" y2="471"/><line style="stroke:#181818;stroke-width:0.5;" x1="42.5" x2="115.5" y1="479" y2="479"/></g><!--MD5=[628cc5a2753cca06eb1ffef55c386535]
class Parser--><g id="elem_Parser"><rect codeLine="14" fill="#F1F1F1" height="80.9766" id="Parser" rx="2.5" ry="2.5" style="stroke:#181818;stroke-width:0.5;" width="211" x="186.5" y="273"/><ellipse cx="266.25" cy="289" fill="#ADD1B2" rx="11" ry="11" style="stroke:#181818;stroke-width:1.0;"/><path d="M268.7231,295.1431 Q268.1421,295.4419 267.5029,295.5913 Q266.8638,295.7407 266.1582,295.7407 Q263.6514,295.7407 262.3315,294.0889 Q261.0117,292.437 261.0117,289.3159 Q261.0117,286.1865 262.3315,284.5347 Q263.6514,282.8828 266.1582,282.8828 Q266.8638,282.8828 267.5112,283.0322 Q268.1587,283.1816 268.7231,283.4805 L268.7231,286.2031 Q268.0923,285.6221 267.4988,285.3523 Q266.9053,285.0825 266.2744,285.0825 Q264.9297,285.0825 264.2449,286.1492 Q263.5601,287.2158 263.5601,289.3159 Q263.5601,291.4077 264.2449,292.4744 Q264.9297,293.541 266.2744,293.541 Q266.9053,293.541 267.4988,293.2712 Q268.0923,293.0015 268.7231,292.4204 Z " fill="#000000"/><text fill="#000000" font-family="sans-serif" font-size="14" lengthAdjust="spacing" textLength="43" x="286.75" y="294.291">Parser</text><line style="stroke:#181818;stroke-width:0.5;" x1="187.5" x2="396.5" y1="305" y2="305"/><line style="stroke:#181818;stroke-width:0.5;" x1="187.5" x2="396.5" y1="313" y2="313"/><text fill="#000000" font-family="sans-serif" font-size="14" lengthAdjust="spacing" textLength="199" x="192.5" y="330.5352">Node ParseProgram(Token[])</text><text fill="#000000" font-family="sans-serif" font-size="14" lengthAdjust="spacing" textLength="193" x="192.5" y="347.0234">void ValidateProgram(Node)</text></g><!--MD5=[3c908b97469a4b1bcaf34af1a61f3bfb]
class ProgramGrammarRule--><g id="elem_ProgramGrammarRule"><rect codeLine="18" fill="#F1F1F1" height="64.4883" id="ProgramGrammarRule" rx="2.5" ry="2.5" style="stroke:#181818;stroke-width:0.5;" width="229" x="164.5" y="431"/><ellipse cx="199.3" cy="447" fill="#ADD1B2" rx="11" ry="11" style="stroke:#181818;stroke-width:1.0;"/><path d="M201.7731,453.1431 Q201.1921,453.4419 200.5529,453.5913 Q199.9138,453.7407 199.2082,453.7407 Q196.7014,453.7407 195.3815,452.0889 Q194.0617,450.437 194.0617,447.3159 Q194.0617,444.1865 195.3815,442.5347 Q196.7014,440.8828 199.2082,440.8828 Q199.9138,440.8828 200.5612,441.0322 Q201.2087,441.1816 201.7731,441.4805 L201.7731,444.2031 Q201.1423,443.6221 200.5488,443.3523 Q199.9553,443.0825 199.3244,443.0825 Q197.9797,443.0825 197.2949,444.1492 Q196.6101,445.2158 196.6101,447.3159 Q196.6101,449.4077 197.2949,450.4744 Q197.9797,451.541 199.3244,451.541 Q199.9553,451.541 200.5488,451.2712 Q201.1423,451.0015 201.7731,450.4204 Z " fill="#000000"/><text fill="#000000" font-family="sans-serif" font-size="14" lengthAdjust="spacing" textLength="153" x="217.7" y="452.291">ProgramGrammarRule</text><line style="stroke:#181818;stroke-width:0.5;" x1="165.5" x2="392.5" y1="463" y2="463"/><line style="stroke:#181818;stroke-width:0.5;" x1="165.5" x2="392.5" y1="471" y2="471"/><text fill="#000000" font-family="sans-serif" font-size="14" lengthAdjust="spacing" textLength="217" x="170.5" y="488.5352">Node ParseNode(TokenIterator)</text></g><!--MD5=[20080be7d9e2470b3df5c67a700ed6c2]
class Extractor--><g id="elem_Extractor"><rect codeLine="22" fill="#F1F1F1" height="64.4883" id="Extractor" rx="2.5" ry="2.5" style="stroke:#181818;stroke-width:0.5;" width="185" x="514.5" y="281.5"/><ellipse cx="571.25" cy="297.5" fill="#A9DCDF" rx="11" ry="11" style="stroke:#181818;stroke-width:1.0;"/><path d="M571.1133,292.8481 L569.9595,297.9199 L572.2754,297.9199 Z M569.6191,290.6069 L572.6157,290.6069 L575.9609,303 L573.5122,303 L572.7485,299.937 L569.4697,299.937 L568.7227,303 L566.2739,303 Z " fill="#000000"/><text fill="#000000" font-family="sans-serif" font-size="14" font-style="italic" lengthAdjust="spacing" textLength="63" x="591.75" y="302.791">Extractor</text><line style="stroke:#181818;stroke-width:0.5;" x1="515.5" x2="698.5" y1="313.5" y2="313.5"/><line style="stroke:#181818;stroke-width:0.5;" x1="515.5" x2="698.5" y1="321.5" y2="321.5"/><text fill="#000000" font-family="sans-serif" font-size="14" lengthAdjust="spacing" textLength="173" x="520.5" y="339.0352">Design[] ExtractAll(Node)</text></g><!--MD5=[42d8b9eac8c399621d5ef2b55261e8f2]
class EntityExtractor--><g id="elem_EntityExtractor"><rect codeLine="25" fill="#F1F1F1" height="48" id="EntityExtractor" rx="2.5" ry="2.5" style="stroke:#181818;stroke-width:0.5;" width="133" x="428.5" y="439"/><ellipse cx="443.5" cy="455" fill="#ADD1B2" rx="11" ry="11" style="stroke:#181818;stroke-width:1.0;"/><path d="M445.9731,461.1431 Q445.3921,461.4419 444.7529,461.5913 Q444.1138,461.7407 443.4082,461.7407 Q440.9014,461.7407 439.5815,460.0889 Q438.2617,458.437 438.2617,455.3159 Q438.2617,452.1865 439.5815,450.5347 Q440.9014,448.8828 443.4082,448.8828 Q444.1138,448.8828 444.7612,449.0322 Q445.4087,449.1816 445.9731,449.4805 L445.9731,452.2031 Q445.3423,451.6221 444.7488,451.3523 Q444.1553,451.0825 443.5244,451.0825 Q442.1797,451.0825 441.4949,452.1492 Q440.8101,453.2158 440.8101,455.3159 Q440.8101,457.4077 441.4949,458.4744 Q442.1797,459.541 443.5244,459.541 Q444.1553,459.541 444.7488,459.2712 Q445.3423,459.0015 445.9731,458.4204 Z " fill="#000000"/><text fill="#000000" font-family="sans-serif" font-size="14" lengthAdjust="spacing" textLength="101" x="457.5" y="460.291">EntityExtractor</text><line style="stroke:#181818;stroke-width:0.5;" x1="429.5" x2="560.5" y1="471" y2="471"/><line style="stroke:#181818;stroke-width:0.5;" x1="429.5" x2="560.5" y1="479" y2="479"/></g><!--MD5=[ac45917db44a50ef686211e29d0d471f]
class PatternExtractor--><g id="elem_PatternExtractor"><rect codeLine="26" fill="#F1F1F1" height="48" id="PatternExtractor" rx="2.5" ry="2.5" style="stroke:#181818;stroke-width:0.5;" width="144" x="597" y="439"/><ellipse cx="612" cy="455" fill="#ADD1B2" rx="11" ry="11" style="stroke:#181818;stroke-width:1.0;"/><path d="M614.4731,461.1431 Q613.8921,461.4419 613.2529,461.5913 Q612.6138,461.7407 611.9082,461.7407 Q609.4014,461.7407 608.0815,460.0889 Q606.7617,458.437 606.7617,455.3159 Q606.7617,452.1865 608.0815,450.5347 Q609.4014,448.8828 611.9082,448.8828 Q612.6138,448.8828 613.2612,449.0322 Q613.9087,449.1816 614.4731,449.4805 L614.4731,452.2031 Q613.8423,451.6221 613.2488,451.3523 Q612.6553,451.0825 612.0244,451.0825 Q610.6797,451.0825 609.9949,452.1492 Q609.3101,453.2158 609.3101,455.3159 Q609.3101,457.4077 609.9949,458.4744 Q610.6797,459.541 612.0244,459.541 Q612.6553,459.541 613.2488,459.2712 Q613.8423,459.0015 614.4731,458.4204 Z " fill="#000000"/><text fill="#000000" font-family="sans-serif" font-size="14" lengthAdjust="spacing" textLength="112" x="626" y="460.291">PatternExtractor</text><line style="stroke:#181818;stroke-width:0.5;" x1="598" x2="740" y1="471" y2="471"/><line style="stroke:#181818;stroke-width:0.5;" x1="598" x2="740" y1="479" y2="479"/></g><!--MD5=[80a8ea4c84d0e1586a628cc9ac24ca53]
class RelationshipExtractor--><g id="elem_RelationshipExtractor"><rect codeLine="27" fill="#F1F1F1" height="48" id="RelationshipExtractor" rx="2.5" ry="2.5" style="stroke:#181818;stroke-width:0.5;" width="180" x="776" y="439"/><ellipse cx="791" cy="455" fill="#ADD1B2" rx="11" ry="11" style="stroke:#181818;stroke-width:1.0;"/><path d="M793.4731,461.1431 Q792.8921,461.4419 792.2529,461.5913 Q791.6138,461.7407 790.9082,461.7407 Q788.4014,461.7407 787.0815,460.0889 Q785.7617,458.437 785.7617,455.3159 Q785.7617,452.1865 787.0815,450.5347 Q788.4014,448.8828 790.9082,448.8828 Q791.6138,448.8828 792.2612,449.0322 Q792.9087,449.1816 793.4731,449.4805 L793.4731,452.2031 Q792.8423,451.6221 792.2488,451.3523 Q791.6553,451.0825 791.0244,451.0825 Q789.6797,451.0825 788.9949,452.1492 Q788.3101,453.2158 788.3101,455.3159 Q788.3101,457.4077 788.9949,458.4744 Q789.6797,459.541 791.0244,459.541 Q791.6553,459.541 792.2488,459.2712 Q792.8423,459.0015 793.4731,458.4204 Z " fill="#000000"/><text fill="#000000" font-family="sans-serif" font-size="14" lengthAdjust="spacing" textLength="148" x="805" y="460.291">RelationshipExtractor</text><line style="stroke:#181818;stroke-width:0.5;" x1="777" x2="955" y1="471" y2="471"/><line style="stroke:#181818;stroke-width:0.5;" x1="777" x2="955" y1="479" y2="479"/></g><!--MD5=[9a8dd3bd5da8b0565063a6dc4399d33c]
reverse link IPKBPopulator to SP--><g id="link_IPKBPopulator_SP"><path codeLine="29" d="M339.43,61.14 C329.65,82.15 316.47,110.46 306.48,131.9 " fill="none" id="IPKBPopulator-backto-SP" style="stroke:#181818;stroke-width:1.0;"/><polygon fill="#181818" points="341.46,56.79,334.045,63.2721,339.3565,61.326,341.3026,66.6376,341.46,56.79" style="stroke:#181818;stroke-width:1.0;"/></g><!--MD5=[7604f87eae502ee72aee39c166938ee0]
link UI to SP--><g id="link_UI_SP"><path codeLine="30" d="M229.79,55.28 C229.91,69.35 231.59,87.34 238,102 C241.89,110.91 247.59,119.43 253.84,127.13 " fill="none" id="UI-to-SP" style="stroke:#181818;stroke-width:1.0;"/><polygon fill="#181818" points="256.81,130.66,254.0866,121.1952,253.595,126.8306,247.9596,126.3391,256.81,130.66" style="stroke:#181818;stroke-width:1.0;"/><text fill="#000000" font-family="sans-serif" font-size="13" lengthAdjust="spacing" textLength="72" x="239" y="98.5684">LoadSource</text></g><!--MD5=[adcfb7d94d1139086172562e7852837f]
link SP to Lexer--><g id="link_SP_Lexer"><path codeLine="32" d="M246.57,196.46 C216.07,217.58 175.47,245.69 141.88,268.96 " fill="none" id="SP-to-Lexer" style="stroke:#181818;stroke-width:1.0;"/><polygon fill="#181818" points="137.79,271.79,147.4682,269.9646,141.9035,268.9477,142.9205,263.383,137.79,271.79" style="stroke:#181818;stroke-width:1.0;"/><text fill="#000000" font-family="sans-serif" font-size="13" lengthAdjust="spacing" textLength="22" x="200" y="239.5684">Lex</text></g><!--MD5=[a0524c5d77f6a6ea7710299adaf87bfa]
link SP to Parser--><g id="link_SP_Parser"><path codeLine="33" d="M292,196.28 C292,216.61 292,243.47 292,266.25 " fill="none" id="SP-to-Parser" style="stroke:#181818;stroke-width:1.0;"/><polygon fill="#181818" points="292,271.04,296,262.04,292,266.04,288,262.04,292,271.04" style="stroke:#181818;stroke-width:1.0;"/><text fill="#000000" font-family="sans-serif" font-size="13" lengthAdjust="spacing" textLength="85" x="293" y="239.5684">ParseProgram</text></g><!--MD5=[b58d8a988f073bf99932fc1e948d2e93]
link SP to Extractor--><g id="link_SP_Extractor"><path codeLine="34" d="M359.19,196.46 C410.62,220.54 481.45,253.71 534.22,278.42 " fill="none" id="SP-to-Extractor" style="stroke:#181818;stroke-width:1.0;"/><polygon fill="#181818" points="538.54,280.44,532.0964,272.9915,534.0149,278.3131,528.6933,280.2316,538.54,280.44" style="stroke:#181818;stroke-width:1.0;"/><text fill="#000000" font-family="sans-serif" font-size="13" lengthAdjust="spacing" textLength="61" x="450" y="239.5684">ExtractAll</text></g><!--MD5=[1a1d5a4c058e842566b1a29e5b324c66]
reverse link Lexer to Token--><g id="link_Lexer_Token"><path codeLine="36" d="M79,368.9 C79,392.93 79,419.92 79,438.63 " fill="none" id="Lexer-backto-Token" style="stroke:#181818;stroke-width:1.0;"/><polygon fill="none" points="79,355.93,75,361.93,79,367.93,83,361.93,79,355.93" style="stroke:#181818;stroke-width:1.0;"/></g><!--MD5=[407983fe059aaffbf9c9876be299d8df]
link Parser to ProgramGrammarRule--><g id="link_Parser_ProgramGrammarRule"><path codeLine="37" d="M288.48,354.42 C286.56,376.22 284.19,403.06 282.31,424.48 " fill="none" id="Parser-to-ProgramGrammarRule" style="stroke:#181818;stroke-width:1.0;"/><polygon fill="#181818" points="281.87,429.43,286.6528,420.8204,282.3136,424.4497,278.6843,420.1106,281.87,429.43" style="stroke:#181818;stroke-width:1.0;"/><text fill="#000000" font-family="sans-serif" font-size="13" lengthAdjust="spacing" textLength="66" x="286" y="397.5684">ParseNode</text></g><!--MD5=[0a69f76ec53f4099dc5f8c0a95c82cfb]
reverse link Extractor to EntityExtractor--><g id="link_Extractor_EntityExtractor"><path codeLine="39" d="M570.28,362.86 C551,388.25 528.25,418.22 512.84,438.51 " fill="none" id="Extractor-backto-EntityExtractor" style="stroke:#181818;stroke-width:1.0;"/><polygon fill="none" points="564.66,358.68,582.33,346.99,575.81,367.15,564.66,358.68" style="stroke:#181818;stroke-width:1.0;"/></g><!--MD5=[0e010726c0d93b140389228074859cb8]
reverse link Extractor to PatternExtractor--><g id="link_Extractor_PatternExtractor"><path codeLine="40" d="M628.41,365.45 C638.85,390.26 650.88,418.9 659.12,438.51 " fill="none" id="Extractor-backto-PatternExtractor" style="stroke:#181818;stroke-width:1.0;"/><polygon fill="none" points="622.03,368.33,620.74,347.18,634.94,362.9,622.03,368.33" style="stroke:#181818;stroke-width:1.0;"/></g><!--MD5=[c9ce3af760276dd16f044282e1b2d96a]
reverse link Extractor to RelationshipExtractor--><g id="link_Extractor_RelationshipExtractor"><path codeLine="41" d="M680.8,356.53 C727.53,383.14 786.21,416.56 824.85,438.56 " fill="none" id="Extractor-backto-RelationshipExtractor" style="stroke:#181818;stroke-width:1.0;"/><polygon fill="none" points="677.47,362.69,663.56,346.71,684.4,350.53,677.47,362.69" style="stroke:#181818;stroke-width:1.0;"/></g><!--MD5=[da5ce83b193a9c73ad583ec6fc229959]
@startuml

interface UI
interface IPKBPopulator

class SP {
    void LoadSource()
}
class Lexer {
    Token NextToken()
    Token[] Lex()
}
abstract class Token

class Parser {
    Node ParseProgram(Token[])
    void ValidateProgram(Node)
}
class ProgramGrammarRule {
    Node ParseNode(TokenIterator)
}

abstract class Extractor {
    Design[] ExtractAll(Node)
}
class EntityExtractor
class PatternExtractor
class RelationshipExtractor

SP -up-> IPKBPopulator
SP <-up- UI: LoadSource

SP -down-> Lexer: Lex
SP -down-> Parser: ParseProgram
SP -down-> Extractor: ExtractAll

Lexer o- - Token
Parser -down-> ProgramGrammarRule: ParseNode

Extractor <|-down- EntityExtractor
Extractor <|-down- PatternExtractor
Extractor <|-down- RelationshipExtractor

@enduml

PlantUML version 1.2022.12(Mon Oct 24 02:12:26 SGT 2022)
(GPL source distribution)
Java Runtime: OpenJDK Runtime Environment
JVM: OpenJDK 64-Bit Server VM
Default Encoding: US-ASCII
Language: en
Country: SG
--></g></svg>